<svg width="21" height="18" viewBox="0 0 21 18" fill="none" xmlns="http://www.w3.org/2000/svg">
<path d="M20.7904 12.1275L18.353 5.01932C17.7737 3.32876 17.1356 2.21368 15.8521 1.85155L15.7739 1.25546C15.6553 0.385085 14.8793 -0.110608 13.8477 0.0265369C13.4316 0.066857 13.0391 0.234034 12.726 0.504302C12.563 0.656954 12.4403 0.845714 12.3683 1.05453C12.2963 1.26334 12.277 1.48603 12.3122 1.70364L12.4354 2.64752C12.2318 2.82841 12.0503 3.03176 11.8948 3.25347C11.4477 3.37376 10.9859 3.43407 10.5221 3.43274H10.477C10.0136 3.43324 9.55217 3.37294 9.10522 3.25347C8.95085 3.03141 8.77033 2.82774 8.56735 2.64663L8.69056 1.70275C8.72599 1.48513 8.70687 1.26237 8.63482 1.05352C8.56277 0.844669 8.43994 0.655923 8.27681 0.503406C7.96396 0.233478 7.57176 0.0666085 7.15601 0.0265369C6.1198 -0.106126 5.34471 0.385085 5.22519 1.25994L5.14795 1.85603C3.86074 2.21458 3.22632 3.33325 2.64708 5.0238L0.209641 12.1275C0.0700139 12.5627 -0.000677215 13.0161 8.3333e-06 13.4721C-0.00183277 14.4194 0.301441 15.3433 0.867047 16.1136C1.43265 16.8838 2.23204 17.4615 3.15244 17.7651C4.07284 18.0687 5.06779 18.083 5.99693 17.8058C6.92607 17.5287 7.7425 16.9741 8.33105 16.2204L8.74848 16.0536C9.29711 15.8337 9.88383 15.718 10.477 15.713H10.5221C11.1162 15.7173 11.7039 15.8326 12.2534 16.0527L12.6708 16.2195C13.3329 17.0642 14.279 17.6547 15.3431 17.8873C16.4072 18.12 17.5213 17.9799 18.49 17.4917C19.4588 17.0035 20.2202 16.1983 20.6409 15.2175C21.0615 14.2366 21.1144 13.1427 20.7904 12.1275ZM13.9764 0.999995C14.46 0.937249 14.7276 1.06633 14.7699 1.38185C14.7755 1.42401 14.7725 1.46684 14.7609 1.50783C14.7493 1.54882 14.7295 1.58714 14.7025 1.62054C14.6755 1.65394 14.6419 1.68175 14.6038 1.70233C14.5656 1.72292 14.5236 1.73586 14.4803 1.7404C14.0987 1.77931 13.726 1.8783 13.3769 2.03351L13.3163 1.57188C13.2684 1.25367 13.4928 1.06184 13.9764 0.999995ZM6.22921 1.38185C6.27243 1.06633 6.53907 0.933663 7.02361 0.999995C7.50816 1.06633 7.73066 1.25367 7.68745 1.57188L7.62768 2.03351C7.27677 1.87795 6.90229 1.77896 6.51884 1.7404C6.47548 1.73586 6.43349 1.72292 6.39533 1.70233C6.35717 1.68175 6.32361 1.65394 6.29663 1.62054C6.26965 1.58714 6.24979 1.54882 6.23821 1.50783C6.22663 1.46684 6.22358 1.42401 6.22921 1.38185ZM4.64134 17.0145C3.92334 17.0145 3.22146 16.807 2.62443 16.4182C2.02739 16.0293 1.56201 15.4767 1.28712 14.83C1.01223 14.1834 0.940164 13.4718 1.08004 12.7852C1.21991 12.0986 1.56545 11.4679 2.07296 10.9727C2.58047 10.4776 3.22717 10.1402 3.93131 10.0034C4.63544 9.86647 5.3654 9.93618 6.0289 10.2037C6.69241 10.4712 7.25966 10.9245 7.65896 11.5062C8.05825 12.088 8.27166 12.7721 8.27221 13.4721C8.27197 14.4111 7.88944 15.3116 7.20865 15.9758C6.52786 16.64 5.60449 17.0136 4.64134 17.0145ZM10.5258 14.7288H10.4807C9.99529 14.7317 9.51228 14.7955 9.04362 14.9188C9.36336 13.9966 9.36853 12.9982 9.05833 12.0729C9.52233 12.194 10.0004 12.2567 10.4807 12.2593H10.5258C11.0061 12.2567 11.4841 12.194 11.9481 12.0729C11.6379 12.9982 11.6431 13.9966 11.9628 14.9188C11.493 14.7947 11.0088 14.7303 10.5221 14.727L10.5258 14.7288ZM12.6313 10.7848L12.2571 10.9345C11.7077 11.1551 11.1199 11.2704 10.5258 11.2742H10.4807C9.8866 11.2702 9.29882 11.1549 8.7494 10.9345L8.37243 10.783C7.66886 9.85362 6.62688 9.22229 5.46063 9.01874C4.29438 8.81518 3.09245 9.05485 2.10185 9.68851L3.60697 5.33305C4.30391 3.29739 4.87764 2.70848 6.16485 2.70848C6.60459 2.70987 7.03646 2.82232 7.41835 3.03487C7.80025 3.24741 8.11913 3.5528 8.34393 3.92126L8.44231 4.08261L8.62619 4.13908C9.22472 4.3245 9.849 4.41883 10.477 4.41875H10.5221C11.1514 4.41994 11.7771 4.32559 12.3766 4.13908L12.5605 4.08261L12.6589 3.92126C12.8837 3.55267 13.2028 3.2472 13.5848 3.03465C13.9669 2.82209 14.399 2.70971 14.8389 2.70848C16.1261 2.70848 16.6998 3.29739 17.3967 5.33305L18.9019 9.6903C17.9112 9.05538 16.7085 8.8148 15.5414 9.01805C14.3743 9.22131 13.3315 9.85294 12.6276 10.783L12.6313 10.7848ZM16.3614 17.0145C15.6433 17.0152 14.941 16.8083 14.3435 16.4199C13.746 16.0315 13.2801 15.4791 13.0046 14.8325C12.7291 14.1859 12.6566 13.4742 12.796 12.7874C12.9355 12.1006 13.2807 11.4695 13.7881 10.974C14.2954 10.4785 14.9421 10.1408 15.6464 10.0036C16.3506 9.86644 17.0808 9.93595 17.7445 10.2033C18.4082 10.4707 18.9757 10.924 19.3751 11.5059C19.7746 12.0877 19.9881 12.7719 19.9886 13.4721C19.9884 14.4111 19.6059 15.3116 18.9251 15.9758C18.2443 16.64 17.3209 17.0136 16.3578 17.0145H16.3614Z" fill="#3D2859"/>
</svg>
