<svg width="18" height="20" viewBox="0 0 18 20" fill="none" xmlns="http://www.w3.org/2000/svg">
<path d="M4.08565 0.0507812C3.4446 0.0514818 2.82642 0.290866 2.34988 0.722939C1.87335 1.15501 1.57207 1.74929 1.50395 2.3916H0.82432C0.605375 2.39253 0.395714 2.48083 0.241224 2.63717C0.0867337 2.79351 -1.96553e-06 3.00515 0 3.22577V3.36363H1.57849C1.69969 3.80455 1.9334 4.2058 2.25636 4.52741L2.40281 4.69265C2.65449 4.98691 2.60362 6.03935 2.55364 7.05733C2.44578 9.26648 2.29845 12.2966 4.34697 14.4651C5.38176 15.5608 6.83747 16.2987 8.75007 16.6936L8.7299 18.9735H7.79421C7.67817 18.9735 7.56327 18.9965 7.45607 19.0413C7.34887 19.0861 7.25149 19.1517 7.16947 19.2344C7.08746 19.3172 7.02243 19.4154 6.97811 19.5234C6.93378 19.6315 6.91102 19.7473 6.91114 19.8642V19.9455H9.52879C9.763 19.9455 9.98761 19.8518 10.1532 19.6849C10.3188 19.518 10.4119 19.2917 10.4119 19.0557V18.9735H9.69453L9.71383 16.858C10.5939 16.9746 11.4806 17.0336 12.3683 17.0347L12.4429 17.0957L12.6787 17.2866C13.1939 17.7186 13.8027 18.0223 14.456 18.1731C15.1093 18.3238 15.7887 18.3174 16.4391 18.1543L17.9965 17.762L6.36305 1.41162C6.13927 0.999978 5.80983 0.656494 5.40919 0.417095C5.00855 0.177697 4.55143 0.0511809 4.08565 0.0507812ZM2.81847 3.6897H2.81321C2.54653 3.35494 2.41943 2.92884 2.45877 2.5014C2.49811 2.07396 2.7008 1.67867 3.02402 1.39904C3.34724 1.11942 3.76568 0.977349 4.19093 1.00286C4.61618 1.02837 5.01494 1.21945 5.30296 1.53575C5.59098 1.85204 5.7457 2.26877 5.73443 2.69789C5.72317 3.12701 5.5468 3.53492 5.24259 3.83542C4.93838 4.13593 4.53015 4.30551 4.10416 4.30832C3.67816 4.31114 3.26776 4.14698 2.95966 3.85052L2.81847 3.6897ZM16.1102 16.7758C16.1405 16.8184 16.1596 16.8679 16.1657 16.9199C16.1719 16.9719 16.1648 17.0246 16.1453 17.0731C16.1258 17.1216 16.0944 17.1644 16.0541 17.1974C16.0137 17.2304 15.9658 17.2526 15.9146 17.2618C15.791 17.2839 15.6735 17.3025 15.6025 17.3069C14.7657 17.355 13.942 17.0812 13.2979 16.5408L13.1576 16.4268L11.9298 14.6294C12.2043 14.7779 12.3815 14.868 12.4218 14.8883L12.8524 15.1075L12.8945 15.0191C12.998 14.8123 13.0167 14.5727 12.9467 14.3521C12.8766 14.1315 12.7234 13.9474 12.52 13.8394L12.3446 13.7511C11.7501 13.4276 10.7039 12.8365 9.60509 12.1092C7.43905 10.675 6.05262 9.37517 5.59749 8.35012C5.5412 8.20923 5.51374 8.05834 5.51675 7.90649C5.51976 7.75464 5.55319 7.60497 5.61502 7.46646C5.65573 7.36409 5.71773 7.27169 5.79684 7.19548C5.87595 7.11927 5.97034 7.06101 6.07366 7.02463C6.20366 6.98478 6.34226 6.98324 6.47309 7.02019C6.60393 7.05715 6.72154 7.13105 6.81204 7.23318L7.12599 7.60255L7.2698 7.47795C7.35098 7.40835 7.41618 7.32181 7.4609 7.22431C7.50561 7.12682 7.52877 7.02069 7.52877 6.91329C7.52877 6.80589 7.50561 6.69977 7.4609 6.60227C7.41618 6.50477 7.35098 6.41823 7.2698 6.34863L7.2549 6.33714C7.04401 6.18603 6.80149 6.08577 6.54604 6.0441C6.2906 6.00242 6.02907 6.02045 5.78164 6.09679C5.54723 6.17311 5.3319 6.29945 5.1503 6.46718C4.96871 6.63492 4.82512 6.84012 4.72932 7.06881C4.61069 7.33203 4.54778 7.61727 4.54461 7.90634C4.54144 8.19541 4.59807 8.48198 4.7109 8.74777C5.47208 10.4612 8.01783 12.2921 9.97778 13.5045L11.7185 16.0486C8.59485 15.939 6.34902 15.1826 5.038 13.7944C3.27974 11.9281 3.41304 9.25411 3.51739 7.10504C3.55335 6.37072 3.58316 5.74332 3.53581 5.22461C4.18014 5.36644 4.85389 5.25536 5.41978 4.91401C5.98566 4.57267 6.40109 4.02674 6.58141 3.38748L16.1102 16.7758Z" fill="#3D2859"/>
</svg>
