<svg width="19" height="19" viewBox="0 0 19 19" fill="none" xmlns="http://www.w3.org/2000/svg">
<g clip-path="url(#clip0_1922_92)">
<path d="M18.5889 5.28048C18.5902 5.23432 18.584 5.18825 18.5705 5.14386C18.5106 4.9501 18.3565 4.36056 18.3565 3.97306C18.3565 3.56651 18.5194 2.60685 18.5819 2.27151C18.6294 2.01731 18.4939 1.807 18.1892 1.74489L10.7603 0.507027C10.6354 0.486119 10.5066 0.512292 10.402 0.579891L1.88755 6.0853C1.88755 6.0853 1.41829 6.36516 1.24485 6.54567C1.03281 6.74954 0.865835 6.9909 0.753557 7.25581C0.641279 7.52072 0.585929 7.80392 0.590703 8.08907V8.24308C0.585928 8.54582 0.648821 8.84613 0.775309 9.12455C0.901797 9.40298 1.08906 9.65331 1.32497 9.85934C1.08838 10.0647 0.900648 10.3148 0.774102 10.5932C0.647556 10.8716 0.585055 11.172 0.590703 11.4748V11.6288C0.585843 11.9312 0.648619 12.2312 0.77496 12.5094C0.9013 12.7875 1.08838 13.0376 1.32409 13.2434C1.08764 13.4486 0.900047 13.6986 0.773647 13.9769C0.647248 14.2552 0.584901 14.5555 0.590703 14.858V15.012C0.590703 16.0222 1.26862 16.8759 2.20274 17.0406L10.4082 18.4921C10.482 18.5047 10.558 18.5012 10.6302 18.4818C10.7024 18.4624 10.7689 18.4277 10.8246 18.3803L18.4146 11.8391C18.4779 11.7844 18.5246 11.7148 18.5499 11.6376C18.5753 11.5604 18.5784 11.4782 18.559 11.3994C18.5071 11.1899 18.3715 10.559 18.3715 10.1624C18.3715 9.76578 18.5062 8.85746 18.5625 8.51715C18.5894 8.4384 18.5931 8.35426 18.5731 8.27371C18.5731 8.26626 18.3865 7.51278 18.3865 7.03171C18.3865 6.6177 18.5264 5.69034 18.5801 5.36659C18.5856 5.33816 18.5886 5.30936 18.5889 5.28048ZM17.5597 5.10577L10.7806 10.4522C10.703 10.1161 10.6608 9.77354 10.6547 9.42961C10.6575 8.99653 10.7419 8.56735 10.9038 8.16193L17.4497 3.2676C17.4168 3.50159 17.3974 3.73709 17.3916 3.97306C17.4053 4.35513 17.4616 4.73479 17.5597 5.10577ZM9.8359 17.4637L2.38146 16.1456C1.91308 16.0628 1.55916 15.5751 1.55916 15.012V14.858C1.55432 14.6775 1.59117 14.4982 1.66717 14.3323C1.74317 14.1665 1.8565 14.0182 1.99936 13.8975C2.14304 13.7816 2.32513 13.7163 2.5144 13.7129L9.85263 15.0104C9.72713 15.392 9.65897 15.7884 9.65013 16.1878C9.66447 16.618 9.72673 17.0457 9.8359 17.4637ZM9.64925 12.8046C9.66388 13.2348 9.72644 13.6625 9.8359 14.0805L2.38146 12.7623C1.91308 12.6795 1.55916 12.1918 1.55916 11.6288V11.4748C1.55432 11.2943 1.59117 11.1149 1.66717 10.9491C1.74317 10.7833 1.8565 10.6349 1.99936 10.5143C2.14322 10.3974 2.32605 10.3314 2.51616 10.328C2.81902 10.3528 9.85615 11.6131 9.85615 11.6131C9.72844 11.9992 9.65879 12.4003 9.64925 12.8046ZM9.68271 9.42961C9.68972 9.85134 9.74193 10.2713 9.83854 10.6832L2.37706 9.37331C1.91044 9.2905 1.55916 8.80115 1.55916 8.23977V8.08907C1.55433 7.90868 1.59119 7.72946 1.66719 7.56377C1.7432 7.39809 1.85653 7.24989 1.99936 7.12941C2.08845 7.05534 2.19422 7.00121 2.30873 6.9711C2.42325 6.94098 2.54353 6.93566 2.66055 6.95553L9.86231 8.229C9.74573 8.61987 9.68533 9.02366 9.68271 9.42961ZM10.373 7.39272L3.46348 6.17058L10.785 1.43605L16.9628 2.46526L10.373 7.39272ZM10.7656 17.1988C10.6797 16.8674 10.6302 16.5287 10.6177 16.1878C10.6177 15.691 10.8079 15.1619 10.8977 14.94L17.4515 9.52152C17.4259 9.75833 17.4074 9.98768 17.4074 10.1591C17.4219 10.5561 17.4732 10.9512 17.5606 11.3398L10.7656 17.1988ZM10.7656 13.8329C10.678 13.4959 10.6273 13.1513 10.6142 12.8046C10.6142 12.2937 10.8149 11.7513 10.9012 11.5402L17.4647 6.36599C17.4374 6.61439 17.418 6.85451 17.418 7.02839C17.4321 7.42343 17.4828 7.81656 17.5694 8.20333L10.7656 13.8329Z" fill="#3D2859"/>
<path d="M9.50048 5.06947L6.7175 4.55859C6.69306 4.67603 6.69346 4.79685 6.71868 4.91414C6.74391 5.03143 6.79346 5.1429 6.86452 5.24217C6.93557 5.34144 7.02672 5.42658 7.13277 5.4927C7.23883 5.55883 7.35769 5.60465 7.48258 5.62755L10.2647 6.14008C10.2894 6.02258 10.2892 5.90165 10.2642 5.78422C10.2391 5.66678 10.1897 5.55515 10.1187 5.4557C10.0477 5.35625 9.95658 5.27095 9.8505 5.20468C9.74442 5.1384 9.62547 5.09246 9.50048 5.06947Z" fill="#3D2859"/>
<path d="M10.9364 4.08818L8.15345 3.57812C8.12899 3.6955 8.12936 3.81627 8.15453 3.93351C8.1797 4.05076 8.22918 4.16219 8.30014 4.26146C8.3711 4.36072 8.46216 4.44586 8.56811 4.51203C8.67406 4.57819 8.79284 4.62408 8.91765 4.64708L11.7006 5.15961C11.7255 5.04206 11.7254 4.92104 11.7004 4.80351C11.6754 4.68598 11.626 4.57424 11.555 4.4747C11.484 4.37517 11.3928 4.28979 11.2867 4.22346C11.1805 4.15713 11.0615 4.11116 10.9364 4.08818Z" fill="#3D2859"/>
</g>
<defs>
<clipPath id="clip0_1922_92">
<rect width="18" height="18" fill="white" transform="translate(0.590698 0.5)"/>
</clipPath>
</defs>
</svg>
