<svg width="17" height="22" viewBox="0 0 17 22" fill="none" xmlns="http://www.w3.org/2000/svg">
<g clip-path="url(#clip0_1922_75)">
<path d="M7.98661 16.1565C8.08972 16.1647 8.19282 16.1694 8.29688 16.1694C8.44429 16.1692 8.59157 16.1606 8.73793 16.1436C11.8778 15.9215 14.358 13.5634 14.358 10.7067C14.3442 9.82264 14.2006 8.94492 13.9313 8.09981C13.4711 6.60321 12.7526 5.19226 11.8062 3.92635C10.7561 2.50724 9.5303 1.34615 7.93888 0.503906C7.86134 1.16081 7.66522 1.79954 7.3594 2.39113C7.10737 2.89427 6.38661 3.58171 5.83768 4.10235L5.80522 4.13276C5.63042 4.29789 5.53048 4.52312 5.52726 4.75918C5.52404 4.99525 5.6178 5.22294 5.78804 5.39245L5.87587 5.47907L6.38279 5.00173C7.35654 4.08761 8.2921 3.21403 8.63483 2.13496C11.5742 4.41566 13.3126 8.16984 13.3126 10.7049C13.3126 12.0208 12.6587 13.204 11.6229 14.0223C11.7421 13.7031 11.8031 13.3664 11.8033 13.0271C11.8033 12.0134 11.5771 11.2688 11.0711 10.6192L10.7561 10.2137L10.6425 10.2957C10.4546 10.4327 10.327 10.6331 10.2853 10.8568C10.2435 11.0805 10.2906 11.3112 10.4172 11.5029L10.441 11.5425C10.6148 11.8604 10.7532 12.3064 10.7532 13.0271C10.7532 14.1024 9.83483 14.9935 8.64628 15.14C8.5174 15.1483 8.38853 15.1539 8.25774 15.1539C8.18614 15.1539 8.11549 15.1539 8.0458 15.1493C6.81429 15.0378 5.85009 14.1282 5.85009 13.0298C5.85009 11.8586 6.71883 10.292 8.15177 8.83608C8.38054 9.23207 8.65327 9.60285 8.96514 9.94188L9.31359 10.3215L9.46824 10.1898C9.63722 10.0461 9.741 9.84409 9.75725 9.62729C9.7735 9.41048 9.70091 9.19619 9.55512 9.03052C9.51979 8.98905 9.49211 8.9568 9.47779 8.93837C9.19658 8.5787 8.9631 8.18647 8.7828 7.77083L8.48685 7.09998L7.9322 7.60404C5.96656 9.40096 4.79233 11.4273 4.79233 13.0243C4.79253 13.3979 4.86606 13.7681 5.00904 14.1153C3.90068 13.2998 3.19519 12.0742 3.19519 10.7058C3.19519 8.87571 3.9656 7.60404 4.73982 6.67701L4.77419 6.63647C4.93975 6.44798 5.02201 6.20427 5.00326 5.95781C4.98452 5.71135 4.86626 5.48186 4.67395 5.31873L4.6119 5.26712L4.26536 5.6477C3.35652 6.64753 2.14697 8.25922 2.14697 10.703C2.14697 13.6334 4.74364 16.0311 7.98661 16.1565Z" fill="#3D2859"/>
<path d="M1.05883 18.7313C0.87133 18.7841 0.69664 18.8725 0.545004 18.9914C0.393367 19.1102 0.267837 19.2571 0.175772 19.4233C0.0844187 19.5862 0.0277305 19.7651 0.00904078 19.9495C-0.00964896 20.1339 0.010037 20.32 0.0669414 20.4969C0.161442 20.7882 0.349999 21.0428 0.60506 21.2233C0.860121 21.4039 1.16832 21.501 1.48461 21.5004C1.62839 21.5001 1.7714 21.4803 1.90943 21.4414C1.96829 21.4243 2.026 21.4037 2.08222 21.3797L8.17103 19.8528L14.0975 21.3345C14.3473 21.4463 14.6242 21.489 14.8976 21.4579C15.1709 21.4268 15.43 21.3232 15.646 21.1585C15.8771 20.9844 16.0482 20.7469 16.1369 20.4771C16.2255 20.2074 16.2274 19.9181 16.1424 19.6473C16.0759 19.4387 15.9604 19.2478 15.8049 19.0894C15.6494 18.931 15.4582 18.8094 15.246 18.7341L15.205 18.7239C15.1394 18.7027 15.0724 18.6858 15.0045 18.6732L13.9467 18.4051L14.9644 18.1498L15.0598 18.1296H15.0732C15.2617 18.0828 15.4401 18.0042 15.6002 17.8973C15.8562 17.7365 16.0495 17.4979 16.1494 17.2192C16.2493 16.9405 16.2502 16.6377 16.152 16.3584C15.961 15.8212 15.4169 15.4415 14.7773 15.3927C14.5824 15.3767 14.3861 15.3929 14.1968 15.4406C14.1596 15.4489 14.1224 15.46 14.087 15.471L8.16817 16.9546L2.24929 15.471C2.21397 15.46 2.17674 15.4489 2.1395 15.4397C1.95076 15.3928 1.75519 15.377 1.56098 15.3927C0.919451 15.4415 0.379114 15.8203 0.182455 16.3594C0.0862416 16.6374 0.088001 16.9384 0.187459 17.2154C0.286917 17.4924 0.47849 17.7299 0.732338 17.8909C0.892519 17.9975 1.0709 18.0761 1.25931 18.1231H1.27267L1.36814 18.1434L2.39535 18.4051L1.28604 18.6815C1.20908 18.6924 1.13312 18.709 1.05883 18.7313ZM14.3391 19.873C14.3771 19.8076 14.4325 19.7531 14.4997 19.7152C14.5668 19.6772 14.6432 19.6573 14.7209 19.6574C14.7356 19.6565 14.7502 19.6565 14.7649 19.6574C14.8495 19.6636 14.9303 19.6941 14.9969 19.745C15.0634 19.7959 15.1126 19.8649 15.1381 19.9431C15.1616 20.0191 15.1607 20.1002 15.1355 20.1757C15.1102 20.2512 15.0619 20.3176 14.9968 20.366C14.9537 20.399 14.9045 20.4238 14.8517 20.4388C14.7427 20.4714 14.6248 20.4614 14.5234 20.4109C14.422 20.3604 14.3452 20.2735 14.3095 20.1688C14.2935 20.1203 14.2876 20.0691 14.2922 20.0183C14.2968 19.9676 14.3118 19.9182 14.3362 19.873H14.3391ZM13.414 19.3938C13.2972 19.6026 13.2377 19.8367 13.2412 20.0739L10.2636 19.3293L11.8608 18.9294L13.4551 19.3275C13.4388 19.3496 13.4236 19.3708 13.4111 19.3938H13.414ZM14.4775 16.4239C14.7038 16.3667 15.0427 16.316 15.1372 16.6312C15.2403 16.9768 14.9071 17.1325 14.7486 17.1583L11.8675 17.8835H11.8608L6.0851 19.3312H6.1042L2.96815 20.1237C2.97264 19.9724 2.95135 19.8214 2.90514 19.6767C2.87139 19.5708 2.82494 19.4691 2.76671 19.3736L14.4775 16.4239ZM1.69272 17.1878C1.49034 17.1353 1.08843 16.9952 1.18771 16.6487C1.30418 16.2746 1.69654 16.3888 1.93998 16.4451L6.0832 17.4854L4.48414 17.8863C4.48414 17.8863 1.89511 17.2348 1.69272 17.1878ZM1.44929 19.6915H1.47984H1.51516H1.52279C1.60746 19.6976 1.68828 19.7282 1.75481 19.7791C1.82135 19.83 1.87055 19.899 1.89607 19.9772C1.91979 20.0531 1.91908 20.1342 1.89402 20.2097C1.86896 20.2852 1.82074 20.3516 1.75573 20.4001C1.71253 20.4335 1.66288 20.4582 1.60967 20.4729C1.50079 20.5057 1.38291 20.4958 1.28158 20.4452C1.18025 20.3947 1.10365 20.3076 1.06838 20.2029C1.05253 20.1541 1.04699 20.1026 1.05207 20.0517C1.05715 20.0007 1.07276 19.9512 1.09797 19.9062C1.12496 19.8581 1.16168 19.8157 1.20595 19.7815C1.25023 19.7473 1.30116 19.722 1.35573 19.7072C1.38591 19.6966 1.41734 19.6898 1.44929 19.6869V19.6915Z" fill="#3D2859"/>
</g>
<defs>
<clipPath id="clip0_1922_75">
<rect width="16.2273" height="21" fill="white" transform="translate(0 0.5)"/>
</clipPath>
</defs>
</svg>
