<svg width="16" height="20" viewBox="0 0 16 20" fill="none" xmlns="http://www.w3.org/2000/svg">
<path d="M1.96181 19.6471C2.53431 19.8853 3.14791 20.0059 3.76688 20.0019C4.04296 20.0017 4.31858 19.9791 4.59108 19.9343C6.1857 19.6734 7.31585 18.6334 8.40798 17.6281C8.86775 17.1849 9.35485 16.7717 9.86632 16.391C9.94234 16.3366 10.0202 16.2831 10.0981 16.2315C11.3831 15.3933 12.872 15.3107 13.9827 16.0175C14.236 16.1787 14.4647 16.3766 14.6613 16.605C14.809 16.7764 15.009 16.8929 15.2296 16.9359C15.4502 16.979 15.6786 16.9461 15.8786 16.8425L16.001 16.7796C15.6634 16.1095 15.1535 15.5439 14.525 15.1427C13.075 14.221 11.167 14.3054 9.54554 15.3642C9.45932 15.4205 9.37217 15.4806 9.28039 15.5453C8.73424 15.9503 8.21344 16.3891 7.72099 16.8594C6.69469 17.8055 5.72401 18.6991 4.42884 18.9103C3.06228 19.1337 1.47786 18.6597 1.09126 17.3231C0.863188 16.5337 1.19416 15.6336 2.07306 14.6499L15.8044 10.4186V0H5.51355L1.26092 14.0267C0.172494 15.276 -0.214109 16.4811 0.113159 17.6169C0.377384 18.5414 1.01987 19.2435 1.96181 19.6471ZM14.7855 8.78731L12.7635 6.72236C12.6792 6.63619 12.579 6.56769 12.4686 6.52077C12.3581 6.47385 12.2396 6.44943 12.1199 6.44891C12.0001 6.44839 11.8814 6.47177 11.7706 6.51772C11.6597 6.56368 11.5589 6.6313 11.4739 6.71673L11.397 6.79369L13.9613 9.41243C14.0005 9.45225 14.0289 9.50166 14.0436 9.55586C14.0584 9.61006 14.059 9.6672 14.0455 9.72173C14.032 9.77625 14.0047 9.8263 13.9664 9.867C13.9281 9.90771 13.8801 9.93768 13.8269 9.95401L3.49802 13.1378L14.7855 1.95607V8.78731ZM5.97062 2.00864C5.98711 1.95498 6.017 1.90655 6.05739 1.86801C6.09778 1.82947 6.14731 1.80213 6.20119 1.78863C6.25506 1.77514 6.31147 1.77594 6.36495 1.79097C6.41843 1.806 6.46718 1.83474 6.50648 1.87441L9.16172 4.56261L9.23774 4.4847C9.32248 4.39901 9.38971 4.29725 9.43557 4.18523C9.48144 4.07322 9.50505 3.95315 9.50505 3.83189C9.50505 3.71064 9.48144 3.59057 9.43557 3.47855C9.38971 3.36654 9.32248 3.26478 9.23774 3.17909L7.12023 1.03435H14.2589L2.837 12.3465L5.97062 2.00864Z" fill="#3D2859"/>
</svg>
