<svg width="22" height="21" viewBox="0 0 22 21" fill="none" xmlns="http://www.w3.org/2000/svg">
<g clip-path="url(#clip0_1922_82)">
<path d="M18.7893 7.69951H13.6697V3.15534C13.6697 2.4511 13.3839 1.7757 12.8752 1.27773C12.3665 0.779758 11.6765 0.5 10.9571 0.5H3.21174C2.49231 0.5 1.80236 0.779758 1.29365 1.27773C0.784936 1.7757 0.499146 2.4511 0.499146 3.15534V8.28899C0.499146 8.6377 0.569309 8.98298 0.705629 9.30515C0.84195 9.62731 1.04176 9.92003 1.29365 10.1666C1.80236 10.6646 2.49231 10.9443 3.21174 10.9443H4.4532V13.3067L7.97505 10.9443H8.33131V15.4885C8.33131 16.1927 8.6171 16.8681 9.12581 17.3661C9.63452 17.8641 10.3245 18.1438 11.0439 18.1438H14.0278L17.5541 20.5071V18.1438H18.7956C19.515 18.1438 20.205 17.8641 20.7137 17.3661C21.2224 16.8681 21.5082 16.1927 21.5082 15.4885V10.354C21.5081 10.0048 21.4376 9.65911 21.3008 9.33664C21.1641 9.01418 20.9637 8.72129 20.7111 8.47473C20.4586 8.22817 20.1588 8.03279 19.8291 7.89977C19.4993 7.76674 19.1459 7.69869 18.7893 7.69951ZM7.66763 9.96539L5.44782 11.4542V9.96539H3.21174C2.7561 9.96539 2.31913 9.78821 1.99695 9.47283C1.67476 9.15745 1.49376 8.7297 1.49376 8.28368V3.15534C1.49376 2.70932 1.67476 2.28157 1.99695 1.96619C2.31913 1.6508 2.7561 1.47362 3.21174 1.47362H10.958C11.1836 1.47362 11.407 1.51712 11.6154 1.60164C11.8239 1.68615 12.0133 1.81003 12.1728 1.96619C12.3323 2.12235 12.4589 2.30774 12.5452 2.51177C12.6315 2.71581 12.676 2.93449 12.676 3.15534V8.28899C12.676 8.73501 12.495 9.16276 12.1728 9.47814C11.8506 9.79353 11.4136 9.97071 10.958 9.97071L7.66763 9.96539ZM20.5072 15.4832C20.5072 15.9292 20.3262 16.357 20.004 16.6723C19.6819 16.9877 19.2449 17.1649 18.7893 17.1649H16.5532V18.6537L14.3334 17.1649H11.043C10.5874 17.1649 10.1504 16.9877 9.8282 16.6723C9.50602 16.357 9.32502 15.9292 9.32502 15.4832V10.939H10.9526C11.6028 10.9387 12.2313 10.7097 12.7236 10.2938C13.2158 9.87792 13.5391 9.30277 13.6344 8.67313H18.7884C19.244 8.67313 19.681 8.85031 20.0031 9.16569C20.3253 9.48108 20.5063 9.90883 20.5063 10.3548L20.5072 15.4832Z" fill="#3D2859"/>
<path d="M16.9257 11.3242H12.0286V11.449C12.0286 11.674 12.1198 11.8898 12.2822 12.0489C12.4446 12.2081 12.665 12.2976 12.8948 12.2978H17.7928V12.1722C17.7926 11.9472 17.7011 11.7315 17.5385 11.5725C17.3759 11.4135 17.1555 11.3242 16.9257 11.3242Z" fill="#3D2859"/>
<path d="M16.9384 13.5234H12.0286V13.6482C12.0284 13.7597 12.0508 13.87 12.0942 13.973C12.1377 14.076 12.2015 14.1696 12.282 14.2484C12.3624 14.3272 12.4579 14.3898 12.5631 14.4324C12.6682 14.4751 12.781 14.4971 12.8948 14.4971H17.7928V14.359C17.7928 14.2492 17.7707 14.1405 17.7278 14.039C17.6848 13.9376 17.6219 13.8455 17.5425 13.7679C17.4632 13.6903 17.3689 13.6287 17.2653 13.5868C17.1616 13.5448 17.0505 13.5233 16.9384 13.5234Z" fill="#3D2859"/>
<path d="M7.14855 7.41797C7.01666 7.41797 6.89017 7.46926 6.7969 7.56055C6.70364 7.65185 6.65125 7.77567 6.65125 7.90478V8.18979C6.65125 8.3189 6.70364 8.44272 6.7969 8.53402C6.89017 8.62531 7.01666 8.6766 7.14855 8.6766C7.28045 8.6766 7.40694 8.62531 7.50021 8.53402C7.59347 8.44272 7.64586 8.3189 7.64586 8.18979V7.90478C7.64562 7.77574 7.59315 7.65206 7.49994 7.56081C7.40673 7.46957 7.28038 7.4182 7.14855 7.41797Z" fill="#3D2859"/>
<path d="M7.07711 2.55078C6.13222 2.55078 5.35913 3.22701 5.35913 4.05547V4.66443H5.87181C5.99963 4.66443 6.12221 4.61472 6.21259 4.52625C6.30297 4.43778 6.35375 4.31778 6.35375 4.19266V4.05724C6.35375 3.76869 6.68288 3.52617 7.07711 3.52617C7.47134 3.52617 7.80047 3.77047 7.80047 4.05724V4.32277C7.79869 4.39116 7.78156 4.45832 7.75031 4.51951C7.71906 4.58069 7.67444 4.6344 7.61963 4.67682L7.18199 5.04414C7.01699 5.17625 6.88326 5.34186 6.79006 5.52952C6.69686 5.71719 6.6464 5.92243 6.64219 6.13106V6.20452C6.64243 6.38301 6.71503 6.55411 6.84405 6.68024C6.97306 6.80636 7.14795 6.87721 7.33028 6.87721H7.63681V6.13106C7.63871 6.0627 7.65588 5.99558 7.68713 5.93441C7.71837 5.87324 7.76292 5.81952 7.81765 5.77701L8.25528 5.41058C8.41957 5.2777 8.55256 5.11161 8.64512 4.92369C8.73767 4.73577 8.78759 4.53047 8.79147 4.32189V4.05636C8.79147 3.22701 8.02199 2.55078 7.07711 2.55078Z" fill="#3D2859"/>
</g>
<defs>
<clipPath id="clip0_1922_82">
<rect width="21" height="20" fill="white" transform="translate(0.5 0.5)"/>
</clipPath>
</defs>
</svg>
