<svg width="17" height="19" viewBox="0 0 17 19" xmlns="http://www.w3.org/2000/svg">
<path d="M16 12.1018C16 11.2529 15.3998 10.5427 14.6047 10.3793V8.48065C14.6047 8.30767 14.5205 8.14574 14.3794 8.0472C14.2384 7.94865 14.0583 7.92608 13.8977 7.98687L12.899 8.36431C12.2432 7.67717 11.446 7.15962 10.5724 6.84191C11.4309 6.20085 11.9884 5.17272 11.9884 4.0157C11.9884 2.07711 10.4235 0.5 8.5 0.5C6.57648 0.5 5.01163 2.07711 5.01163 4.0157C5.01163 5.17272 5.56914 6.20085 6.42756 6.84191C5.55397 7.15966 4.75684 7.6772 4.10102 8.36431L3.10234 7.98687C2.94166 7.92608 2.76159 7.94865 2.62056 8.0472C2.47949 8.14574 2.39535 8.30767 2.39535 8.48065V10.3793C1.60017 10.5427 1 11.2529 1 12.1018C1 12.9508 1.60017 13.661 2.39535 13.8243V15.8636C2.39535 16.0835 2.53066 16.2802 2.73487 16.3574L8.31627 18.4668C8.43396 18.5111 8.566 18.5111 8.6837 18.4668L14.2651 16.3574C14.4693 16.2802 14.6046 16.0835 14.6046 15.8636V13.8243C15.3998 13.661 16 12.9507 16 12.1018ZM6.05814 4.0157C6.05814 2.65871 7.15356 1.55471 8.5 1.55471C9.84644 1.55471 10.9419 2.65871 10.9419 4.0157C10.9419 5.37269 9.84644 6.4767 8.5 6.4767C7.15356 6.4767 6.05814 5.37269 6.05814 4.0157ZM8.5 7.53141C9.72592 7.53141 10.8968 7.97794 11.8104 8.77572L8.5 10.0269L5.18957 8.77572C6.10321 7.97794 7.27412 7.53141 8.5 7.53141ZM2.04651 12.1018C2.04651 11.7141 2.35949 11.3987 2.74419 11.3987H3.09302V12.805H2.74419C2.35949 12.805 2.04651 12.4895 2.04651 12.1018ZM3.44186 13.842C3.83943 13.7603 4.13953 13.4052 4.13953 12.9807V11.2229C4.13953 10.7984 3.83943 10.4433 3.44186 10.3617V9.24162L7.97674 10.9555V17.2121L3.44186 15.4982V13.842ZM9.02326 17.2121V10.9555L13.5581 9.24162V10.3617C13.1606 10.4433 12.8605 10.7984 12.8605 11.2229V12.9807C12.8605 13.4052 13.1606 13.7603 13.5581 13.842V15.4982L9.02326 17.2121ZM14.2558 12.805H13.907V11.3987H14.2558C14.6405 11.3987 14.9535 11.7141 14.9535 12.1018C14.9535 12.4895 14.6405 12.805 14.2558 12.805Z" fill="#3d2859" />
</svg>
