<svg width="20" height="21" viewBox="0 0 20 21" fill="none" xmlns="http://www.w3.org/2000/svg">
<path fill-rule="evenodd" clip-rule="evenodd" d="M14.4691 14.2078L18.8443 18.582C19.0519 18.7896 19.0519 19.1328 18.8443 19.3404C18.7405 19.4481 18.6008 19.5 18.4651 19.5C18.3293 19.5 18.1896 19.4441 18.0858 19.3404L13.7106 14.9661C12.3613 16.1395 10.6008 16.8499 8.67665 16.8499C4.44511 16.8499 1 13.4055 1 9.17494C1 4.94435 4.44112 1.5 8.67665 1.5C12.9082 1.5 16.3533 4.94035 16.3533 9.17494C16.3533 11.0987 15.6427 12.8588 14.4691 14.2078ZM8.67253 2.57812C5.03581 2.57812 2.07373 5.53555 2.07373 9.17546C2.07373 12.8154 5.03581 15.7768 8.67253 15.7768C12.3133 15.7768 15.2713 12.8114 15.2713 9.17546C15.2713 5.53954 12.3133 2.57812 8.67253 2.57812Z" fill="#3D2859"/>
<path d="M18.8443 18.582L19.3746 18.0517V18.0516L18.8443 18.582ZM14.4691 14.2078L13.9032 13.7155L13.4439 14.2434L13.9388 14.7381L14.4691 14.2078ZM18.8443 19.3404L18.314 18.81L18.309 18.815L18.3041 18.8201L18.8443 19.3404ZM18.0858 19.3404L18.6161 18.81V18.81L18.0858 19.3404ZM13.7106 14.9661L14.2409 14.4357L13.7462 13.9412L13.2184 14.4001L13.7106 14.9661ZM19.3746 18.0516L14.9993 13.6774L13.9388 14.7381L18.314 19.1124L19.3746 18.0516ZM19.3746 19.8707C19.8751 19.3703 19.8751 18.5521 19.3746 18.0517L18.314 19.1124C18.2287 19.0271 18.2287 18.8953 18.314 18.81L19.3746 19.8707ZM18.4651 20.25C18.788 20.25 19.1282 20.1267 19.3845 19.8606L18.3041 18.8201C18.3528 18.7695 18.4136 18.75 18.4651 18.75V20.25ZM17.5556 19.8707C17.7992 20.1144 18.1294 20.25 18.4651 20.25V18.75C18.5293 18.75 18.58 18.7739 18.6161 18.81L17.5556 19.8707ZM13.1803 15.4965L17.5556 19.8707L18.6161 18.81L14.2409 14.4357L13.1803 15.4965ZM8.67665 17.5999C10.7889 17.5999 12.7225 16.8193 14.2027 15.532L13.2184 14.4001C12 15.4597 10.4127 16.0999 8.67665 16.0999V17.5999ZM0.25 9.17494C0.25 13.8199 4.03105 17.5999 8.67665 17.5999V16.0999C4.85917 16.0999 1.75 12.9912 1.75 9.17494H0.25ZM8.67665 0.75C4.02681 0.75 0.25 4.53023 0.25 9.17494H1.75C1.75 5.35846 4.85543 2.25 8.67665 2.25V0.75ZM17.1033 9.17494C17.1033 4.52573 13.322 0.75 8.67665 0.75V2.25C12.4944 2.25 15.6033 5.35498 15.6033 9.17494H17.1033ZM15.0349 14.7C16.3224 13.2201 17.1033 11.2869 17.1033 9.17494H15.6033C15.6033 10.9105 14.963 12.4974 13.9032 13.7155L15.0349 14.7ZM2.82373 9.17546C2.82373 5.95022 5.44957 3.32812 8.67253 3.32812V1.82812C4.62205 1.82812 1.32373 5.12089 1.32373 9.17546H2.82373ZM8.67253 15.0268C5.45016 15.0268 2.82373 12.4013 2.82373 9.17546H1.32373C1.32373 13.2295 4.62145 16.5268 8.67253 16.5268V15.0268ZM14.5213 9.17546C14.5213 12.3979 11.8983 15.0268 8.67253 15.0268V16.5268C12.7282 16.5268 16.0213 13.2249 16.0213 9.17546H14.5213ZM8.67253 3.32812C11.8989 3.32812 14.5213 5.95362 14.5213 9.17546H16.0213C16.0213 5.12547 12.7276 1.82812 8.67253 1.82812V3.32812Z" fill="#3D2859"/>
</svg>
