<svg width="1440" height="293" fill="none" xmlns="http://www.w3.org/2000/svg"><path d="M1274.01 109.962c23.21 29.756 21.27 76.082 14.55 110.167l-4.46 19.918" stroke="#F4A698" stroke-width="2.7" stroke-linecap="round" stroke-linejoin="round"/><path d="M1274.22 111.266c-19.19-10.384-7.67-25.967-8.31-40.097 12.55 10.466 19.09 21.8 8.31 40.097Zm6.72 10.422c1.48-14.285 4.35-23.812 13.99-34.57 2.43 15.298-2.95 23.751-13.99 34.57Zm-1.02-1.236c-3.01-9.577-24.52-9.937-32.16-9.074 5.39 8.242 25.15 14.819 32.16 9.074Zm7.4 14.974c1.18-9.676 17.86-21.116 26.88-22.719-.6 17.508-16.28 23.427-26.88 22.719Zm-.86.087c-8.25-7.925-27.71-12.608-36.73-5.062 4.85 11.397 30.02 9.323 36.73 5.062Zm4.55 18.583c-.12-8.478-23.62-5.919-29.42-3.485 2.11 10.627 25.62 11.813 29.42 3.485Zm1.39 28.88c-2.25-9.248-22.02-11.857-30.09-9.608 7.21 7.788 20.07 16.036 30.09 9.608Zm.94-1.223c-.23-6.745 14-9.832 18.14-9.9 3.94-.069 7.73 1.341 11.69 1.198-2.73 4.422-8.27 9.894-12.88 11.67-3.41 1.311-6.87.621-10.51-.087-2.23-.447-4.13-3.366-6.44-2.881Zm-3.52 25.141c-.45-4.193-10.61-6.578-13.76-7.553-4.83-1.484-12.5-2.596-17.41-.826 2.16 6.795 15.8 10.36 21.84 11.012 2.06.217 4.05.311 5.86-.621 1.04-.509 1.98-1.602 3.47-2.012Zm1.74-1.504c1.86-5.881 12.75-7.813 17.52-8.695 5.76-1.068 12.89-1.31 18.7-.217-4.4 6.577-12.68 11.465-20.43 12.962-3.81.838-7.78.671-11.51-.485-1.44-.459-4-1.627-4.81-1.565m-4.44 22.44c-1.25-5.844-12.68-9.447-17.55-10.527-6.92-1.534-14.41-1.211-20.92 1.615 1.56-.125 2.65 1.372 3.84 2.298 5.15 3.999 9.7 7.192 16.2 8.589 1.37.311 18.71 1.851 18.43-1.975Zm.42.274c1.58-4.255 8.12-6.665 11.88-8.46 5.21-2.484 10.78-3.62 16.46-4.496 2.3-.354 5.16-.267 7.1-1.646-4.24 9.62-12.14 14.713-22.47 16.57-3.45.628-11.9 1.41-12.97-1.968Zm4.83-77.325c5.06-8.447 21.41-12.366 30.39-11.179-4.2 6.024-6.68 11.62-13.86 13.123-6.24 1.323-10.93-3.248-16.53-1.944Z" fill="#7DA567"/><path d="M1353.39 284.988c-5.68-18.508 8.16-51.171 14-67.903 5.33-15.247 9.89-30.768 15.62-45.872 4.97-13.161 10.94-26.334 18.23-38.371 1.96-3.242 6.29-10.428 11.62-16.148" stroke="#F4A698" stroke-width="2.26" stroke-linecap="round" stroke-linejoin="round"/><path d="M1413.2 116.75c-1.66-8.981 3.11-19.297 8.13-26.911 2.62 8.422-.71 21.682-8.13 26.911Zm-8.4 10.025c5.44-15.161 4.07-23.657-1.5-32.135-7.9 10.484-3.55 22.893 1.5 32.135Zm-8.93 14.179c-1.58-10.447-5.25-23.477-14.3-30.979-.16 5.068.69 14.353 2.78 19.967 1.69 4.59 7.59 8.888 11.52 11.012Zm-8.94 18.465c-1.87-23.564-8.78-20.496-13.19-30.371-2.05 5.484-.99 13.539 2.38 18.968 2.51 4.049 9.73 7.453 10.81 11.403Zm-7.93 20.042c5.84-16.906-6.31-19.31-11.76-27.371-2.96 16.21 7.29 18.651 11.76 27.371Zm26.77-52.158c3.89-4.348 6.49-8.273 15.04-9.317 4.43-.552 9.14 1.516 13.42.951-4.81 2.819-8.41 6.372-14.19 7.732-4.71 1.075-10.17-.031-14.27.634Zm-8.71 14.694c2.88-8.155 21.56-6.26 27.38-.472-3.27-.174-9 2.969-13.64 2.845-4.47-.125-9.01-2.634-13.74-2.373Zm-8.9 17.602c2.64-6.404 20.35-5.491 25.48-1.429-7.56 6.037-15.66 4.093-25.48 1.429Zm-7.91 19.563c6.96-5.502 14.36-9.763 25.49-5.068-8.61 13.099-16.43 7.342-25.49 5.068Z" fill="#9DBA8B"/><path d="M1418.1 184.938c3.57 8.143-3.86 18.546-8.78 24.179-7.26 8.329-18.02 12.987-26.84 19.62-9.22 6.919-16.59 17.036-21.76 27.147-3.11 6.124-10.21 22.359-7.33 29.241" stroke="#F4A698" stroke-width="2.26" stroke-linecap="round" stroke-linejoin="round"/><path d="M1418.19 183.87c-3.85-6.335-2.55-10.881-2.2-17.017 4.41 5.08 8.53 12.309 2.2 17.017Zm-2.12 13.093c.79-4.603-.75-12.571-6.64-17.54-2.59 8.795-.23 15.242 6.64 17.54Zm-8.35 11.843c-.18-5.987-2.16-11.993-6.78-16.564-.93 4.497-1.57 7.826 1.16 12.465 1.24 2.149 3.55 3.938 4.77 5.633m2.13 1.237c3.64-3.149 10.7-6.018 18.39-4.814-1.19 1.864-4.28 5.776-6.64 6.416-5.96 1.615-5.95.69-11.75-1.602Zm9.89-15.037c3.3-3.211 9.5-6.422 15.93-5.85-1.15 1.863-4.05 5.732-6.09 6.502-5.17 1.95-5.1 1.081-9.84-.652ZM1397 217.731c1.97-4.714 2.26-11.278-2.67-15.937-3.01 3.106-3.73 5.944-2.86 9.05.78 2.838 1 4.273 5.53 6.887Zm1.78 2.367c6.1.062 11.24 2.888 12.79 11.986-6.49-.031-10.23-6.85-12.79-11.986Zm-13.19 5.291c3.26-10.75-.73-12.986-2.64-17.756-1.43 3.037-4.15 5.981-3.26 9.639.81 3.285 2.2 5.807 5.9 8.117Zm1.2 2.87c6.91-2.696 9.27 11.943 7.83 15.663-3.43-4.471-8.25-5.273-7.83-15.663Zm-10.01 1.956c1.86-3.453.23-12.707-4.27-14.781-2.2 1.944.76 10.962 2.06 13.272.88 1.547 2.49 1.975 2.71 3.795m-.83 4.006c4.35 3.571 9.15 9.086 3.76 17.465a19.908 19.908 0 0 1-5.02-8.503c-.84-2.931-.73-4.782 1.26-8.962Zm-1.53-43.32c-1.28-10.813-7.41-17.813-16.47-23.154-.68 5.006-2.58 9.856 4.4 16.527 6.29 6.005 8.77 5.161 12.07 6.627Zm.69.54c6.68-8.161 15.27-8.391 22.42-6.037-5.6 11.161-16.14 7.459-22.42 6.037Zm-5.44 15.464c.89-7.782-12.29-19.632-19.27-21.601-.18 5.205 5.13 15.173 9.47 17.863 3.29 2.055 6.5 4.099 9.8 3.738Zm-4.41 10.702c-3.25-3.031-5.75-7.453-9.9-10.118-4.15-2.664-6.69-5.67-16.02-6.919 3.07 4.882 7.61 12.422 12.74 14.739 4.09 1.863 8.78 2.099 13.18 2.298Z" fill="#9DBA8B"/><path d="M1344.3 83.113c7.89 29.153-6.96 62.058-21.65 84.541-10.36 15.844-21.76 30.874-32.46 46.525-6.05 8.881-14.29 20.278-18.2 30.433" stroke="#F4A698" stroke-width="2.11" stroke-linecap="round" stroke-linejoin="round"/><path d="M1344.06 84.15c-10.66-13.807 2.09-21.31 5.74-31.756 5.9 11.689 7.27 22.036-5.74 31.756Zm1.76 9.751c5.22-9.863 10.03-15.819 20.02-20.446-2.71 11.869-9.02 16.229-20.02 20.446Zm-.36-1.231c.62-7.918-14.59-15.216-20.29-17.104 1.44 7.733 13.63 18.962 20.29 17.105Zm.93 13.249c3.65-6.621 18.86-9.422 25.76-7.64-5.52 12.49-18.43 11.646-25.76 7.64Zm-.66-.199c-3.57-8.44-16.08-18.204-24.7-15.695.15 9.838 18.71 16.577 24.7 15.695Zm-2.15 14.943c2.38-6.173-15.13-12.024-19.96-12.161-1.6 8.391 14.85 16.987 19.96 12.161Zm-7.4 21.371c1.08-7.453-12.25-15.8-18.65-16.812 2.87 7.999 9.64 18.179 18.65 16.812Zm-52.55 81.349c1.48-10.328-16.93-21.942-25.79-23.352 3.97 11.111 13.33 25.253 25.79 23.352Zm53.58-81.926c1.79-4.969 12.83-2.534 15.8-1.242 2.83 1.242 5.12 3.509 7.99 4.701-3.23 2.305-8.78 4.454-12.57 4.23-2.82-.168-5.09-1.789-7.46-3.509-1.48-1.037-1.98-3.776-3.76-4.18Zm-52.53 82.907c1.46-6.105 15.95-1.012 19.96 1.205 3.83 2.106 7.12 5.435 10.99 7.491-3.73 2.409-10.47 4.204-15.35 3.242-3.62-.715-6.79-3.205-10.12-5.857-2.04-1.615-3.14-5.242-5.48-6.081Zm42.71-65.852c.89-3.186-5.65-8.242-7.62-9.981-3.01-2.652-8.15-5.975-12.17-6.304-.45 5.627 8.24 12.676 12.36 15.123 1.4.833 2.79 1.553 4.36 1.491.9-.037 1.88-.528 3.07-.329Zm-33.62 48.959c1.19-3.894-7.13-9.993-9.63-12.092-3.82-3.211-10.37-7.205-15.54-7.565-.62 6.875 10.4 15.384 15.65 18.328 1.78 1 3.55 1.863 5.55 1.764 1.19-.05 2.45-.665 3.97-.435Zm35.29-49.481c3.03-3.658 11.35-1.484 15.02-.565a42.98 42.98 0 0 1 13.4 5.968c-5.06 3.323-12.39 4.149-18.34 2.696-3-.66-5.78-2.081-8.08-4.124-.89-.801-2.37-2.484-2.97-2.708m-9.69 14.806c.83-4.633-6.29-10.999-9.45-13.371-4.48-3.373-9.94-5.59-15.37-5.683 1.14.422 1.48 1.863 2.06 2.919 2.49 4.583 4.83 8.384 9.05 11.533.9.665 12.81 7.459 13.71 4.602Zm-12.9 18.316c.83-4.627-6.3-10.993-9.45-13.372-4.48-3.372-9.94-5.589-15.37-5.676 1.15.422 1.48 1.863 2.06 2.919 2.49 4.583 4.82 8.384 9.05 11.527.9.671 12.82 7.459 13.71 4.602Zm13.14-17.98c2.36-2.565 7.72-2.168 10.92-2.236 4.44-.093 8.73.9 13.05 2.13 1.75.503 3.76 1.497 5.55 1.137-5.83 5.589-12.94 6.676-20.84 4.639-2.66-.683-8.9-2.875-8.68-5.67Zm-12.9 18.316c2.37-2.566 7.72-2.168 10.92-2.236 4.44-.093 8.74.906 13.06 2.136 1.74.497 3.76 1.497 5.54 1.137-5.82 5.589-12.93 6.676-20.83 4.639-2.68-.689-8.91-2.882-8.69-5.676Zm-9.71 15.502c2.36-2.565 7.72-2.162 10.92-2.23 4.44-.093 8.74.901 13.05 2.13 1.75.497 3.76 1.497 5.55 1.137-5.83 5.59-12.94 6.676-20.84 4.639-2.67-.683-8.9-2.875-8.68-5.676Zm48.52-88.231c6.06-4.459 18.86-1.944 24.92 1.863-4.75 2.988-8.14 6.211-13.68 4.969-4.86-1.1-6.86-5.944-11.24-6.832Z" fill="#9DBA8B"/><path d="M1369.07 125.644s-86.74 22.936-98.71 87.616a138.927 138.927 0 0 0-3.39 30.619c-.06 17.756.8 45.599 32.1 45.078 12.44-.212 24.56-6.534 27.97-16.148 2.49-7.006-2.71-14.111-5.36-20.776-6.78-17.085-15.39-38.345-9.44-56.232 7.77-23.365 28.11-46.761 56.83-70.157Z" fill="#7E6E91"/><path d="M1420.35 127.793c-5.22 13.701-16.39 25.123-32.76 33.687-18.62 9.136-37.23 14.844-53.62 25.694a81.778 81.778 0 0 0-23.07 22.266c-2.99 3.993-4.47 8.565-6.71 13.13-9.61 19.663-.98 66.213 35.16 67.343 21.29.671 14.34-19.409 8.83-28.433-9.74-15.912-9.79-37.966 8.13-50.897 12.66-9.136 28.3-13.136 40.95-22.266 20.86-15.993 29.04-38.83 23.09-60.524Z" fill="#5C4973"/><path d="M1341.48 273.038a20.096 20.096 0 0 0 7.61 10.31c5.5 3.87 17.41 6.652 23.71 1.559 4.85-3.925 2.57-8.459 2.57-13.092a51.17 51.17 0 0 1 1.98-15.117c4.09-13.359 15.62-24.974 29.49-33.253 13.86-8.279 29.97-13.545 46.16-17.812a122.234 122.234 0 0 0-56.56 5.906c-17.91 6.366-33.72 16.987-44.87 30.129-5.44 6.428-9.86 13.62-10.95 21.216-.49 3.406-.2 6.879.86 10.154Z" fill="#7E6E91"/><path d="M1192.88 124.383c35 7.994 68.51 23.986 86.4 49.687a125.14 125.14 0 0 1 7.46 13.707c8.34 19.185 3.77 40.445-.24 59.915-2.02 9.801-.88 24.626-7.95 33.154-5.22 6.279-14.15 8.558-23.83 7.452-12.66-1.496-23.84-8.968-27.34-18.421-3.65-9.9 2.65-19.471 7.19-28.569 5.6-11.211 12.19-22.136 17.15-33.539 7.45-17.129-5.21-33.115-17.13-47.959-11.18-13.726-25.33-25.148-41.71-35.427Z" fill="#5C4973"/><path d="M1337.36 144.45c-11.36 10.397-28.75 30.309-34.9 43.028-12.9 26.707-11.09 62.282.8 89.088m107.68-117.893s-11.96 18.807-41.87 29.359c-29.91 10.552-47.86 27.986-45.46 45.873 2.4 17.887 12.56 44.04 12.56 44.04m80.18-64.635c-36.85 7.738-63.9 34.78-55.09 64.641M1226.09 140.78c16.1 11.322 33.38 23.557 41.59 39.476 8.22 15.918 3.73 35.898-4.5 51.357-7.16 13.434-13.98 26.47-11.7 41.314" stroke="#A499B3" stroke-width="2.31" stroke-linecap="round" stroke-linejoin="round"/><path d="M729.309 275.287c-.366-1.391-28.822-77.703-21.755-95.894 7.068-18.192 23.62-6.211 23.937.621.317 6.831-5.538 12.831-9.51 10.906-3.972-1.926-5.432-7.453-2.213-10.298 0 0-8.08 5.087-4.879 9.689 3.201 4.602 10.014 11.72 18.84 1.981 8.826-9.738.621-23.917-3.792-25.725-4.413-1.807-15.539-6.31-23.203 2.137-7.664 8.446-9.442 26.228-7.863 32.246 1.579 6.018 20.854 71.878 12.127 80.119" fill="#FAD1D6"/><path d="M765.603 281.597c-5.949-20.924-6.837-41.513-3.655-66.704-9.771 20.539-7.409 45.792-13.233 67.698 0 0 5.78 2.546 10.821 1.938 5.041-.609 6.067-2.932 6.067-2.932Z" fill="#FFCE44"/><path d="M819.928 284.342c-2.815-8.254-2.213-19.974-2.523-28.942-.572-16.428-.46-32.557.118-49.065.889-25.552 6.054-49.867 10.38-74.822-4.755 6.149-7.558 17.657-9.728 25.197-3.008 10.453-4.829 21.564-6.582 32.34-2.374 14.514-8.59 78.045-8.64 92.783 0 0 3.344 4.316 8.584 3.726 5.24-.59 8.391-1.217 8.391-1.217Z" fill="#FAD1D6"/><path d="M787.663 282.895c7.844-8.254 7.496-28.036 9.472-39.128 2.574-14.453 6.434-29.253 7.217-43.854 1.473-27.253-4.171-57.885-10.747-79.058 12.655 18.148 16.782 56.978 17.814 79.499 1.349 28.905-13.675 53.735-10.604 81.982a10.57 10.57 0 0 1-6.216 2.782c-3.617.224-6.936-2.223-6.936-2.223Z" fill="#FFCE44"/><path d="M737.334 284.764c0-20.818 5.544-41.363 4.705-61.94.305 19.763-18.025 40.047-16.465 60.922 0 0 .851 2.304 4.282 2.708 3.431.403 7.478-1.69 7.478-1.69Z" fill="#DBA4AF"/><path d="M834.734 283.827c-2.554-7.484-.621-20.962.79-29.098 1.728-9.993 3.605-19.539 10.374-27.75-1.131 8.168-2.822 16.105-3.537 24.39-.945 11.087 1.915 22.781.783 33.539 0 .006-6.383 4.856-8.41-1.081Z" fill="#5B9146"/><path d="M850.51 284.671c2.959-4.409 1.772-11.993.833-16.558-1.156-5.59-.852-11.869-7.111-16.179.665 4.596.622 10.503.858 15.192.323 6.266-3.512 12.552-2.99 18.632 0 0 6.067 2.41 8.41-1.087Z" fill="#3C642F"/><path d="M822.825 283.939c-6.215-13.732 7.26-79.654 10.057-94.23 2.978-15.527 9.063-30.179 17.019-43.998-1.523 14.559-6.365 29.52-8.982 44.041-1.56 8.745-7.359 85.479-5.053 94.187.025 0-10.219 6.254-13.041 0Z" fill="#FFCE44"/><path d="M805.185 284.286c5.955-7.403 10.933-18.011 15.831-46.68 2.412-14.13 3.593-29.191-1.137-43.333 21.27 29.191.093 60.152 4.575 89.821 0 0-4.861 7.8-19.269.192Zm-36.909-2.763c-.547-16.459 2.182-78.772-.864-94.671.317 10.272-1.535 22.582-3.04 32.507-1.579 10.397-3.592 52.052-5.097 62.468 0 0 .665 3.105 4.494 3.316 3.829.212 4.507-3.62 4.507-3.62Z" fill="#DBA4AF"/><path d="M783.691 282.386c-10.175-29.619-4.053-52.935-.411-83.976 3.55-30.216-3.953-58.382-5.842-88.64-5.495 20.737-.759 55.518-1.592 76.964-.484 12.458-9.404 85.087-6.694 96.316a8.804 8.804 0 0 0 6.912 3.106c4.637-.006 7.627-3.77 7.627-3.77Z" fill="#FFCE44"/><path d="M794.873 284.162c-3.008-21.918 5.656-111.173-2.356-131.749 1.821 13.663-1.647 30.488-2.443 44.239-3.17 55.133-11.405 73.741-13.264 88.044 0 0 3.058 2.335 9.106 2.335s8.957-2.869 8.957-2.869Z" fill="#DBA4AF"/><path d="M745.893 283.765c6.054-29.029-7.683-61.096 11.356-88.492-4.892 13.664-6.427 28.328-6.564 42.526-.093 9.893 2.151 19.874 2.984 29.843.329 3.925 2.716 14.284 7.154 17.632a24.06 24.06 0 0 1-7.937 1.478 10.298 10.298 0 0 1-6.993-2.987Zm25.056-41.364 2.76 19.843c.919 6.155 1.69 12.322 2.163 18.508.155 2.075.267 4.13.354 6.211 1.622 0 3.251.068 4.873.137a537.789 537.789 0 0 0-.696-14.981 221.799 221.799 0 0 0-.336-4.913l-1.119-15.731c-2.219-15.496-6.377-34.234-8.838-49.736-2.393-15.105-3.73-29.359-.05-45.432-11.941 17.88-6.216 37.382-4.27 55.673 1 9.441 3.518 21.005 5.159 30.421Z" fill="#FAD1D6"/><path d="M672.678 135.917c7.521 6.546 19.586-.037 17.646-6.764-14.849 15.838-25.664-16.148-3.729-15.21 13.83.621 6.116 30.247 4.643 38.911-4.146 24.389-6.713 47.065-4.351 71.803 2.082 21.613 12.568 41.382 23.508 61.306l13.14-1.031c-6.483-12.564-12.935-25.141-18.498-38.122-11.81-27.526-12.382-56.518-8.081-85.826 2.07-14.006 17.013-65.53-21.002-50.668-10.673 4.205-12.102 17.918-3.276 25.601Z" fill="#DBA4AF"/><path d="M851.336 135.426c-7.521 6.546-19.585-.044-17.646-6.77 14.849 15.838 25.665-16.148 3.729-15.21-13.83.621-6.116 30.247-4.643 38.911 4.146 24.389 6.707 47.065 4.351 71.802-2.082 21.614-12.568 41.383-23.508 61.307l-13.146-1.031c6.483-12.564 12.941-25.141 18.498-38.122 11.81-27.526 12.388-56.518 8.081-85.827-2.07-13.999-17.013-65.53 20.996-50.661 10.685 4.199 12.14 17.918 3.288 25.601Zm-78.79-82.324c-40.185-14.602-48.483 35.793-35.162 63.611 9.292 19.359 12.642 37.668 7.166 59.406l-2.554 7.496c-5.277 15.03-8.186 23.906-12.314 36.644a253.96 253.96 0 0 0-11.809 66.586l9.69-.721c2.38-26.259 8.31-53.891 8.31-53.891 3.152-9.316 7.932-24.607 11.99-33.612l3.972-8.739c3.618-12.241 4.855-21.775 4.836-30.774 0-9.267-2.872-19.713-5.837-28.464-6.066-17.931-21.661-45.153-7.869-63.779 17.554-23.706 50.292 2.112 33.963 20.11-15.129 16.683-30.165-10.017-12.313-8.167-22.103-4.347-7.229 29.955 14.706 13.043 17.572-13.564 6.483-33.93-6.775-38.749Z" fill="#FFCE44"/><path d="M566.358 248.133c-.522 1.652-.901 3.969-1.243 5.112-.758 2.751-2.014 5.08-1.995 7.98 0 1.864.242 2.864-1.119 3.839a6.184 6.184 0 0 1-3.58 1.049c-1.617-.068-2.282-.329-2.22-1.9.063-1.572.883-3.547 1.194-5.056.783-3.726 1.865-7.409 2.859-11.142.659-2.484-.273-3.658-2.343-5.136-1.287 1.552-.69 5.962-.69 7.9 0 1.571.789 5.49.273 7.652-.621 2.596-.845 3.447-1.243 5.316-.323 1.509-2.443 1.975-3.878 1.863-.585-.049-1.977-.205-2.219-.944-.392-1.174.727-1.577 1.063-2.379.826-1.987.472-6.62.335-8.769-.255-4.118-.199-7.186-1.243-11.18-1.206-4.676-4.432-6.831-5.768-10.949-1.15-3.528-1.075-7.155-1.206-10.826-.143-3.906.839-8.03.528-11.831-.192-2.304-.988-4.714-.354-7.062 0 0 3.437-3.279 7.621-4.217l9.025-2.018c.87 2.484.124 4.478 3.108 6.409 3.872 2.484 8.08 3.994 11.188 7.521 2.753 3.075 4.562 6.832 7.577 9.702 3.232 3.105 7.08 5.496 10.163 8.807 5.053 5.415 7.62 13.595 8.956 20.688.728 3.832 1.492 7.931 1.057 11.85-.454 4.043-1.964 6.211-6.06 6.695-3.953.453-7.882-.497-11.81-.317-3.065.149-8.373 1.485-11.077.578.249-2.354 3.767-2.925 5.135-2.901.379-.021.758-.021 1.137 0-1.125-2.751-2.604-4.347-6.06-7.918-2.051 1.701-1.455 7.527-.622 10.117-1.411-.037-7.521 1.174-8.969-.23 1.771-3.043 4.09-2.024 5.277-2.484.112-.677-.653-1.925-1.243-3.136-.901-1.864-3.201-4.758-3.108-6.671" fill="#CA9070"/><path d="M548.065 183.87a8.608 8.608 0 0 0-3.947 1.423c-1.013.919-.69 1.968-1.243 3.248-1.112 2.764-4.45 4.124-4.034 7.596a7.66 7.66 0 0 0 2.035 4.067 7.674 7.674 0 0 0 3.982 2.199c3.729.572 5.638-1.59 8.702-2.906 2.778-1.193 6.558-2.292 7.247-5.764.293-1.478-.167-3.223-.478-4.621-.572-2.559-.578-3.726.858-6.242 1-1.757 2.548-3.012 3.561-4.813a16.587 16.587 0 0 0 1.865-5.379c.398-2.359.591-4.749.578-7.142 0-1.137.317-4-.236-4.969-.926-1.614-3.17-.795-4.413-.13-2.866 1.528-4.351 4.348-5.42 7.279a50.582 50.582 0 0 0-1.989 7.832c-.386 2.043-.15 3.913-.417 5.869a4.016 4.016 0 0 1-1.865.18c1.175-6.745-4.139-11.633-8.347-16.086-1.088-1.149-5.147-6.484-6.906-3.298-.622 1.143.423 4.037.709 5.199a48.49 48.49 0 0 0 2.119 7.179 21.107 21.107 0 0 0 4.109 6.36c1.069.957 2.679 1.609 3.53 2.919Z" fill="#BB7752"/><path d="M554.48 186.261c-2.803-2-3.73 1.354-3.959 3.441 2.231-.217 4.512-.708 4.133-3.608m-8.161 13.806a.397.397 0 0 0-.253-.17.39.39 0 0 0-.3.059 3.18 3.18 0 0 1-1.989.254c-.79-.987-1.567-2.521-1.442-3.043a6.752 6.752 0 0 0 2.25-1.522l.255-.329-.336-.242a3.855 3.855 0 0 0-2.343-.621c-.864.043-1.865.099-2.338.671-.116.14-.202.303-.253.478-.05.176-.063.359-.039.54-.006.294.085.582.258.819.172.238.418.413.7.498.149.043.304.064.46.062.209.001.418-.024.621-.074a6.37 6.37 0 0 0 1.131 2.608l-.969-.205-.485-.105a.39.39 0 0 0-.473.304.414.414 0 0 0 .052.303.394.394 0 0 0 .253.175l.479.106c.957.249 1.939.397 2.927.441a3.168 3.168 0 0 0 1.753-.435.387.387 0 0 0 .166-.268.397.397 0 0 0-.085-.304Z" fill="#9A5129"/><path d="M549.109 223.682c.529 5.589 5.427 8.695 8.777 12.421 1.336 1.491 2.58 3.335 2.921 5.298.137.764.759 2.888-.205 7.298m12.773-14.105c.392 2.832-2.38 5.055-3.884 7.155-1.244 1.695-4.88 11.452-5.439 13.309m14.178-12.844c-3.617 3.205-.659 9.484 1.02 12.857 1.479 2.975 3.928 5.788 4.879 8.9-1.722.161-2.43.453-4.525.509" stroke="#9A5129" stroke-width="2" stroke-linecap="round" stroke-linejoin="round"/><path d="M566.719 248.611s2.977 5.522 6.837 7.95" stroke="#9A5129" stroke-width="2" stroke-linecap="round" stroke-linejoin="round"/><path d="M94.771 279.697c.466-19.018 4.973-36.023-1.703-55.078-3.288-9.421-11.344-24.805-21.196-32.65-5.432-4.347-12.972 1.814-9.702 7.925 1.815 3.398 4.773 6.596 7.359 9.938 6.837 8.813 13.73 16.769 18.082 27.147 4.817 11.527 9.323 30.091 3.511 42.854" fill="#F6BAC8"/><path d="M99.706 280.038c1.803-19.843 6.894-44.929 4.675-64.921-1.051-9.447-4.557-31.247-13.961-39.942-3.829-3.559-10.175-1.049-10.616 4.155-1.244 14.813 14.296 32.793 16.558 45.774 3.158 17.974 2.275 37.469-1.622 55.201" fill="#F6BAC8"/><path d="M99.924 280.374c.907-19.13 8.192-30.601 15.216-48.103 5.669-14.123 21.04-46.246 7.297-59.81-12.91-12.738-11.499 15.657-10.728 22.638 1.374 12.341.883 23.856-2.486 35.843-4.351 15.726-11.226 32.147-14.296 48.152" fill="#F6BAC8"/><path d="M99.924 280.373c1.082-16.582 9.815-24.445 21.494-36.525 4.649-4.814 52.417-41.65 32.396-48.364-8.416-2.826-11.461 13.006-14.227 18.453-4.65 9.167-11.636 16.371-18.188 24.284-6.06 7.322-11.971 14.073-16.596 22.315-3.337 5.931-3.947.199-7.974 19.645" fill="#F6BAC8"/><path d="M109.776 279.827c1.081-12.577 7.235-26.626 15.322-35.985 5.507-6.379 19.268-12.534 15.197 1.453-2.673 9.186-26.628 25.818-23.446 34.463" fill="#F6BAC8"/><path d="M133.408 279.839c-2.71-9.229 5.557-43.811 17.82-39.426 12.749 4.553-16.123 27.576-10.983 39.65m-49.253-.118c-2.15-5.875-23.875-25.75-15.757-32.774 10.163-8.795 16.46 24.638 17.671 29.979" fill="#F6BAC8"/><path d="M988.151 283.615s16.969-38.829 12.039-79.305c0 0 8.21 40.991-2.187 79.305h-9.852Z" fill="#5B9146"/><path d="M994.292 283.485s-12.214-44.829-4.003-85.852c0 0 5.097 72.182 11.671 85.852h-7.668Z" fill="#3C642F"/><path d="M987.61 283.615c-.765-2.484-13.905-27.83-4.929-47.034 0 0 4.351 36.097 18.059 47.034h-13.13Z" fill="#3C642F"/><path d="M1014 283.491c.76-2.484 2.35-18.539-4.26-41.668 0 0 3.18 28.88-5.39 41.731l9.65-.063Z" fill="#5B9146"/><path d="M975.564 283.616s-7.117-28.44-2.741-68.369c0 0 2.188 48.68 10.399 68.369h-7.658Z" fill="#3C642F"/><path d="M978.479 283.659c4.929-10.626 8.845-33.147 8.845-33.147l1.554 33.147h-10.399Z" fill="#7DA567"/><path d="M995.38 283.659c7.99-6.466 11.67-24.458 11.67-24.458l-1.25 24.458h-10.42Z" fill="#5B9146"/><path d="M948.19 283.615s18.287-47.574 13.376-88.062c0 0 6.875 49.779-3.524 88.062h-9.852Z" fill="#3C642F"/><path d="M954.331 283.485s-9.323-17.794-1.094-58.816c0 0 2.188 45.146 8.758 58.816h-7.664Z" fill="#7DA567"/><path d="M947.643 283.616c-.764-2.485-10.877-43.066-1.864-62.276 0 0 1.348 51.338 15.029 62.276h-13.165Zm26.392-.125c.764-2.484 2.356-18.539-4.258-41.668 0 0 3.183 28.88-5.389 41.731l9.647-.063Z" fill="#5B9146"/><path d="M935.603 283.615s-5.06-10.285-.678-50.214c0 0 .125 30.526 8.336 50.214h-7.658Z" fill="#3C642F"/><path d="M938.506 283.659c4.929-10.626 8.845-33.147 8.845-33.147l1.554 33.147h-10.399Zm16.913 0c7.993-6.466 11.667-24.458 11.667-24.458l-1.243 24.458h-10.424Z" fill="#5B9146"/><path d="M669.893 284.206c2.306-3.069 7.931-.833 10.231-4.764 4.09-6.975-1.622-9.683-2.977-15.931-2.319-10.738 10.181-7.726 11.406-14.906 1.05-6.21-4.277-9.887-7.099-14.57-3.667-6.087-.087-7.54 2.027-13.279 2.691-7.291-1.349-10.695-5.731-15.527-7.658-8.397 5.364-18.57-6.098-25.464-4.972-2.987-12.723.056-16.161-5.397-1.864-3-.491-6.931-2.299-9.993-7.093-12-16.509-.907-25.696-4.124-4.494-1.578-4.009-6.286-7.795-8.758-3.033-1.981-6.899-1.329-10.125.112-3.904 1.745-3.382 2.783-4.973 6.211-3.108 6.646-5.233 5.82-12.189 4.087-5.395-1.348-10.765-.621-15.172 3.155-4.631 3.968-2.524 7.614-2.3 12.85.323 7.372-1.243 8.124-7.683 10.061-9.323 2.814-18.287 9.484-19.2 19.738-.566 6.304 1.939 9.596 5.215 14.447 0 0 9.765 11.688 3.586 16.874-6.178 5.186-19.772 10.13-18.286 18.527 1.485 8.397 11.611 12.838 9.143 16.769-2.468 3.932-8.155 6.913-3.73 9.627 4.426 2.714 125.906.255 125.906.255Z" fill="#7DA567"/><path d="M575.874 276.318c-.584-2.242 4.836 1.043 6.085-1.155 1.405-2.485 1.38-1.149.914-3.478-.304-1.522-1.386-.932-1.193-2.659.13-1.161 2.405-2.031 2.635-3.571.23-1.54-1.473-5.186-2.399-6.353-.926-1.168-4.27-2.081-4.295-3.727-.037-1.863 4.189-2.987 4.817-4.938 2.2-6.831-6.154-7.62-8.186-11.39-2.232-4.143 3.245-7.652 1.032-12.422-3.034-6.515-6.583-1.664-11.083-1.118-6.676.82-4.351-4.813-8.08-8.074-5.041-4.465-7.82.062-11.897 2.845-12.053 8.223-1.529-15.341-13.153-11.534-3.965 1.298-5.302 6.168-7.564 9.211-4.712 6.316-4.351.342-9.448-1.459-4.855-1.708-6.539 1.403-6.409 5.186.206 5.651 2.313 8.819-4.438 10.477-4.425 1.087-9.236-.664-11.753 5.043-1.772 4.019 1.299 6.751.975 10.378-.466 5.23-3.555 2.249-6.054 5.317-2.747 3.372 1.61 6.832 1.33 9.738-.416 4.28-5.227 2.652-8.03 5.168-3.985 3.571-1.343 7.453 2.355 10.558 0 0 13.259 7.056 32.061 6.596 18.803-.46 43.1.46 51.354 0 8.255-.46 5.98-4.403 5.98-4.403s6.154 2.26 4.444-4.236Z" fill="#9DBA8B"/><path d="M504.182 268.337c-3.605-1.043-5.271-7.925-3.549-11.024 2.698-4.851 5.52-1.273 9.261-.329.485-3.149 3.885-10.372 8.342-5.59 2.592 2.764-.964 5.962-.802 8.888 4.488-.938 8.845 1.465 6.452 6.583-2.486.491-8.397 1.279-7.459 4.317m15.08-28.309c-2.766-3.05-8.733-5.652-4.973-10.559 2.617-3.44 5.594-1.919 7.714 1.187 1.081-4.161 7.129-7.764 9.895-3.236 2.095 3.441-1.28 7.732-2.25 10.732m6.576 32.483c-7.956-2.572-9-14.708.454-9.18-3.189-6.875-.398-14.409 6.048-7.322.255-7.23 11.624-6.522 7.67 2.31 10.07-1.161 6.179 9.316.908 11.838" stroke="#BEDEC2" stroke-width="3" stroke-linecap="round" stroke-linejoin="round"/><path d="M555.238 235.333c-2.486 2.323 1.635 5.049 2.754 2.379 1.119-2.671-1.573-3.982-2.754-2.379Zm105.369-49.637c-2.486 2.323 1.635 5.05 2.747 2.379 1.113-2.671-1.566-3.981-2.747-2.379Zm-66.832 47.19c-2.486 2.322 1.635 5.049 2.754 2.378 1.119-2.67-1.573-3.981-2.754-2.378Zm-31.184-34.731c-2.486 2.323 1.635 5.05 2.748 2.379 1.112-2.671-1.567-3.975-2.748-2.379Zm-53.685 64.778c-2.486 2.323 1.635 5.05 2.748 2.379 1.112-2.67-1.567-3.981-2.748-2.379Zm-6.501-24.588c-2.213 1.813 1.541 4.347 2.685 2.677 1.833-2.659-1.144-3.926-2.418-2.845l-.267.168Zm55.91 24.93c-2.206 1.814 1.542 4.348 2.691 2.677 1.834-2.658-1.149-3.925-2.424-2.845l-.267.168Zm108.042-41.848c-2.207 1.813 1.541 4.347 2.691 2.677 1.827-2.658-1.15-3.925-2.424-2.845l-.267.168Zm-49.677-27.153c-2.206 1.813 1.542 4.347 2.692 2.676 1.827-2.658-1.15-3.925-2.424-2.844l-.268.168Zm22.054 53.642c-2.207 1.813 1.542 4.347 2.692 2.677 1.827-2.659-1.15-3.926-2.425-2.845l-.267.168Z" fill="#C31A36"/><path d="M614.393 276.318c-2.983.186-6.8-3.553-6.11-7.254 1.088-5.87 8.167-1.783 9.516-7.652.926-4.043-3.679-6.024-1.74-10.266 2.884-6.329 10.281-1.243 13.42-5.267 3.138-4.025-2.922-10.559 1.827-15.117 6.253-6.031 7.807 1.497 11.188 4.124 4.668 3.633 10.213-3.23 15.714 1.776 7.21 6.559-1.759 6.931-1.865 12.422-.093 5.192 7.937 6.353 8.528 12.017.217 2.087-3.81 16.919 1.361 15.77" stroke="#BEDEC2" stroke-width="3" stroke-linecap="round" stroke-linejoin="round"/><path d="M639.399 257.002c-.223-5.546-13.109 1.441-3.369 4.851-3.381.938-4.836 4.969-2.579 7.546 1.715 1.956 4.742.826 6.421 2.671m14.575-55.549c2.791-9.838-11.287-16.198-12.332-5.981-3.356-1.361-11.611-4.317-14.246.093-2.319 3.869 4.301 7.745-.746 10.595m-45.673 0c-7.559-5.155 4.463-16.682 7.079-8.142.038-3.727 1.244-10.304 5.539-11.18 4.45-.894 8.242 3.777 5.923 7.571 7.503-1.18 9.946 6.342 5.184 10.36 7.745-2.105 4.55 7.937 5.955 10.794m-13.662-48.475c-.479-3.105.665-6.335 3.636-7.776 4.494-2.18 6.787 1.509 9.746 4.627 2.25-3.304 4.842-6.589 9.367-6.763 3.692-.143 7.826 5.006 10.231 3.788" stroke="#BEDEC2" stroke-width="3" stroke-linecap="round" stroke-linejoin="round"/><path d="M985.652 162.754c8.895-8.758 16.438-7.099 21.858-4.795a44.905 44.905 0 0 1 14.06 9.838c.35-3.286-.74-6.329-.46-9.54-5.06 1.696-9.19 6.882-14.91 8.515-6.227 1.764-15.805.615-20.548-4.018Z" fill="#00687F"/><path d="M930.425 147.941c6.763-6.658 12.5-5.397 16.615-3.646a34.05 34.05 0 0 1 10.691 7.484c.261-2.484-.559-4.813-.348-7.254-3.841 1.285-6.987 5.229-11.338 6.471-4.742 1.354-12.021.485-15.62-3.055Z" fill="#87CEDA"/><path d="M939.886 108.142c11.082-8.366 17.559 5.087 28.741 5.006-.826-2.379-.391-7.981-.391-7.981a31.654 31.654 0 0 0-4.78 3.286c-2.487 2.254-6.782 4.701-10.337 5.005-5.29.466-10.212-1.068-13.233-5.316Zm-70.773 15.751c18.237-13.77 28.903 8.378 47.308 8.248-1.361-3.919-.621-13.142-.621-13.142s-5.041 2.825-7.863 5.409c-4.053 3.727-11.189 7.739-17.013 8.242-8.789.764-16.838-1.764-21.811-8.757Z" fill="#00687F"/><path d="M902.219 74.064c18.237-13.77 28.903 8.378 47.308 8.241-1.362-3.919-.622-13.135-.622-13.135s-5.041 2.826-7.863 5.41c-4.053 3.726-11.188 7.732-17.012 8.24-8.789.759-16.839-1.763-21.811-8.756Zm98.141 49.065c12.82-13.509 28.39-1.062 34.25 4.478-.08-3.174 3.19-6.391.99-10.13-12.09 7.341-21.92 14.67-35.24 5.652Z" fill="#87CEDA"/><path d="M891.049 58.102a2.156 2.156 0 1 0 .001-4.313 2.156 2.156 0 0 0-.001 4.313Zm11.126-32.551a1.733 1.733 0 1 0 .002-3.466 1.733 1.733 0 0 0-.002 3.466Zm-9.517 24.141a1.298 1.298 0 1 0 .002-2.596 1.298 1.298 0 0 0-.002 2.596Zm-1.827-23.309a1.298 1.298 0 1 0 .002-2.596 1.298 1.298 0 0 0-.002 2.596Zm2.947 42.432a1.299 1.299 0 1 0 0-2.597 1.299 1.299 0 0 0 0 2.597Zm4.668-29.861a.926.926 0 1 0 0-1.852.926.926 0 0 0 0 1.852Zm-.895 20.241a.926.926 0 1 0 0-1.852.926.926 0 0 0 0 1.852Zm15.11-43.587a.925.925 0 1 0 .001-1.85.925.925 0 0 0-.001 1.85Zm93.389 78.063a1.21 1.21 0 1 0 0-2.422c-.67 0-1.22.542-1.22 1.211s.55 1.211 1.22 1.211Zm-.36-13.421c.95 0 1.73-.776 1.73-1.733a1.735 1.735 0 0 0-3.47 0c0 .957.78 1.733 1.74 1.733Zm-9.447 18.272a1.299 1.299 0 1 0 .002-2.598 1.299 1.299 0 0 0-.002 2.598Zm.79-26.166a1.298 1.298 0 1 0 .002-2.596 1.298 1.298 0 0 0-.002 2.596Zm2.946 42.432a1.299 1.299 0 1 0 0-2.597 1.3 1.3 0 0 0 0 2.597Zm-9.634-31.402a.925.925 0 1 0 .001-1.85.925.925 0 0 0-.001 1.85Zm13.405 21.781a.93.93 0 0 0 .93-.925.93.93 0 0 0-.93-.926c-.51 0-.92.415-.92.926 0 .511.41.925.92.925Zm-10.521-54.102a.926.926 0 1 0 0-1.852.926.926 0 0 0 0 1.852ZM907.62 1.85a.926.926 0 1 0 0-1.851.926.926 0 0 0 0 1.852Z" fill="#fff"/><path d="M1327.59 99.776a2.23 2.23 0 0 0 0-4.46 2.23 2.23 0 0 0 0 4.46Z" fill="#F9C5B8"/><path d="M1385.9 67.064c.98 0 1.77-.79 1.77-1.764a1.765 1.765 0 0 0-3.53 0c0 .974.79 1.764 1.76 1.764Z" fill="#EB5D40"/><path d="M1164.89 97.627c1.13 0 2.04-.909 2.04-2.03 0-1.122-.91-2.032-2.04-2.032a2.031 2.031 0 0 0 0 4.062Z" fill="#F9C5B8"/><path d="M1197.74 93.13a2.23 2.23 0 0 0 0-4.459 2.23 2.23 0 0 0 0 4.46Z" fill="#EB5D40"/><path d="M1209.6 24.7c.98 0 1.77-.79 1.77-1.764a1.765 1.765 0 0 0-3.53 0c0 .974.79 1.764 1.76 1.764Zm-32.65 12a2.454 2.454 0 0 0 0-4.907 2.456 2.456 0 0 0-2.46 2.453c0 1.355 1.1 2.453 2.46 2.453Z" fill="#F9C5B8"/><path d="M1246.61 43.202c1.36 0 2.46-1.098 2.46-2.453a2.456 2.456 0 0 0-4.91 0c0 1.355 1.1 2.453 2.45 2.453Z" fill="#EB5D40"/><path d="M974.01 83.268a1.764 1.764 0 1 0 .001-3.529 1.764 1.764 0 0 0-.001 3.529Z" fill="#F9C5B8"/><path d="M1030.24 64.338a2.454 2.454 0 0 0 0-4.907 2.456 2.456 0 0 0-2.46 2.453c0 1.355 1.1 2.454 2.46 2.454Zm-38.528 36.084a2.455 2.455 0 0 0 2.456-2.453 2.455 2.455 0 0 0-4.911 0c0 1.355 1.1 2.453 2.455 2.453Z" fill="#EB5D40"/><path d="M1059.26 109.304a1.763 1.763 0 0 0 0-3.528c-.98 0-1.77.79-1.77 1.764s.79 1.764 1.77 1.764Zm.21 23.06c1.36 0 2.46-1.098 2.46-2.453 0-1.355-1.1-2.453-2.46-2.453a2.455 2.455 0 0 0-2.46 2.453c0 1.355 1.1 2.453 2.46 2.453Z" fill="#F9C5B8"/><path d="M1096.27 127.806a2.454 2.454 0 1 0-.008-4.908 2.454 2.454 0 0 0 .008 4.908Zm47.01-86.094c1.13 0 2.04-.91 2.04-2.031 0-1.122-.91-2.031-2.04-2.031a2.031 2.031 0 0 0 0 4.062Zm106.43 60.518c1.36 0 2.46-1.099 2.46-2.454a2.456 2.456 0 0 0-4.91 0c0 1.355 1.1 2.454 2.45 2.454Zm53.12-58.363a2.23 2.23 0 0 0 0-4.46 2.23 2.23 0 0 0 0 4.46Z" fill="#EB5D40"/><path d="M1244.71 80.585a2.23 2.23 0 0 0 0-4.46 2.23 2.23 0 0 0 0 4.46Zm-15.41 37.942a1.763 1.763 0 0 0 0-3.528c-.98 0-1.77.79-1.77 1.764s.79 1.764 1.77 1.764Zm62.31-22.017a1.763 1.763 0 0 0 0-3.529c-.98 0-1.77.79-1.77 1.764s.79 1.764 1.77 1.764Z" fill="#F9C5B8"/><path d="M1333.98 76.94a1.763 1.763 0 0 0 0-3.528c-.98 0-1.77.79-1.77 1.763 0 .975.79 1.764 1.77 1.764Z" fill="#EB5D40"/><path d="M1018.71 109.527c1.24 0 2.23-.998 2.23-2.229a2.23 2.23 0 0 0-4.46 0c0 1.231 1 2.229 2.23 2.229Z" fill="#F9C5B8"/><path d="M1066.02 71.02a1.763 1.763 0 0 0 0-3.527c-.98 0-1.77.79-1.77 1.763 0 .975.79 1.764 1.77 1.764Z" fill="#EB5D40"/><path d="M1033.9 88.125c.98 0 1.77-.79 1.77-1.764a1.765 1.765 0 0 0-3.53 0c0 .974.79 1.764 1.76 1.764Zm241.28-32.718c.98 0 1.77-.79 1.77-1.764a1.765 1.765 0 0 0-3.53 0c0 .974.79 1.764 1.76 1.764Z" fill="#F9C5B8"/><path d="M1122.96 69.325a2.454 2.454 0 0 0 0-4.907 2.456 2.456 0 0 0-2.46 2.454c0 1.355 1.1 2.453 2.46 2.453Z" fill="#EB5D40"/><path d="M1159.75 64.766a2.454 2.454 0 0 0 0-4.907 2.456 2.456 0 0 0-2.46 2.454c0 1.354 1.1 2.453 2.46 2.453Zm-62.18 27.564a1.763 1.763 0 0 0 0-3.528c-.98 0-1.77.79-1.77 1.764s.79 1.763 1.77 1.763Z" fill="#F9C5B8"/><path d="M1158.41 281.38c-5.95-20.924-6.84-41.507-3.65-66.698-9.78 20.539-7.41 45.792-13.24 67.698 0 0 5.78 2.54 10.82 1.937 5.03-.602 6.07-2.937 6.07-2.937Z" fill="#5B9146"/><path d="M1212.73 284.106c-2.81-8.254-2.21-19.974-2.52-28.942-.57-16.427-.46-32.557.12-49.065.89-25.545 6.06-49.86 10.38-74.815-4.75 6.142-7.56 17.651-9.73 25.191-3.01 10.452-4.83 21.57-6.58 32.339-2.35 14.496-8.57 78.045-8.64 92.771 0 0 3.35 4.31 8.59 3.726 5.24-.584 8.38-1.205 8.38-1.205Z" fill="#3C642F"/><path d="M1180.47 282.659c7.84-8.254 7.5-28.035 9.47-39.128 2.58-14.452 6.43-29.259 7.22-43.86 1.47-27.247-4.17-57.879-10.75-79.051 12.65 18.148 16.78 56.971 17.82 79.498 1.34 28.905-13.68 53.729-10.61 81.982a10.5 10.5 0 0 1-6.22 2.776c-3.62.23-6.93-2.217-6.93-2.217Zm-50.08-1.658c0-20.825 5.55-41.37 4.71-61.947.3 19.763-18.03 40.054-16.47 60.922 0 0 .85 2.31 4.28 2.714 3.44.404 7.48-1.689 7.48-1.689Z" fill="#5B9146"/><path d="M1230.83 98.69c-8.96 47.506-16.79 165.697-16.79 181.354m21.04-217.11c-.48 1.683-.77 3.925-1.19 5.161m-51.45 34.6c-.76 7.727 1.19 15.875 1.19 23.713 0 8.745-.62 17.39-1.2 25.992-.49 7.304-.91 14.639-1.75 21.906-.62 5.161-10.97 100.881-13.55 105.03m9.05-214.296a6.644 6.644 0 0 1 1.77 3.825m29.19 14.85c.49 23.471.9 33.34-1.86 58.835-3.8 34.725-15.04 102.385-18.03 136.886m12.84-228.787c.62.41 1.96 2.602 2.37 4.347m-53.74 64.239c2.18 14.67.59 30.538 1.29 45.376.46 9.72-2.58 87.355-3.86 98.925m1.52-171.101.72 5.428" stroke="#CEC0AE" stroke-width="2" stroke-linecap="round" stroke-linejoin="round"/><path d="M1227.54 283.591c-2.56-7.484-.62-20.968.79-29.098 1.72-9.993 3.6-19.545 10.37-27.75-1.13 8.167-2.82 16.099-3.53 24.39-.95 11.086 1.91 22.781.78 33.538 0 .006-6.38 4.857-8.41-1.08Z" fill="#3C642F"/><path d="M1243.32 284.429c2.95-4.41 1.77-11.987.83-16.552-1.16-5.589-.85-11.875-7.12-16.179.67 4.596.63 10.503.86 15.192.33 6.267-3.5 12.552-2.98 18.632 0-.006 6.07 2.41 8.41-1.093Zm-27.69-.727c-6.21-13.738 7.26-79.653 10.06-94.236 2.98-15.527 9.06-30.172 17.01-43.991-1.49 14.558-6.36 29.52-8.95 44.041-1.56 8.738-7.36 85.479-5.05 94.186 0 0-10.25 6.248-13.07 0Z" fill="#5B9146"/><path d="M1197.99 284.05c5.95-7.403 10.94-18.011 15.83-46.68 2.41-14.136 3.59-29.191-1.14-43.333 21.28 29.191.09 60.152 4.58 89.82 0 .007-4.86 7.801-19.27.193Zm-36.91-2.764c-.55-16.458 2.18-78.777-.87-94.671.32 10.273-1.53 22.583-3.03 32.501-1.58 10.403-3.59 52.053-5.1 62.468 0 0 .66 3.106 4.49 3.317 3.83.211 4.51-3.615 4.51-3.615Z" fill="#7DA567"/><path d="M1176.49 282.15c-10.17-29.62-4.04-52.935-.4-83.976 3.54-30.216-3.96-58.382-5.84-88.641-5.5 20.738-.76 55.512-1.6 76.964-.49 12.422-9.4 85.088-6.69 96.317a8.865 8.865 0 0 0 3.1 2.332c1.2.537 2.5.802 3.81.773 4.63-.012 7.62-3.769 7.62-3.769Z" fill="#3C642F"/><path d="M1188.3 282.038c-3-21.924 5.67-111.173-2.35-131.756 1.83 13.664-1.65 30.489-2.44 44.246-3.18 55.133-11.4 73.734-13.26 88.038 0 0 3.05 2.335 9.1 2.335s8.95-2.863 8.95-2.863Z" fill="#7DA567"/><path d="M1138.7 283.528c6.06-29.029-7.69-61.101 11.36-88.491-4.9 13.664-6.43 28.321-6.57 42.525-.09 9.894 2.15 19.875 2.99 29.812.32 3.932 2.71 14.285 7.15 17.632-2.54.94-5.23 1.442-7.94 1.485a10.266 10.266 0 0 1-6.99-2.963Z" fill="#3C642F"/><path d="M1150.15 97.664c-7.82-2.546-5.02 17.807-5.29 22.08-.21 3.242-1.96 10.726 1.56 12.987 2.49 1.571 5.66-.311 6.84-1.864 3.04-4.024 1.58-16.464 1.5-21.116-.11-5.453 1.57-11.198-4.61-12.087Zm29.92-27.756c-7.13-5.9-3.69 13.559-3.42 15.962.36 3.255.18 21.701 8.17 17.105 6.22-3.572-.07-33.023-4.75-33.067Zm21.13-15.16c-4.19 1.068-2.07 35.283 8.33 28.855 4.24-2.62-1.24-10.452-1.82-14.148-.68-4.024.83-17.427-6.51-14.707Zm31.68 11.589c-3.83-1.466-11.23 32.849-1.24 33.228 4.01.963 14.48-32.65 1.24-33.228Z" fill="#9A5129"/><path d="M905.637 260.127c-.23-8.522 7.099-20.086 14.296-25.434-2.697 8.031-6.682 15.614-6.588 24.309.049 4.857 5.171 21.738-3.344 22.074m13.332-31.757c2.878 7.491 4.475 20.154 2.859 27.253-1.143 5.025.504 14.012 5.974 6.006 5.898-8.652-.286-27.905-8.833-33.259Z" fill="#2FAC66"/><path d="M896.68 257.102a46.852 46.852 0 0 0-8.496 17.079c-.746 2.895-2.294 14.366 5.171 10.646 3.947-1.963.622-10.559.653-13.838.068-4.143 2.38-11.577 2.672-13.887Zm40.44 1.77c1.759 6.496 2.909 10.459.721 18.489-.784 2.876-.46 9.18 5.271 7.298 5.731-1.882.491-20.67-5.992-25.787Zm-13.14 25.507c-7.347 2.845-8.957-7.136-8.97-10.39 0-5.099.255-15.527 1.585-20.185 2.35 9.043 3.574 14.906 6.838 18.868 0 0 2.728 3.838 2.169 7.639-.559 3.801-1.622 4.068-1.622 4.068Z" fill="#6FBC85"/><path d="M942.857 284.485c1.361 5.459 9.485-2.863 9.752-5.987.491-5.714 1.157-10.323-.111-18.471a168.526 168.526 0 0 1-7.018 16.148s-3.524 4.838-2.623 8.31Z" fill="#2FAC66"/><path d="M905.519 285.33a3.816 3.816 0 0 1-4.307-2.988c-.858-5.322 1.119-11.676.18-20.942-.522-5.162-5.134-9.546-6.446-14.335 7.198 6.18 12.376 11.552 14.613 20.378 1.281 5.055 3.002 16.955-4.04 17.887Z" fill="#6FBC85"/><path d="M698.579 260.263c-.243-10.13 7.645-23.874 15.39-30.234-2.909 9.552-7.198 18.564-7.105 28.899.056 5.776 5.595 25.818-3.592 26.24" fill="#00687F"/><path d="M719.924 242.625c3.108 8.912 4.823 23.961 3.108 32.401-1.243 5.975.54 16.657 6.427 7.136 6.333-10.272-.324-33.184-9.535-39.537Zm-28.705 9.253a58.077 58.077 0 0 0-9.155 20.31c-.808 3.434-2.487 17.073 5.594 12.651 4.251-2.335.621-12.533.708-16.452.05-4.925 2.536-13.763 2.853-16.509Zm43.554 2.106c1.865 7.726 3.108 12.421.783 21.98-.845 3.416-.497 10.912 5.669 8.695 6.166-2.217.534-24.564-6.452-30.675Z" fill="#00A3A6"/><path d="M725.226 285.69c-7.919 3.379-9.654-8.484-9.666-12.353 0-6.062.274-18.415 1.703-23.999 2.536 10.757 3.854 17.714 7.391 22.434 0 0 2.946 4.565 2.343 9.08-.603 4.515-1.771 4.838-1.771 4.838Zm15.701-1.249c1.473 6.491 10.218-3.397 10.51-7.111.529-6.794 1.243-12.272-.124-21.955-2.182 6.596-4.693 12.676-7.558 19.185 0-.012-3.767 5.745-2.828 9.881Zm-40.191.988a4.149 4.149 0 0 1-4.637-3.54c-.926-6.335 1.206-13.881.193-24.906-.566-6.13-5.532-11.347-6.943-17.036 7.751 7.341 13.326 13.732 15.738 24.222 1.38 6.031 3.238 20.161-4.351 21.26Z" fill="#247881"/><path d="M643.7 258.965c1.548-10.006 5.514-15.465 14.253-20.359-4.544 8.881-4.134 10.316-5.862 20.496-.963 5.695.939 26.395-8.167 25.197" fill="#00687F"/><path d="M663.771 241.873c3.108 8.906 4.823 23.955 3.108 32.395-1.243 5.975.541 16.658 6.433 7.137 6.346-10.267-.317-33.185-9.541-39.532Zm-31.079 8.745a58.229 58.229 0 0 0-9.149 20.309c-.808 3.434-2.487 17.073 5.594 12.651 4.251-2.335.621-12.533.702-16.452.044-4.925 2.53-13.763 2.853-16.508Z" fill="#00A3A6"/><path d="M676.37 254.238c1.865 7.72 3.108 12.422.777 21.98-.845 3.41-.497 10.906 5.675 8.695 6.172-2.211.528-24.563-6.452-30.675Zm-9.678 30.191c-7.918 3.379-9.653-8.484-9.665-12.353 0-6.062-2.244-18.148-.814-23.725 2.536 10.751 6.371 17.44 9.908 22.16 0 0 2.94 4.565 2.337 9.08-.603 4.515-1.766 4.838-1.766 4.838Z" fill="#247881"/><path d="M684.034 283.436c1.467 6.49 10.219-3.398 10.511-7.118.528-6.788 1.243-12.273-.124-21.955-2.182 6.596-4.693 12.682-7.565 19.185 0 0-3.766 5.745-2.822 9.888Zm-41.832.732a4.145 4.145 0 0 1-4.637-3.54c-.932-6.335 1.206-13.881.193-24.905-.566-6.13-5.532-11.347-6.943-17.036 7.751 7.341 13.326 13.732 15.738 24.222 1.38 6.005 3.238 20.16-4.351 21.259Z" fill="#247881"/><path d="M998.985 230.383c1.325-7.54 3.585-14.142 10.965-17.9 6.31-3.211 15.71-.677 21.13-5.769 4.06-3.789 4.46-8.696 10.26-11.521 4.22-2.081 8.97-1.243 13.12-2.665 6.02-2.056 8.86-3.801 15.8-3.882 10.9-.13 21.13 1.162 31.82 1.795 12.13.715 19.93-1.174 31.34 4.54 9.37 4.69 21.19 8.298 29.07 15.18 7.63 6.676 18.56 13.663 21.75 23.799 2.34 7.341 2.06 16.664 1.48 24.34-1.48 19.794-21.8 28.781-39.46 28.731-24.47-.068-48.84-.186-73.24-1.18-18.23-.739-38.89-2.235-56.56-6.397-13.52-3.173-22.112-11.229-20.515-25.948.603-4.907 11.295-20.744 3.04-23.123Z" fill="#B2B2B2"/><path d="M966.924 277.175c-.69-8.074-.907-11.378 5.072-17.303 5.228-5.18 12.183-7.95 18.722-10.888 12.362-5.559 35.482-12.583 47.692-2.913 5.28 4.186 4.91 10.36 6.3 16.148 1.5 6.279 3.25 9.062-.7 14.061-7.55 9.54-21.55 8.975-32.15 7.832-14.597-1.571-28.856-.447-43.637 0-1.125-2.049-2.467-3.975-1.299-6.937Z" fill="#DADADA"/><path d="M1076.18 209.366c.1.348 0 3.068 1.28 4.254 1.58 1.429 2.58-1.509 3.04-2.764.67-1.832 1.55-3.676.66-5.589a4.898 4.898 0 0 0-1.74-1.975c-.63-.614-1.2-1.285-1.7-2.007-1.36-1.534-2.62-2.223-3.61-4.049-.69-1.298-1.05-2.708-1.86-3.987-1.78-2.882-4.97-4.348-7.24-6.832-1.37-1.503-3.36-4.584-3.55-6.702-.13-1.403.62-2.13 1.75-2.639 1.13-.509 2.62-.777 3.86-1.311 1.34-.583 2.15-1.937 3.34-2.776a3.72 3.72 0 0 1 2.93-.621c1.3.236 1.45.975 2.15 1.863 1.02 1.305 4.71 1.746 6.47 1.864 3.04.161 6.99-2.485 9.89-.261 1.48 1.13 1.63 2.608 2.19 4.186.5 1.434 2.13 1.677 3.5 1.993 0-1.043.32-2.049.33-3.105 0-.925-.29-1.938 0-2.851.49-1.478 1.91-1.49 3.24-1.422 3.36.168 6.74 2.124 9.84 3.372a29.582 29.582 0 0 1 9.04 5.559c2.84 2.565 4.12 4.82 4.54 8.59.15 1.409 1.12 3.726-.68 4.527-1.58.702-2.97-1.018-4.36-.913.63 1.416 2.98 5.503.47 6.559 1.95-.137 2.4 2.484 2.41 3.894 0 2.733-1.3 4.876-2.99 6.906-2.25 2.708-4.97 5.131-7.46 7.683-2.48 2.553-6.01 3.938-9.32 4.714a27.034 27.034 0 0 0-9.32 4.466c-.46-1.677-.99-2.354-2.82-2.267-1.2.056-2.38.186-3.56.391-.75.13-1.75.547-2.49.217.88-.329 4.35-1.111 4.45-2.111.1-1.28-2.12-.752-2.76-.808.36-.484 1.07-.677 1.46-1.111.39-.435.4-1.379.84-1.646.26-.162 1.83 0 2.2 0 .95-.027 1.9-.154 2.82-.379.06-4.217.75-9.149 4-12.242-2.28-.826-5.55-.434-7.65-1.912-1.52 2.571-2.93 5.142-4.51 7.67-1.1 1.758-3.05 3.726-5.36 3.602-1.86-.093-3.11-2.18-4.35-3.347-1.57-1.448-2.83-1.696-4.8-2.056-.28-1.398 1.76-1.025 2.54-.982.12-1.695-.89-3.447-1.87-4.763 2.18-.447 2.56 2.41 3.78 3.447.05-.888-.49-2.261-.3-3.075.27-1.155.84-.621 1.16.317l.12.429Z" fill="#5B9146"/><path d="M1068.14 183.97c-.43-1.392-.15-2.808 1.24-3.621a3.682 3.682 0 0 1 4.07.552c2.02 2.168.21 5.236-2.41 5.224-1.62-.006-2.63-.764-2.9-2.155Z" fill="#3C642F"/><path d="M1069.48 185.317c-2.56-1.757 0-5.484 2.49-3.726 1.81 1.242 1.4 4.124-1.07 4.167a2.27 2.27 0 0 1-1.13-.223l-.29-.218Z" fill="#BDD0B1"/><path d="M1070.84 184.224c1.4-1.018-1.4-2.316-1.87-1.08-.46 1.236.53 2.056 1.87 1.08Z" fill="#3C642F"/><path d="M1085.28 177.082c1.98.391 3.96 1.441 5.82 2.23.91.385 6.83 2.683 6.83 2.683s4.91 1.913 5.64 2.254c2.35 1.1 4.92 1.721 7.15 3.031a25.856 25.856 0 0 1 5.37 4.137c1.16 1.192 2.49 2.391 3.43 4.347m-15.8-17.235c1.86 1.584 2.32 4.347 3.24 6.589m7.71-4.018c.21.429 1.21 1.099 1.72 1.578 1.03.895 1.91 1.942 2.63 3.105 1.24 2.143 1.46 3.633 2.15 5.969 0 .155.51 2.068.43 1.863m-6.37 7.354c-.88-.024-1.76.014-2.63.111-2.14.273-4.23.822-6.22 1.634-3.8 1.509-6.09 4.633-8.94 7.322m22.96-7.676c-2.24-.87-8.71 3.055-9.68 3.583a68.824 68.824 0 0 0-6.29 3.609c-1.76 1.211-3.35 2.888-5.07 4.037m21.12-5.36c-1.02-.565-5.13 4.553-5.98 5.559a58.576 58.576 0 0 1-6.43 6.26c-2.91 2.522-6.91 5.31-10.97 4.82-1.68-.205-3.28-1.342-3.67-2.59m-8.71-25.775c-.62 1.242 2.73 5.136 3.42 6.354.55.853.99 1.781 1.28 2.757.18.758.14 1.733.33 2.391" stroke="#3C642F" stroke-width="2" stroke-linecap="round" stroke-linejoin="round"/><path d="M1082.09 187.286a.635.635 0 0 0-.34-.098.698.698 0 0 0-.57.341.627.627 0 0 0-.04.136.179.179 0 0 0-.08 0 .351.351 0 0 0-.15.073.293.293 0 0 0-.11.126.464.464 0 0 0-.06.163c-.01.058 0 .117.01.172.04.13.12.247.21.342.11.086.22.149.35.186.1.026.2.037.3.031a1.1 1.1 0 0 0 .4-.099.863.863 0 0 0 .33-.272.726.726 0 0 0 .13-.402.756.756 0 0 0-.09-.416.834.834 0 0 0-.29-.308v.025Zm6-.267a.29.29 0 0 0-.08-.143.33.33 0 0 0-.15-.086.25.25 0 0 0-.16-.038h-.12a.504.504 0 0 0-.19.112l-.07.087a.503.503 0 0 0-.1.106.842.842 0 0 0-.07.149v.36c.02.068.05.132.09.192a.6.6 0 0 0 .13.156l.08.068.11.043h.12a.434.434 0 0 0 .34-.173c.03-.029.04-.063.06-.1a.466.466 0 0 0 .03-.167v-.441a.183.183 0 0 0-.02-.125Zm6.13 3.168a1.32 1.32 0 0 0-.63-.311 1.367 1.367 0 0 0-.69 0c-.1.03-.2.102-.26.199v.037l-.07.075a.502.502 0 0 0-.04.341c.05.142.13.27.24.373.16.142.36.23.57.254.21.023.42-.02.61-.124a.873.873 0 0 0 .33-.341.393.393 0 0 0 .05-.28.376.376 0 0 0-.11-.223Zm.72-5.864a.483.483 0 0 0-.31-.223.736.736 0 0 0-.31 0 .969.969 0 0 0-.16.062.498.498 0 0 0-.13.093c-.02.02-.05.043-.06.068-.06.053-.1.12-.11.193v.112c-.01.079.02.157.06.223.04.087.12.159.2.205.09.05.19.078.29.081h.19c.05-.015.09-.033.14-.056h.04a.622.622 0 0 0 .2-.205.712.712 0 0 0 .08-.285.452.452 0 0 0-.12-.268Zm-5.83 9.746a.467.467 0 0 0-.06-.156v-.043l-.08-.106a.58.58 0 0 0-.11-.081l-.05-.031a.76.76 0 0 0-.16-.062h-.24a.542.542 0 0 0-.2.056l-.09.069a.313.313 0 0 0-.11.192v.031a.345.345 0 0 0 0 .143c-.01.01-.01.021 0 .031a.26.26 0 0 0 0 .124v.044l.05.13v.05c.03.046.07.09.11.13l.1.087.13.056h.4l.08-.068.03-.044a.107.107 0 0 0 .04-.049v-.261a.488.488 0 0 0 .16-.242Zm-7.61.117a.477.477 0 0 0-.19-.261c-.3-.169-.64-.22-.97-.142a.359.359 0 0 0-.1.049l-.08-.031a.488.488 0 0 0-.34.044.43.43 0 0 0-.2.261v.118c0 .076.02.151.06.217a.98.98 0 0 0 .36.385c.16.094.33.146.51.149.19.012.37-.024.53-.105.16-.076.3-.197.39-.348a.397.397 0 0 0 .03-.336Zm22.06.746a.685.685 0 0 0-.14-.236.656.656 0 0 0-.14-.112.627.627 0 0 0-.35-.099h-.11a.533.533 0 0 0-.09-.044.43.43 0 0 0-.53.305.618.618 0 0 0 0 .192.704.704 0 0 0 0 .205.113.113 0 0 0 0 .081c.02.063.04.124.08.18a.59.59 0 0 0 .12.143c.04.046.09.084.15.112.05.032.11.055.17.068.06.009.13.009.19 0a.769.769 0 0 0 .35-.106.735.735 0 0 0 .29-.36c.03-.107.03-.22.01-.329Zm.68-6.043a.337.337 0 0 0-.04-.094l-.09-.118c-.04-.037-.08-.062-.12-.093h-.04l-.14-.056h-.15a.627.627 0 0 0-.15 0 .287.287 0 0 0-.11-.056.462.462 0 0 0-.34.044c-.1.06-.17.152-.2.261-.04.105-.07.217-.1.323v.273c0 .031.05.106.07.149l.09.131.05.043.08.068c.03.026.06.049.1.069l.09.043c.04.015.07.028.11.037.05.006.11.006.16 0 .02.007.04.007.06 0 .05.007.11.007.16 0a.865.865 0 0 0 .32-.18l.04-.037c.03-.039.06-.08.09-.124v-.044l.06-.149v-.205a.684.684 0 0 0 0-.285Zm5.94 4.105a.643.643 0 0 0-.25-.23.71.71 0 0 0-.17-.068.352.352 0 0 0-.13-.093.466.466 0 0 0-.18-.038.399.399 0 0 0-.16.035.36.36 0 0 0-.14.096.41.41 0 0 0-.13.31v.522c0 .081.02.16.06.23.04.068.09.124.16.161.04.024.08.043.13.056.06.022.12.035.19.038h.07a.641.641 0 0 0 .19-.038.963.963 0 0 0 .17-.074.627.627 0 0 0 .31-.541.49.49 0 0 0-.12-.366Zm-13.27 3.118a.498.498 0 0 0-.31-.125h-.56a.43.43 0 0 0-.31.125.383.383 0 0 0-.09.142.333.333 0 0 0-.04.168c0 .116.05.228.13.311.08.078.19.123.31.124h.56a.502.502 0 0 0 .31-.124c.04-.042.07-.09.09-.143.03-.05.04-.109.03-.168a.447.447 0 0 0-.12-.31Zm-7.48-13.863a.42.42 0 0 0-.06-.143.035.035 0 0 0 0-.043.572.572 0 0 0-.12-.155l-.12-.093h-.04a.93.93 0 0 0-.19-.069h-.13a1.607 1.607 0 0 0-.17 0h-.05a.922.922 0 0 0-.12.056.486.486 0 0 0-.21.261.508.508 0 0 0 0 .174c.01.057.03.112.05.161l.07.081v.112a.29.29 0 0 0 .08.149c.02.034.05.062.08.081a.36.36 0 0 0 .15.08h.48a.72.72 0 0 0 .16-.068l.08-.068.07-.087a.405.405 0 0 0 .07-.236.456.456 0 0 0-.08-.193Zm-9.54-2.726c-.12 0-.23.046-.31.127a.445.445 0 0 0-.13.308.443.443 0 0 0 .44.434c.11 0 .23-.045.31-.127a.433.433 0 0 0 .12-.307.435.435 0 0 0-.12-.308.45.45 0 0 0-.31-.127Zm28.16 17.346a.438.438 0 0 0-.21-.26.436.436 0 0 0-.33-.05h-.04l-.06-.031a.232.232 0 0 0-.1-.068.265.265 0 0 0-.17-.038.285.285 0 0 0-.17.038.285.285 0 0 0-.14.087.387.387 0 0 0-.09.141.337.337 0 0 0-.04.169v.112a.38.38 0 0 0 .12.192.65.65 0 0 0 .18.143l.16.062h.54a.315.315 0 0 0 .15-.08.518.518 0 0 0 .11-.118.312.312 0 0 0 .05-.162.604.604 0 0 0 .04-.137Zm-8.51 3.112a.29.29 0 0 0 0-.131.283.283 0 0 0-.07-.149.27.27 0 0 0-.13-.111.28.28 0 0 0-.16-.056.375.375 0 0 0-.17 0l-.11.049-.05.05a.318.318 0 0 0-.16.056l-.09.068a.452.452 0 0 0-.11.193v.112c0 .078.03.155.06.223.03.036.05.069.08.1.03.028.06.053.1.074h.39a.784.784 0 0 0 .14-.05h.03l.05-.043.05-.037.07-.093a.55.55 0 0 0 .05-.118V200l.03-.019Z" fill="#BDD0B1"/><path d="M26.933 235.911c-4.662-11.54 12.394-95.814 14.097-107.41 1.243-8.633 2.486-19.371.1-27.88 18.267 2.689 20.511 25.974 19.678 37.228-.69 9.539-2.61 17.837-5.314 26.892-2.486 8.416-13.967 71.039-16.863 78.591" fill="#9A1337"/><path d="M35.53 278.895c-7.628-10.651-9.461-22.048-6.695-35.401 0 0 15.104-72.107 17.404-81.889 2.3-9.782 8.08-34.551 2.486-49.929" stroke="#E8ADAF" stroke-width="1.59" stroke-miterlimit="10"/><path d="M42.099 259.076c-25.341 1.727-4.426-49.369 0-59.077 11.623-25.389 31.079-41.798 52.622-59.424-1.908 23.545-19.803 39.593-27.349 61.319-4.245 12.241-6.315 24.309-8.26 36.997-.759 4.969-6.036 22.688-14.806 20.03" fill="#D15064"/><path d="M48.78 258.443c-1.746 2.845-1.603 4.205.237 7.155 3.151 5.05 6.216 3.621 10.666 1.596 8.348-3.801 12.432-10.558 16.466-18.446 4.034-7.887 5.283-15.924 4.972-24.613-.236-6.583-5.04-18.955-13.109-20.086 0 0-4.481-.944-8.465 6.956-3.985 7.9 7.595 17.54-10.766 47.438Zm-33.813-3.372c-18.43-2.988-4.519-39.669-2.436-48.444a138.458 138.458 0 0 0 3.73-38.979c-.69-14.565-5.943-26.818-8.877-40.867 18.852 9.533 30.892 30.054 33.565 50.096 1.566 11.751-1.18 20.539-4.537 31.594-1.598 5.279-3.4 10.192-3.99 15.682-.517 4.82-.144 9.938-1.45 14.683-.857 3.105-2.952 8.353-4.686 11.111-1.865 2.975-4.251 5.59-11.331 5.111" fill="#C71748"/><path d="M85.087 158.406a92.644 92.644 0 0 0-24.241 30.967c-14.296 29.371-15.807 54.158-16.783 64.058-.697 8.536-.78 17.11-.248 25.657m5.725-1.677c-1.138-9.708 12.375-22.241 17.64-29.812 8.024-11.509 6.047-18.875 3.58-28.613m-51.783-74.374c13.127 21.247 12.48 34.29 8.751 48.189-3.45 12.894-7.918 23.514-9.907 36.781-1.542 10.272-2.642 20.787-1.903 31.19.317 4.478.349 8.832 5.539 18.713" stroke="#E8ADAF" stroke-width="1.59" stroke-miterlimit="10"/><path d="M164.102 282.355c7.253-10.521 9.566-16.229 20.107-24.583 5.812-4.602 18.374-8.726 13.414 4.752-4.892 13.285-23.713 7.807-31.526 19.806" fill="#00687F"/><path d="M162.485 282.224c5.961-13.943.697-26.644 6.751-41.506 2.138-5.236 8.08-15.316 14.433-16.509 6.054-1.136 7.185 6.093 5.401 11.77-1.784 5.677-7.882 10.21-10.784 15.527-2.487 4.503-3.885 9.279-5.594 13.924-2.617 7.056.385-.031-6.838 16.515" fill="#00687F"/><path d="M162.262 281.789c-2.176-15.62-3.618-12.757-8.895-21.39-4.351-7.154-12.593-14.589-14.215-23.172-1.306-6.906 1.622-10.558 7.459-5.453 6.887 6.024 14.084 21.266 16.459 30.184 5.053 19.005.671 10.956.621 19.707" fill="#00687F"/><path d="M162.585 282.361c.802-11.764-31.334-38.774-33.814-23.272-2.747 17.154 28.922 10.732 33.814 23.272Zm29.083-33.75c.423-9.421 16.95-39.034 22.053-23.569 3.531 10.695-14.408 18.533-22.053 23.569Zm-26.951-13.645c-4.737-8.161-6.838-41.997 5.824-31.737 8.745 7.093-2.114 23.378-5.824 31.737Zm17.459-19.856c-1.075-9.372 10.567-41.233 18.026-26.768 5.196 9.999-11.275 20.582-18.026 26.768Zm-7.036-25.582c-5.681-7.533-11.81-40.879 1.977-32.203 9.535 5.994.708 23.44-1.977 32.203Zm30.812-15.794c-1.566-6.751 4.264-30.979 10.94-21.042 4.612 6.869-6.527 15.968-10.94 21.042Zm-52.791-9.254c-12.307-9.682-10.566-27.253-1.771-22.359 6.066 3.416 3.151 16.906 1.771 22.359Z" fill="#00687F"/><path d="M186.938 136.551a3.374 3.374 0 1 0 0-6.745 3.374 3.374 0 1 0 0 6.745Z" fill="#F6BAC8"/><path d="M444.66 206.807a3.374 3.374 0 1 0 0-6.745 3.374 3.374 0 1 0 0 6.745Z" fill="#A499B3"/><path d="M279.273 117.713a3.374 3.374 0 1 0 0-6.745 3.375 3.375 0 0 0-3.376 3.373 3.375 3.375 0 0 0 3.376 3.372Zm256.373 94.106a3.374 3.374 0 1 0 0-6.745 3.374 3.374 0 1 0 0 6.745Zm-101.82-33.135a3.374 3.374 0 1 0 0-6.745 3.374 3.374 0 1 0 0 6.745Zm-65.19-31.097a3.374 3.374 0 1 0 0-6.745 3.374 3.374 0 1 0 0 6.745ZM68.491 94.77a3.374 3.374 0 0 0 3.375-3.372 3.374 3.374 0 0 0-3.375-3.373 3.374 3.374 0 0 0-3.375 3.373 3.374 3.374 0 0 0 3.375 3.372Zm110.534 6.689a3.373 3.373 0 1 0 0-6.745 3.373 3.373 0 1 0 0 6.745Zm316.356 97.249a3.374 3.374 0 1 0 0-6.745 3.374 3.374 0 0 0-3.376 3.372 3.374 3.374 0 0 0 3.376 3.373Z" fill="#5C4973"/><path d="M275.295 148.692a3.374 3.374 0 1 0 0-6.745 3.375 3.375 0 0 0-3.376 3.373 3.375 3.375 0 0 0 3.376 3.372Z" fill="#A499B3"/><path d="M323.758 181.864a3.374 3.374 0 0 0 3.376-3.372 3.374 3.374 0 0 0-3.376-3.373 3.374 3.374 0 1 0 0 6.745ZM120.722 86.516a3.374 3.374 0 1 0 0-6.745 3.374 3.374 0 1 0 0 6.745Zm32.489 44.296a3.865 3.865 0 0 0 3.867-3.863 3.865 3.865 0 0 0-3.867-3.864 3.865 3.865 0 0 0-3.866 3.864 3.865 3.865 0 0 0 3.866 3.863Zm-24.894-18.024a3.865 3.865 0 0 0 3.867-3.863 3.864 3.864 0 0 0-3.867-3.863 3.864 3.864 0 0 0-3.866 3.863 3.865 3.865 0 0 0 3.866 3.863Zm71.071 6.18a1.69 1.69 0 1 0 0-3.381 1.69 1.69 0 0 0 0 3.381Z" fill="#5C4973"/><path d="M222.654 119.645a1.69 1.69 0 1 0 0-3.38 1.69 1.69 0 0 0 0 3.38Z" fill="#A499B3"/><path d="M254.546 136.432a1.69 1.69 0 1 0-1.691-1.689 1.69 1.69 0 0 0 1.691 1.689Z" fill="#F6BAC8"/><path d="M487.039 219.986a1.69 1.69 0 1 0 .002-3.38 1.69 1.69 0 0 0-.002 3.38Z" fill="#A499B3"/><path d="M420.91 195.304a1.69 1.69 0 1 0 .002-3.38 1.69 1.69 0 0 0-.002 3.38Z" fill="#F6BAC8"/><path d="M404.37 152.91a1.69 1.69 0 1 0 0-3.381 1.69 1.69 0 0 0 0 3.381Z" fill="#A499B3"/><path d="M293.581 174.393a1.69 1.69 0 1 0 0-3.381 1.69 1.69 0 0 0 0 3.381ZM214.79 95.534a1.69 1.69 0 1 0 .002-3.38 1.69 1.69 0 0 0-.002 3.38Z" fill="#5C4973"/><path d="M463.022 202.534a1.69 1.69 0 1 0 0-3.38 1.69 1.69 0 0 0 0 3.38Z" fill="#F6BAC8"/><path d="M381.26 170.374a1.69 1.69 0 1 0-1.691-1.689 1.69 1.69 0 0 0 1.691 1.689Z" fill="#A499B3"/><path d="M60.833 76.604a1.69 1.69 0 1 0 .001-3.38 1.69 1.69 0 0 0 0 3.38Z" fill="#5C4973"/><path d="M173.04 121.21a1.932 1.932 0 1 0 0-3.863 1.932 1.932 0 1 0 0 3.863Zm343.555 64.747a1.931 1.931 0 1 0 0-3.863 1.932 1.932 0 1 0 0 3.863Z" fill="#A499B3"/><path d="M564.357 221.837a1.933 1.933 0 1 0 0-3.86 1.933 1.933 0 0 0 0 3.86Zm-350.629-81.746a1.69 1.69 0 1 0 0-3.38 1.69 1.69 0 0 0 0 3.38Z" fill="#5C4973"/><path d="M129.498 133.302a1.69 1.69 0 1 0 .002-3.38 1.69 1.69 0 0 0-.002 3.38Z" fill="#A499B3"/><path d="M318.456 124.042a1.69 1.69 0 1 0 0-3.381 1.69 1.69 0 0 0 0 3.381Z" fill="#5C4973"/><path d="M358.921 171.939a1.69 1.69 0 1 0 0-3.38 1.69 1.69 0 0 0 0 3.38Z" fill="#F6BAC8"/><path d="M297.858 141.389a1.69 1.69 0 1 0 0-3.38 1.69 1.69 0 0 0 0 3.38ZM97.649 95.752a1.69 1.69 0 1 0 .001-3.38 1.69 1.69 0 0 0-.001 3.38Z" fill="#A499B3"/><path d="M148.469 106.44a1.69 1.69 0 1 0-1.691-1.689 1.69 1.69 0 0 0 1.691 1.689Z" fill="#F6BAC8"/><path d="M141.532 79.79a1.69 1.69 0 1 0 .002-3.38 1.69 1.69 0 0 0-.002 3.38Zm194.08 58.766a1.69 1.69 0 1 0 0-3.38 1.69 1.69 0 0 0 0 3.38Z" fill="#A499B3"/><path d="M95.144 71.822a1.69 1.69 0 1 0 .001-3.38 1.69 1.69 0 0 0-.001 3.38Z" fill="#F6BAC8"/><path d="M242.842 177.783c1.013-1.925 2.443-10.719-.746-11.309" stroke="#3F2B59" stroke-width="2" stroke-miterlimit="10"/><path d="M242.842 177.784c2.313-4.969 4.084-9.67 8.404-9.031" stroke="#3F2B59" stroke-width="2" stroke-miterlimit="10"/><path d="M240.12 184.553c-.97 2.634-4.351 8.621-8.51 5.845-5.326-3.565 1.604-11.59 6.291-11.801-8.217-15.769 9.852-11.558 4.22.857 1.343-3.646 7.683-11.98 11.064-5.85 1.138 2.055-3.63 7.8-7.912 7.403 4.257 1.447 4.848 13.527-1.486 12.291-3.53-.683-3.356-6.173-3.667-8.732" fill="#C71748"/><path d="M251.861 169.946a1.286 1.286 0 1 0 0-2.573 1.286 1.286 0 0 0 0 2.573Zm-10.349-2.69a1.285 1.285 0 1 0 .001-2.57 1.285 1.285 0 0 0-.001 2.57Z" fill="#3F2B59"/><path d="M251.557 97.478c-.69-2.056-6.079-9.16-8.703-7.26" stroke="#3F2B59" stroke-width="2" stroke-miterlimit="10"/><path d="M251.557 97.478c-2.014-5.105-4.183-9.626-.74-12.303" stroke="#3F2B59" stroke-width="2" stroke-miterlimit="10"/><path d="M254.577 104.124c1.243 2.521 3.239 9.105-1.641 10.186-6.259 1.391-7.285-9.155-4.214-12.702-17.093-4.968-1.566-15.098 3.537-2.484-1.716-3.49-3.369-13.825 3.406-12.036 2.269.62 3.139 8.005-.106 10.825 3.985-2.074 13.14 5.838 7.876 9.565-2.934 2.074-6.794-1.864-8.858-3.379" fill="#EB5D40"/><path d="M251.177 85.951a1.286 1.286 0 1 0 .002-2.572 1.286 1.286 0 0 0-.002 2.572Zm-9.093 5.621a1.286 1.286 0 1 0 0-2.572 1.286 1.286 0 0 0 0 2.572Z" fill="#3F2B59"/><path d="M477.995 148.314c.765-2.031 1.094-10.938-2.144-11.124" stroke="#3F2B59" stroke-width="2" stroke-miterlimit="10"/><path d="M477.995 148.314c1.672-5.23 2.853-10.099 7.223-9.993" stroke="#3F2B59" stroke-width="2" stroke-miterlimit="10"/><path d="M476.131 155.375c-.622 2.733-3.257 9.093-7.726 6.832-5.725-2.875.161-11.695 4.78-12.496-10.101-14.639 8.354-12.689 4.301.329.876-3.788 6.141-12.837 10.256-7.167 1.38 1.9-2.636 8.186-6.937 8.316 4.401.913 6.477 12.832.044 12.385-3.587-.249-4.097-5.714-4.718-8.211" fill="#C71748"/><path d="M485.815 139.438a1.286 1.286 0 1 0 0-2.571 1.287 1.287 0 1 0 0 2.571Zm-10.598-1.397a1.286 1.286 0 1 0 .001-2.57 1.286 1.286 0 0 0-.001 2.57Z" fill="#3F2B59"/><path d="M11.953 82.504c.77-2.03 1.1-10.937-2.138-11.13" stroke="#3F2B59" stroke-width="2" stroke-miterlimit="10"/><path d="M11.953 82.504c1.678-5.23 2.853-10.099 7.223-10" stroke="#3F2B59" stroke-width="2" stroke-miterlimit="10"/><path d="M10.088 89.56c-.621 2.732-3.257 9.092-7.72 6.831-5.724-2.881.156-11.695 4.78-12.502-10.107-14.632 8.348-12.682 4.295.33.883-3.783 6.141-12.832 10.256-7.168 1.38 1.9-2.635 8.192-6.937 8.316 4.407.913 6.483 12.832.044 12.39-3.587-.248-4.096-5.72-4.718-8.216" fill="#EB5D40"/><path d="M19.772 73.623a1.286 1.286 0 1 0 .001-2.573 1.286 1.286 0 0 0 0 2.573ZM9.174 72.231a1.286 1.286 0 1 0 .001-2.572 1.286 1.286 0 0 0 0 2.572Z" fill="#3F2B59"/><path d="M218.321 258.182c2.238 2.981 4.631 5.298 4.768 9.316.074 2.249 0 6.789-1.467 8.435" stroke="#728F64" stroke-width="2" stroke-linecap="round" stroke-linejoin="round"/><path d="M258.257 262.319c1.622 3.18.957 5.881-.504 8.95-1.46 3.068-1.647 6.745 1.051 8.695" stroke="#728F64" stroke-width="2.18" stroke-linecap="round" stroke-linejoin="round"/><path d="M267.829 228.88c-.093 1.447-.665 2.857-1.1 4.347-.932 3.187-.584 5.857.329 8.845 1.014 3.304.908 9.098-.621 12.322" stroke="#728F64" stroke-width="2" stroke-linecap="round" stroke-linejoin="round"/><path d="M284.245 253.307c-1.243 3.229-2.163 5.509-1.156 9.173.721 2.609 2.486 6.211 1.653 9.186-.41 1.528-2.138 2.453-2.971 3.546" stroke="#728F64" stroke-width="2.13" stroke-linecap="round" stroke-linejoin="round"/><path d="M280.466 243.22c-.392-1.416-5.004-2.031-6.216-1.863-2.032.317-2.747 2.348-3.375 4.348-.591 1.863-.622 3.627 1.51 4.235a8.704 8.704 0 0 0 5.383-.267c-2.25 4.696 1.765 4.261 3.35 4.578 3.419.67 5.271.969 5.271-3.068-.484 3.36 6.788 4.577 8.647 2.77 2.641-2.572-2.014-4.814-3.985-5.627 2.002.037 5.663.757 7.403-.354 1.274-.814 1.741-3.354.914-4.578-1.815-2.689-7.639-1.006-9.51 1.112 1.106-1.342 2.343-4.695 1.342-6-1.491-1.95-4.767-1.776-6.955-1.863-2.188-.087-4.506.367-4.767 2.795-.175 1.571.926 1.838.988 3.782Z" fill="#21B5B8"/><path d="M285.066 243.606a4.755 4.755 0 0 0-3.065.621c-1.641 1.031-2.119 2.77-.54 4.136 1.864 1.634 6.619 2.18 8.186-.155 1.162-1.733-.361-3.106-1.865-3.838a8.383 8.383 0 0 0-2.716-.764Z" fill="#FFCE44"/><path d="M293.084 263.399c-1.131 1.367-3.108 1.056-4.283 1.031a8.498 8.498 0 0 1-5.538-2.111c2.841-3.919 5.234-4.801 8.702-3.54 1.479.546 2.157 3.347 1.119 4.62Zm-16.957-26.116c-1.131 1.366-3.107 1.062-4.282 1.037a8.465 8.465 0 0 1-5.538-2.099c2.822-3.919 5.221-4.813 8.702-3.559 1.473.528 2.144 3.379 1.118 4.621Zm-43.069 28.911c-1.019 1.447-3.039 1.298-4.183 1.366a8.504 8.504 0 0 1-5.693-1.658c2.486-4.136 4.835-5.204 8.378-4.229 1.53.453 2.431 3.192 1.498 4.521Zm34.771 6.77c-1.28 1.242-3.232.677-4.351.516a8.51 8.51 0 0 1-5.252-2.752c2.642-2.583 5.768-4.148 9.05-2.484 1.374.714 1.71 3.602.553 4.72Z" fill="#728F64"/><path d="M252.986 253.071c-.385-1.41-4.972-2.031-6.216-1.863-2.032.316-2.747 2.347-3.375 4.316-.621 1.863-.652 3.627 1.511 4.242a8.756 8.756 0 0 0 5.383-.273c-2.251 4.695 1.765 4.26 3.35 4.577 3.418.671 5.271.969 5.271-3.068-.491 3.366 6.787 4.577 8.64 2.77 2.647-2.571-2.008-4.813-3.978-5.627 1.995.037 5.656.758 7.402-.354 1.244-.814 1.735-3.354.908-4.577-1.809-2.69-7.639-1.007-9.504 1.111 1.106-1.341 2.343-4.689 1.343-5.999-1.492-1.95-4.774-1.777-6.956-1.864-2.181-.086-4.506.367-4.773 2.795-.162 1.59.92 1.87.994 3.814Z" fill="#7BC8CB"/><path d="M257.586 253.431a4.766 4.766 0 0 0-3.064.621c-1.635 1.031-2.114 2.77-.541 4.137 1.865 1.633 6.62 2.18 8.186-.156 1.162-1.732-.361-3.105-1.865-3.838a8.433 8.433 0 0 0-2.716-.764Z" fill="#FFCE44"/><path d="M236.788 246.742c.833 2.261 2.269 3.963 2.486 6.453.253 2.35-.1 4.725-1.026 6.9-2.187 4.969-3.729 8.813-3.729 14.353 0 3.006.827 4.553 2.921 6.478.097-.136.167-.29.206-.453" stroke="#728F64" stroke-width="2" stroke-linecap="round" stroke-linejoin="round"/><path d="M239.529 226.408c6.098-7.018-13.14-10.559-18.131-7.751-8.566 4.788 1.063 12.328 7.179 12.247-4.886-1.347-19.331 2.634-14.62 10.422 3.003 4.969 13.986 4.217 16.565-1.416-5.078 5.503 5.675 8.608 8.267 9.012 5.439.851 12.133-2.516 7.08-8.074 3.381 2.484 14.756 5.701 16.733-.317 1.976-6.018-7.347-7.186-11.064-7.006 22.998-9.086-16.466-19.589-12.009-7.099" fill="#21B5B8"/><path d="M232.953 237.525c2.958 1.578 10.61 3.106 13.053 0 4.351-5.496-4.55-10.204-9.1-9.266-4.55.938-10.766 5.639-3.953 9.266Z" fill="#FFCE44"/><path d="M273.784 220.185c-4.861 7.918 11.909 10.266 16.372 6.689 7.658-6.124-9.093-10.9-9.093-10.9s15.613 2.298 13.544-7.683c-1.175-5.67-15.322-6.832-16.938-.882 4.096-6.26-7.018-7.558-9.641-7.534-5.507.056-11.555 4.472-5.65 9.143-3.729-1.864-15.496-3.199-16.453 3.055-.957 6.255 8.429 5.888 12.059 5.099-21.19 12.733 21.587 17.254 15.141 5.665" fill="#7BC8CB"/><path d="M275.655 210.161c-3.176-1.069-10.977-1.336-12.885 2.13-3.382 6.13 6.159 9.316 10.492 7.652 4.332-1.665 9.709-7.323 2.393-9.782Z" fill="#FFCE44"/><path d="M211.347 249.76c-.591-1.341-5.246-1.242-6.415-.9-1.964.621-4.867 1.733-5.196 3.77-.311 1.925 2.399 4.683 4.624 4.968a8.707 8.707 0 0 0 5.284-1.068c-1.529 4.969 2.486 4.969 3.698 4.969 2.412 0 5.656-.758 5.053-4.752 0 3.398 6.042 4.317 7.609 2.255 2.231-2.938-1.722-5.08-3.792-5.59 2.735.441 6.11.671 7.664-.683 1.137-.994 1.187-4.515.186-5.59-2.188-2.391-9.845-.211-11.381 2.162.895-1.491 6.284-3.012 2.58-5.782-1.964-1.472-5.594-1.435-7.745-1.187-2.15.249-5.445 1.348-5.339 3.789.062 1.534 1.119 2.546 3.17 3.639Z" fill="#7BC8CB"/><path d="M216.351 249.332a4.769 4.769 0 0 0-3.065.621c-1.634 1.031-2.113 2.77-.54 4.13 1.864 1.633 6.619 2.186 8.186-.155 1.162-1.733-.361-3.106-1.865-3.839a8.436 8.436 0 0 0-2.716-.757Z" fill="#FFCE44"/><path d="M408.535 169.679c7.521 0 19.268-.826 21.326-8.522 2.94-11.08-8.559-20.775-16.888-25.265-10.163-5.472-26.162-6.9-37.643-3.913-5.911 1.541-19.088 6.609-21.605 12.422-4.351 10.117 9.478 20.216 17.646 21.023 0 0-8.528 6.087-6.701 6.087 1.828 0 7.31 4.26 22.545 6.086 15.235 1.826 22.538 3.044 26.193.622l-4.873-8.54Z" fill="#F9C5B8"/><path d="M391.522 136.712c-10.268-3.143-14.296-.286-19.343-1.466 3.655.509 6.837 3.18 14.918 5.869-4.898 2.696-14.57 7.168-18.61 10.279 10.287-3.18 17.404-5.72 25.254-5.913 4.762-.118 15.664 7.677 19.07 11.801-3.673-7.099-9.622-11.179-13.476-13.782 5.545-.95 13.768 2.578 19.35 2.28-7.098-5.385-12.525-5.037-15.744-5.907-3.456-.925-4.097-4.714-5.557-8.285-.585-.385-2.543 0-3.183-.242-.155 1.683-2.94 4.248-2.679 5.366Z" fill="#F4A698"/><path d="M373.863 171.741c-6.097-.23-7.023 1.006-9.945 5.918-6.216 10.41-9.205 12.335-21.27 12.615-4.78.142-9.79.552-13.675 3.583-1.305.938-2.486 2.068-3.785 3.161-5.19 4.572-11.499 7.099-18.448 6.739 6.837-.074 12.829-2.882 17.621-7.664 3.854-4.049 7.378-6.763 13.053-7.633 4.699-.913 10.107-.677 14.377-2.428 2.947-1.1 4.687-3.541 6.216-6.112 1.2-1.981 2.424-4.391 3.549-6.471a12.146 12.146 0 0 1 3.798-4.565c2.418-1.721 5.793-2.05 8.447-2.112v4.969h.062Z" fill="#F9C5B8"/><path d="M381.888 173.691c-7.701.286-11.586 1.124-12.972 9.316-.504 6.559 1.529 12.552-6.589 15.036-4.015 1.243-7.969 2.286-11.567 4.466a14.368 14.368 0 0 0-5.638 5.714c-.933 1.714-1.896 3.944-.765 5.764a3.63 3.63 0 0 0 1.585 1.285 3.73 3.73 0 0 1-1.715-1.192c-1.337-1.82-.497-4.298.342-6.143a15.825 15.825 0 0 1 3.81-5.186 31.127 31.127 0 0 1 5.383-3.478c2.442-1.366 5.246-2.198 7.776-3.261 2.368-1.037 4.201-2.093 4.282-4.968.243-3.106-.621-6.304-.205-9.546.622-4.478 2.592-8.906 7.042-10.77 2.891-1.279 5.843-1.627 8.852-1.999l.379 4.968v-.006Zm6.924-.888a.816.816 0 0 0 .037.621c.871 1.813 2.754 3.372 3.108 5.695.783 4.403-1.933 6.981-4.972 9.316-4.817 3.994-11.419 5.944-15.104 11.093-2.605 3.726.683 7.72.845 11.987.024.536.007 1.074-.05 1.608-.242 1.863-.827 3.664-1.15 5.453-.217 1.242-.298 2.64.355 3.789a6.131 6.131 0 0 0 3.008 2.484c-3.002-1.006-4.413-3.186-3.978-6.36.261-2.701 1.119-5.353.485-7.807a25.568 25.568 0 0 0-1.243-3.726c-4.575-9.639 6.023-14.596 12.288-19.44a35.456 35.456 0 0 0 2.915-2.534c1.672-1.615 2.971-2.733 2.387-5.012-.441-1.348-2.965-3.341-3.499-5.267a5.99 5.99 0 0 1-.274-2.59l4.923.727-.081-.037Z" fill="#F9C5B8"/><path d="M391.522 170.734c4.488 1.106 9.243 2.621 12.798 5.919a9.748 9.748 0 0 1 3.174 7.021 9.76 9.76 0 0 1-2.913 7.134c-2.219 2.329-4.717 3.857-6.8 5.695-2.051 1.727-3.592 3.962-3.729 6.652-.162 5.006 6.626 6.906 9.597 10.123 2.101 2.205 1.753 5.664 3.879 7.801.536.478 1.174.83 1.864 1.031a4.87 4.87 0 0 1-1.976-.913c-2.263-1.919-2.213-5.391-4.351-7.36-2.947-2.515-6.838-3.608-9.461-6.658-3.108-3.9-.814-9.465 2.437-12.477 2.138-2.155 4.512-3.894 6.166-5.925 3.593-4.578 1.324-8.95-3.86-11.037a33.173 33.173 0 0 0-7.832-2.13l.976-4.876h.031Z" fill="#F9C5B8"/><path d="M404.084 172.691c9.566 2.484 13.594 7.198 11.344 17.272-.516 2.342-1.2 4.522-1.56 6.689a58.145 58.145 0 0 1-.622 3.428 11.255 11.255 0 0 0-.242 3.106c.472 2.006 2.567 3.205 4.276 4.223 3.015 1.795 6.216 2.708 9.572 3.758.833.261 1.554.782 2.424.894.137.031.305 0 .423.124 0 .18-.162.249-.255.348.33-.335.286-.391-.174-.397-.87-.031-1.672-.491-2.486-.671-1.107-.292-2.238-.503-3.375-.739-3.649-.814-11.133-3.106-12.208-7.161-.404-1.969-.062-3.671.093-5.515 0-5.845 4.171-15.391-2.38-18.763a23.743 23.743 0 0 0-5.998-1.777l1.187-4.825-.019.006Zm-14.048-2.845c-.988 4.348-6.532 5.919-9.578 8.379a4.128 4.128 0 0 0-1.423 2.646c-.33 2.229.068 4.279-.336 6.763-.41 3.596-3.375 6.397-6.471 7.745-5.594 2.571-11.188 3.664-11.536 10.956-.329 3 .298 6.273-1.243 9.099a10.688 10.688 0 0 1-3.232 3.366c-2.487 1.708-4.973 3.49-7.851 4.534a21.42 21.42 0 0 0 3.891-2.286c3.73-2.764 7.515-5 6.999-10.223-.087-3.105-.516-6.273.684-9.316 1.2-3.043 4.177-5.186 6.986-6.559 3.444-1.813 8.05-3.378 8.36-7.769.187-2.013-.354-4.534-.136-6.789a8.438 8.438 0 0 1 1.939-4.732c2.244-2.398 5.414-3.727 7.596-5.981l.242-.28c.075-.108.139-.222.193-.341 0 0-.056.056 0 .093l4.923.689-.007.006Zm6.142 3.305c.907 1.434 2.573 2.652 3.729 4.235 1.455 2 1.759 4.602 1.411 6.975-1.094 6.888-8.068 10.428-11.779 15.657-1.982 2.733-3.729 6.292-2.859 9.708a16.061 16.061 0 0 0 1.56 3.26c.939 1.64 1.902 3.634 1.666 5.621a9.237 9.237 0 0 1-4.164 6.292 3.282 3.282 0 0 1-1.865.391c3.238 0 6.066-5.67 4.973-8.465-.74-2.435-2.717-4.143-3.655-6.596-1.374-3.894.223-8.248 2.275-11.608a50.826 50.826 0 0 1 4.773-6.118c2.275-2.763 4.774-5.142 5.016-8.589a7.018 7.018 0 0 0-.373-2.82c-.901-1.863-3.3-3.012-4.711-4.969l3.984-2.974h.019Z" fill="#F9C5B8"/><path d="M325.635 251.102c4.712 8.484 1.778 21.738-1.137 30.433-.703 2.062-3.972 1.298-3.543-.832a65.684 65.684 0 0 0 2.082-14.024c.081-3.919-.249-7.826-1.802-11.434a7.601 7.601 0 0 0-.585-1.056c-2.094-3.106 2.685-6.112 4.973-3.106l.012.019Z" fill="#FFCE44"/><path d="M438.339 252.363c4.718 8.484 1.784 21.738-1.137 30.433-.697 2.062-3.972 1.298-3.537-.833a65.227 65.227 0 0 0 2.076-14.017c.087-3.926-.249-7.832-1.803-11.441a7.234 7.234 0 0 0-.584-1.055c-2.088-3.106 2.685-6.112 4.973-3.106l.012.019Z" fill="#F5A04C"/><path d="M404.693 251.86c4.718 8.484 1.784 21.738-1.137 30.433-.696 2.062-3.972 1.298-3.537-.832a65.182 65.182 0 0 0 2.07-14.012c.087-3.919-.249-7.826-1.803-11.434a7.457 7.457 0 0 0-.578-1.056c-2.094-3.105 2.679-6.117 4.973-3.105l.012.006Z" fill="#FFD872"/><path d="M344.283 255.382c-3.935 5.9-6.682 19.452-5.458 26.321.28 1.385-1.864 1.894-2.306.54-1.454-4.882-1.342-9.856-.975-14.825.285-3.755.96-7.47 2.013-11.086.403-1.349.949-2.65 1.629-3.882 2.107-3.553 7.509-.472 5.097 2.932Z" fill="#F5A04C"/><path d="M394.63 254.052c-3.935 5.901-6.682 19.453-5.458 26.328.28 1.379-1.864 1.863-2.312.534-1.448-4.882-1.336-9.856-.969-14.825a53.936 53.936 0 0 1 2.013-11.086 19.442 19.442 0 0 1 1.629-3.882c2.107-3.553 7.509-.472 5.097 2.931Z" fill="#FFCE44"/><path d="M354.893 263.735a26.477 26.477 0 0 1 2.71 18.011c-.354 1.752-3.108 1.516-3.108-.261a23.055 23.055 0 0 0-4.351-14.378 3.076 3.076 0 0 0-.236-.285 3.422 3.422 0 0 1-2.296-1.333 3.423 3.423 0 0 1-.583-1.222 3.422 3.422 0 0 1-.061-1.352c.522-3.049 4.972-3.807 6.651-1.174l1.274 1.975v.019Z" fill="#F5A488"/><path d="M376.431 258.654c-3.829 6.64-5.029 14.453-4.19 21.918.249 2.044-2.909 2.54-3.387.528a40.035 40.035 0 0 1 2.088-24.651c.081-.198.249-.503.367-.726a3.106 3.106 0 0 1 4.04-1.28 2.738 2.738 0 0 1 1.584 1.838 2.732 2.732 0 0 1-.502 2.373Z" fill="#FFCE44"/><path d="M351.344 258.462c-3.829 6.639-5.029 14.459-4.189 21.924.248 2.043-2.916 2.54-3.394.528a40.08 40.08 0 0 1 2.088-24.651c.087-.205.255-.503.367-.726a3.106 3.106 0 0 1 4.04-1.28 2.734 2.734 0 0 1 1.617 3.078 2.728 2.728 0 0 1-.529 1.127Z" fill="#F5A488"/><path d="M393.729 256.872c5.277 7.359 6.837 17.055 3.574 25.414-.821 2.186-4.295 1.286-3.786-.987a22.731 22.731 0 0 0 .815-8.441 24.224 24.224 0 0 0-5.296-12.552c-2.897-3.105 2.206-6.832 4.724-3.434h-.031Z" fill="#F5A04C"/><path d="M385.686 265.896c-2.841 3.677-3.438 8.726-3.233 13.248l.193 2.124v.136a2.068 2.068 0 0 1-.534 1.507 2.086 2.086 0 0 1-1.449.68 2.149 2.149 0 0 1-2.312-1.677 39.265 39.265 0 0 1-.702-4.739 25.07 25.07 0 0 1 1.864-12.223c.334-.749.731-1.468 1.188-2.149 2.25-3.416 7.502-.161 4.972 3.106l.013-.013Zm29.916-10.571c2.735 9.317 1.349 19.428-3.009 28.079-.777 1.64-3.406.764-2.89-.969a36.088 36.088 0 0 0 1.97-19.253 27.076 27.076 0 0 0-1.678-5.913c-1.902-3.819 4.301-6.018 5.594-1.962l.013.018Zm10.107-.739c3.052 1.515 3.642 5.223 4.034 8.037a33.439 33.439 0 0 1-4.656 20.036c-1.317 2.161-4.792.546-3.729-1.739a31.284 31.284 0 0 0 2.175-5.751 27.566 27.566 0 0 0 .69-11.863 10.829 10.829 0 0 0-1.243-3.664c-.087-.125-.161-.224-.186-.218.104.11.231.195.373.249-3.543-1.64-1.156-6.522 2.486-5.081l.056-.006Z" fill="#F5A488"/><path d="M365.932 252.506c3.052 1.515 3.643 5.223 4.034 8.037a33.439 33.439 0 0 1-4.637 20.036c-1.317 2.161-4.798.546-3.729-1.739a31.314 31.314 0 0 0 2.2-5.758 27.655 27.655 0 0 0 .69-11.862 10.733 10.733 0 0 0-1.243-3.665c-.081-.124-.155-.223-.18-.217.104.109.231.194.373.248-3.543-1.639-1.156-6.521 2.486-5.08h.006Z" fill="#F5A04C"/><path d="M450.709 260.828c1.541 6.168-.193 12.676-3.456 18.012-.411.757-1.188 1.763-1.679 2.484-.621.789-1.243 1.54-1.864 2.31a1.582 1.582 0 0 1-2.12.242 1.392 1.392 0 0 1-.56-1.457c.043-.18.121-.35.231-.499.478-.776.988-1.528 1.435-2.31l.622-1.187a25.218 25.218 0 0 0 2.231-6.173c.622-3.205.697-6.59-.472-9.67-1.175-3.547 4.245-5.217 5.65-1.733l-.018-.019Z" fill="#FFCE44"/><path d="M464.246 255.915c-2.542 8.497-3.536 17.726-1.305 26.377.671 2.435-3.108 3.485-3.959 1.087-3.108-9.384-2.698-19.47-.498-28.985 1.125-3.69 6.875-2.187 5.762 1.521Zm12.817.367c3.692 6.434 3.73 14.241 1.79 21.148a43.001 43.001 0 0 1-2.486 6.484c-.976 2.117-4.351.981-3.661-1.243 2.244-5.769 3.282-12.204 1.604-18.203a16.974 16.974 0 0 0-2.275-5.174c-2.139-3.192 2.803-6.174 5.034-3.025l-.006.013Z" fill="#F5A04C"/><path d="M308.99 250.052a58.493 58.493 0 0 0-2.486 15.415c-.063 5.186.69 10.447 3.151 15.13.771 1.404-1.361 2.565-2.287 1.242-3.226-4.875-4.662-10.558-5.172-16.222a62.244 62.244 0 0 1 .982-16.937c.982-3.776 6.869-2.385 5.799 1.385l.013-.013Z" fill="#FFCE44"/><path d="M455.072 233.556c3.046 3.727 5.271 8.36 4.879 13.142a31.574 31.574 0 0 1-1.454 6.447c-1.865 5.77-3.593 11.279-3.73 17.341a302.84 302.84 0 0 0-.373 12.092 2.032 2.032 0 0 1-4.052.037c-.075-6.21-.429-12.328.261-18.57.621-5.925 3.275-11.887 3.835-17.657.124-2.54-.951-4.969-2.356-7.13a17.883 17.883 0 0 0-1.616-2.112c-2.555-2.906 1.952-6.453 4.587-3.59h.019Z" fill="#F5A488"/><path d="M420.183 246.655c-1.43 3.963-1.057 8.372.392 12.31.317.758 1.1 2.571 1.417 3.304 1.566 3.764 2.592 8.148.708 12.005a29.128 29.128 0 0 1-2.84 4.348 11.501 11.501 0 0 0-1.896 3.832 1.64 1.64 0 0 1-1.97 1.143 1.537 1.537 0 0 1-1.243-1.727c.435-3.298 3.107-6.211 4.288-8.974 1.169-2.957-.068-6.211-1.411-8.925-.348-.659-1.336-2.609-1.684-3.292a23.663 23.663 0 0 1-2.045-13.08c.15-1.165.431-2.308.839-3.41 1.685-3.975 7.745-1.242 5.426 2.485l.019-.019Z" fill="#FFD872"/><path d="M472.631 240.419c3.425 4.565 4.55 10.695 2.567 15.981-1.715 4.099-4.798 8.434-4.761 12.769.072 1.494.28 2.979.621 4.435.31 1.766.244 3.577-.192 5.316a1.64 1.64 0 0 1-1.952 1.149 1.528 1.528 0 0 1-1.243-1.733 9.693 9.693 0 0 0-.155-4.117c-2.226-6.329-.566-11.434 2.169-17.279a12.139 12.139 0 0 0-1.654-12.924c-2.567-2.901 1.94-6.485 4.588-3.597h.012Zm-115.855-4.577c11.81 19.191.386 27.098 3.344 45.233a1.725 1.725 0 0 1-1.51 1.981 1.826 1.826 0 0 1-2.076-1.335c-1.865-7.546-.622-15.62.423-23.054.951-6.161-.572-12.205-3.792-17.589a25.795 25.795 0 0 0-1.386-2.162c-2.213-3.173 2.735-6.241 4.972-3.074h.025Zm30.52 2.944c-4.084 5.832-6.278 12.769-5.178 19.757.416 3.639 1.112 7.452 1.324 11.328a40.999 40.999 0 0 1-.901 11.726c-.12.457-.412.85-.815 1.096a1.827 1.827 0 0 1-1.349.221 1.713 1.713 0 0 1-1.429-1.932c1.405-7.391-.236-14.446-1.61-21.856-1.56-7.49.236-15.353 4.109-22.017.267-.459.497-.869.845-1.391a3.107 3.107 0 0 1 4.127-.907 2.694 2.694 0 0 1 1.351 2.933 2.683 2.683 0 0 1-.474 1.042Z" fill="#FFCE44"/><path d="M337.881 236.271a58.049 58.049 0 0 1-2.257 23.272 25.625 25.625 0 0 0-1.087 3.813c-.933 5.838-.746 11.869-.454 17.769.118 2.168-3.276 2.484-3.58.298a98.498 98.498 0 0 1-.622-17.185 27.23 27.23 0 0 1 1.137-5.863 53.653 53.653 0 0 0 .964-21.278c-.572-3.727 5.271-4.596 5.917-.826h-.018Z" fill="#F5A488"/><path d="M326.183 233.457c-3.32 4.609-6.645 10.124-6.975 15.714a33.65 33.65 0 0 0 .336 5.813c.659 4.099 2.244 8.801 1.666 13.154a39.229 39.229 0 0 1-4.053 12.857c-1.355 2.552-5.463 1.006-4.531-1.715 1.765-5.726 3.574-11.353 2.213-17.148-2.605-10.098-3.002-17.017 2.66-26.364a47.986 47.986 0 0 1 3.904-5.683c2.486-2.882 7.073.341 4.78 3.372Z" fill="#F5A04C"/><path d="M461.207 259.412c-4.718 6.882-1.784 17.626 1.137 24.688.696 1.671 3.972 1.05 3.537-.677-1.088-3.627-2.014-7.652-2.076-11.366-.087-3.18.249-6.347 1.802-9.272.167-.303.361-.59.579-.858 2.094-2.534-2.679-4.968-4.973-2.515h-.006Z" fill="#FFCE44"/><path d="M349.106 257.878c-4.718 6.882-1.784 17.626 1.138 24.688.696 1.671 3.972 1.056 3.536-.671-1.087-3.633-2.013-7.658-2.076-11.372-.087-3.18.249-6.347 1.803-9.272a5.77 5.77 0 0 1 .578-.857c2.095-2.534-2.679-4.969-4.973-2.485l-.006-.031Z" fill="#F5A04C"/><path d="M384.517 258.797c-4.717 6.882-1.784 17.626 1.138 24.688.696 1.671 3.972 1.056 3.537-.671-1.088-3.633-2.021-7.645-2.077-11.372-.087-3.18.249-6.347 1.803-9.272a5.77 5.77 0 0 1 .578-.857c2.095-2.534-2.679-4.969-4.972-2.516h-.007Z" fill="#FFD872"/><path d="M441.285 262.778c3.941 4.783 6.688 15.776 5.457 21.347-.279 1.118 1.865 1.534 2.313.441 1.448-3.963 1.336-7.994.969-12.024a36.37 36.37 0 0 0-2.014-8.994 14.48 14.48 0 0 0-1.622-3.142c-2.107-2.882-7.515-.385-5.103 2.372Z" fill="#F5A04C"/><path d="M394.35 261.306c3.388 5.186 4.923 16.409 3.108 21.812-.398 1.087 1.678 1.733 2.25.69 1.865-3.783 2.207-7.801 2.281-11.844a36.563 36.563 0 0 0-1.019-9.155 14.623 14.623 0 0 0-1.243-3.304c-1.784-3.105-7.459-1.205-5.333 1.801h-.044Z" fill="#FFCE44"/><path d="M433.168 268.337a17.958 17.958 0 0 0-2.717 14.62c.355 1.416 3.108 1.242 3.108-.217a16.368 16.368 0 0 1 4.351-11.658c.071-.092.148-.179.23-.261 1.971-.26 3.288-1.676 2.947-3.167-.529-2.484-5.01-3.105-6.657-.95l-1.262 1.633Z" fill="#F5A488"/><path d="M411.518 265.437a24.53 24.53 0 0 1 4.189 17.806c-.248 1.652 2.909 2.056 3.388.422a26.8 26.8 0 0 0-2.088-20.017c-.081-.161-.249-.404-.367-.59-.74-1.13-2.549-1.596-4.04-1.037-1.679.621-2.207 2.292-1.082 3.416Z" fill="#FFCE44"/><path d="M436.605 265.281a24.537 24.537 0 0 1 4.189 17.776c-.249 1.658 2.915 2.062 3.394.428a26.808 26.808 0 0 0-2.089-19.992c-.087-.162-.254-.404-.366-.59-.74-1.131-2.549-1.597-4.041-1.038-1.684.622-2.212 2.292-1.087 3.416Z" fill="#F5A488"/><path d="M392.703 263.275c-5.271 5.969-6.837 13.832-3.574 20.608.821 1.776 4.301 1.043 3.785-.802a15.02 15.02 0 0 1-.808-6.832 17.902 17.902 0 0 1 5.321-10.179c2.903-2.484-2.207-5.521-4.724-2.782v-.013Z" fill="#F5A04C"/><path d="M401.256 270.082c2.834 2.982 3.437 7.074 3.232 10.739l-.192 1.726v.106c-.1.907.783 1.696 1.976 1.776 1.194.081 2.126-.534 2.319-1.36.325-1.261.56-2.544.702-3.838a16.884 16.884 0 0 0-1.865-9.937 11.62 11.62 0 0 0-1.187-1.746c-2.25-2.77-7.502-.13-4.972 2.485l-.013.049Zm-27.896-10.049c-2.741 7.534-1.355 15.751 3.008 22.769.777 1.329 3.407.621 2.884-.783a24.208 24.208 0 0 1-1.964-15.601 18.42 18.42 0 0 1 1.679-4.795c1.895-3.105-4.302-4.875-5.595-1.59h-.012Zm-12.861-.354c-3.052 1.242-3.636 4.242-4.027 6.521-.69 5.646 1.093 11.304 4.636 16.248 1.318 1.751 4.793.441 3.73-1.416a22.365 22.365 0 0 1-2.194-4.664 18.36 18.36 0 0 1-.696-9.621 7.907 7.907 0 0 1 1.243-2.975c.087-.093.161-.174.186-.174a.99.99 0 0 1-.373.205c3.543-1.329 1.156-5.285-2.486-4.124h-.019Z" fill="#F5A488"/><path d="M422.016 260.449c-3.052 1.242-3.642 4.236-4.034 6.515-.683 5.652 1.094 11.304 4.637 16.248 1.318 1.751 4.799.441 3.73-1.41a22.6 22.6 0 0 1-2.201-4.671 18.366 18.366 0 0 1-.69-9.62 7.706 7.706 0 0 1 1.243-2.969c.081-.099.156-.18.181-.18a.912.912 0 0 1-.373.205c3.543-1.329 1.156-5.285-2.486-4.118h-.007Z" fill="#F5A04C"/><path d="M338.415 262.636c-2.381 4.776-1.573 10.198.914 14.837.304.652.938 1.547 1.324 2.18.491.708 1.032 1.385 1.547 2.075a1.803 1.803 0 0 0 2.064.428 1.023 1.023 0 0 0 .769-1.076 1.036 1.036 0 0 0-.147-.452c-.367-.677-.765-1.341-1.101-2.018l-.453-1.025a17.167 17.167 0 0 1-1.349-5.211c-.149-2.639.23-5.366 1.815-7.714 1.659-2.714-3.475-4.664-5.358-2.024h-.025Z" fill="#FFCE44"/><path d="M324.598 259.841c2.542 6.894 3.536 14.378 1.305 21.39-.671 1.981 3.108 2.825 3.959.881 3.108-7.608 2.698-15.787.498-23.501-1.125-2.988-6.875-1.77-5.762 1.242v-.012Zm-14.091-.112c-3.692 5.217-3.73 11.546-1.79 17.148a31.168 31.168 0 0 0 2.486 5.26c.976 1.715 4.351.795 3.661-1-2.244-4.676-3.282-9.893-1.604-14.763a12.671 12.671 0 0 1 2.281-4.192c2.132-2.59-2.809-5.006-5.04-2.453h.006Z" fill="#F5A04C"/><path d="M480.948 259.468a39.327 39.327 0 0 1 2.486 12.502c.062 4.205-.69 8.472-3.151 12.267-.771 1.136 1.361 2.08 2.281 1 3.232-3.957 4.668-8.571 5.178-13.155.444-4.6.112-9.242-.982-13.732-.989-3.062-6.869-1.938-5.799 1.118h-.013Z" fill="#FFCE44"/><path d="M330.099 241.966c-3.046 3.019-5.265 6.776-4.88 10.652a21.893 21.893 0 0 0 1.455 5.229c1.864 4.677 3.592 9.142 3.729 14.061.205 3.255.317 6.54.373 9.807 0 .851.926 1.54 2.051 1.528 1.125-.012 1.971-.677 2.002-1.497.068-5.049.422-9.999-.268-15.061-.621-4.801-3.269-9.639-3.835-14.285-.118-2.074.945-4.062 2.369-5.801a15.077 15.077 0 0 1 1.616-1.708c2.554-2.36-1.946-5.235-4.588-2.912l-.024-.013Zm37.803 10.95c1.436 3.211 1.063 6.788-.391 9.98-.311.621-1.094 2.081-1.411 2.683-1.567 3.05-2.598 6.602-.715 9.733a23.607 23.607 0 0 0 2.847 3.521 8.892 8.892 0 0 1 1.865 3.105 1.694 1.694 0 0 0 1.97.926c.833-.155 1.355-.77 1.243-1.398-.441-2.676-3.108-5.036-4.289-7.279-1.175-2.397.062-5.012 1.405-7.235.348-.534 1.336-2.118 1.684-2.671a15.97 15.97 0 0 0 2.045-10.602 10.208 10.208 0 0 0-.839-2.763c-1.678-3.224-7.738-1-5.426 2h.012Z" fill="#FFD872"/><path d="M314.298 249.5c-3.425 3.695-4.55 8.664-2.561 12.949 1.716 3.329 4.799 6.832 4.761 10.36a16.759 16.759 0 0 1-.621 3.596 8.394 8.394 0 0 0 .192 4.31 1.693 1.693 0 0 0 1.946.932c.851-.149 1.392-.77 1.243-1.41a6.339 6.339 0 0 1 .155-3.335c2.226-5.13.566-9.273-2.169-14.012-2.07-3.41-1.305-7.515 1.647-10.484 2.574-2.347-1.933-5.254-4.587-2.906h-.006Zm116.619-4c-11.809 15.564-.379 21.974-3.337 36.681-.181.758.503 1.484 1.51 1.602a1.863 1.863 0 0 0 2.076-1.08c1.865-6.124.622-12.67-.429-18.695-.945-4.968.578-9.894 3.792-14.285.433-.607.898-1.192 1.392-1.751 2.207-2.571-2.741-5.056-4.973-2.484l-.031.012Zm-27.865 2.491c4.084 4.726 6.272 10.353 5.178 16.017-.422 2.95-1.119 6.025-1.324 9.186a27.125 27.125 0 0 0 .902 9.509c.205.745 1.174 1.242 2.163 1.068.988-.174 1.578-.845 1.423-1.565-1.399-5.994.236-11.72 1.616-17.726 1.56-6.074-.242-12.421-4.109-17.85a17.419 17.419 0 0 0-.851-1.13 3.584 3.584 0 0 0-4.096-.764c-1.461.683-1.865 2.168-.877 3.23l-.025.025Zm47.016-.454c-.907 6.447 0 12.67 2.256 18.868.457 1 .821 2.04 1.088 3.106.933 4.732.746 9.627.454 14.409-.118 1.757 3.282 2 3.58.242.622-4.646 1.038-9.254.622-13.937a18.334 18.334 0 0 0-1.138-4.751 35.53 35.53 0 0 1-.963-17.254c.572-3.043-5.271-3.726-5.917-.67l.018-.013Z" fill="#FFCE44"/><path d="M461.76 245.003c3.319 3.727 6.645 8.205 6.974 12.738a22.164 22.164 0 0 1-.335 4.714c-.659 3.323-2.244 7.143-1.666 10.671.54 3.726 2.026 7.049 4.059 10.421 1.355 2.075 5.457.82 4.525-1.385-1.766-4.645-3.574-9.204-2.213-13.906 2.604-8.192 3.008-13.8-2.661-21.377a39.298 39.298 0 0 0-3.897-4.627c-2.486-2.336-7.073.273-4.78 2.732l-.006.019Z" fill="#F5A04C"/><path d="M263.808 277.032c0-3.447 0-4.851 2.996-7.142 2.598-2.006 5.898-2.926 9.006-3.938 5.886-1.907 16.783-4.049 21.979.485 2.256 1.956 1.865 4.558 2.256 7.067.448 2.715 1.138 3.957-.87 5.932-3.829 3.77-10.225 3.024-15.036 2.161-6.638-1.192-13.214-1.242-20.014-1.559-.429-.919-.97-1.764-.317-3.006Zm-48.141 1.062c1.212-4.478.852-8.136-4.22-9.316-4.389-.994-7.956.503-11.773 1.969-2.996 1.149-15.862-.249-13.581 6.477 1.498 4.41 11.281 2.814 15.141 2.814 2.803.025 13.327 2.441 14.433-1.944Z" fill="#DADADA"/><path d="M225.761 270.504c-4.065-.857-14.165-.906-12.941 5.59 3.313 1.807 15.502 7.962 18.299 2.31 2.008-4.074-3.76-6.9-5.358-7.9Z" fill="#B2B2B2"/><path d="M236.912 281.641c4.923.503 16.87-.839 14.47-8.727-4.17-1.782-19.48-7.744-21.96-.335-1.777 5.329 5.464 8.037 7.49 9.062Z" fill="#DADADA"/><path d="M247.814 279.038c0-1.242 0-1.782.547-2.621a4.817 4.817 0 0 1 1.635-1.441c1.069-.702 3.046-1.484 3.997.174.41.721.336 1.677.41 2.59.075.913.205 1.453-.161 2.174-.697 1.385-1.865 1.112-2.729.795a14.089 14.089 0 0 0-3.636-.572 2.005 2.005 0 0 1-.063-1.099Z" fill="#B2B2B2"/><path d="M1150.24 260.157c-.23-8.515 7.1-20.079 14.3-25.433-2.7 8.037-6.68 15.614-6.59 24.309.05 4.857 5.17 21.738-3.34 22.073m13.33-31.755c2.88 7.496 4.48 20.154 2.86 27.259-1.14 5.024.5 14.011 5.97 5.999 5.9-8.639-.28-27.936-8.83-33.258Z" fill="#2FAC66"/><path d="M1141.29 257.158a46.743 46.743 0 0 0-8.5 17.079c-.74 2.888-2.29 14.366 5.17 10.646 3.95-1.969.62-10.559.62-13.844.1-4.161 2.42-11.596 2.71-13.881Zm40.44 1.751c1.76 6.497 2.91 10.459.72 18.49-.78 2.869-.46 9.173 5.27 7.291 5.73-1.882.49-20.645-5.99-25.781Zm-13.14 25.502c-7.35 2.844-8.96-7.137-8.97-10.391 0-5.099.25-15.49 1.58-20.185 2.35 9.049 3.58 14.906 6.84 18.875 0 0 2.73 3.838 2.17 7.639s-1.62 4.062-1.62 4.062Z" fill="#6FBC85"/><path d="M1187.44 284.529c1.36 5.459 9.48-2.857 9.75-5.981.49-5.714 1.16-10.329-.11-18.471-2.06 5.5-4.4 10.89-7.02 16.148 0 0-3.5 4.819-2.62 8.304Z" fill="#2FAC66"/><path d="M1150.13 285.361a3.81 3.81 0 0 1-4.31-2.981c-.86-5.329 1.12-11.677.18-20.949-.52-5.155-5.14-9.546-6.45-14.335 7.2 6.18 12.38 11.558 14.62 20.384 1.26 5.049 3 16.955-4.04 17.881Z" fill="#6FBC85"/><path d="M858.323 261.902c-.23-8.521 7.099-20.085 14.296-25.433-2.703 8.031-6.688 15.614-6.594 24.309.049 4.857 5.171 21.738-3.345 22.073m13.352-31.755c2.878 7.49 4.475 20.154 2.859 27.253-1.144 5.024.503 14.011 5.973 6.005 5.899-8.639-.286-27.917-8.832-33.258Z" fill="#2FAC66"/><path d="M849.379 258.878a46.859 46.859 0 0 0-8.497 17.08c-.746 2.894-2.294 14.365 5.171 10.645 3.947-1.963.622-10.558.622-13.838.106-4.142 2.412-11.577 2.704-13.887Zm40.439 1.77c1.759 6.496 2.915 10.459.721 18.49-.777 2.875-.46 9.179 5.271 7.291s.491-20.639-5.992-25.781Zm-13.14 25.508c-7.347 2.844-8.957-7.136-8.969-10.391 0-5.099.255-15.496 1.585-20.185 2.35 9.043 3.574 14.906 6.837 18.868 0 0 2.729 3.839 2.169 7.64-.559 3.801-1.622 4.068-1.622 4.068Z" fill="#6FBC85"/><path d="M895.531 286.273c1.367 5.46 9.485-2.863 9.752-5.987.491-5.714 1.156-10.322-.112-18.471a168.3 168.3 0 0 1-7.017 16.148s-3.5 4.826-2.623 8.31Z" fill="#2FAC66"/><path d="M858.217 287.1a3.808 3.808 0 0 1-4.307-2.981c-.858-5.323 1.119-11.677.18-20.943-.522-5.161-5.134-9.546-6.445-14.335 7.197 6.174 12.375 11.552 14.613 20.378 1.28 5.049 3.002 16.955-4.041 17.881Z" fill="#6FBC85"/><path d="M918.808 190.013c4.04-.59 6.371-1.969 7.061-2.721 2.897-3.18 1.318-6.496-3.269-9.397-6.937-4.391-26.728-9.769-36.772-.323-3.444 3.236 2.616 9.205 7.67 9.677 0 0-5.812 3.944-4.569 3.944 1.243 0 4.973 2.763 15.353 3.944 10.38 1.18 15.353 1.975 17.845.397l-3.319-5.521Z" fill="#5C4973"/><path d="M894.766 192.566c-4.034-.162-4.836.59-6.838 3.869-1.864 2.907-4.021 6.378-7.639 7.322-4.475 1.323-9.019.249-13.314 1.671-2.088.677-3.729 2.118-5.42 3.522a17.894 17.894 0 0 1-12.506 4.31 17.477 17.477 0 0 0 11.971-4.938c1.629-1.54 3.351-3.211 5.52-4.055 4.171-1.721 9.007-1.006 13.053-2.485 3.555-1.242 4.973-5.198 6.837-8.21 1.666-3.342 4.842-4.348 8.292-4.348v3.342h.044Z" fill="#5C4973"/><path d="M899.894 192.156c-1.865.068-3.661.13-5.091.695-2.244.851-3.549 3.261-3.779 5.59 0 4.813.516 8.273-5.165 9.72-2.71.82-5.539 1.317-8.081 2.428a21.505 21.505 0 0 0-8.633 7 21.863 21.863 0 0 1 8.279-7.745c2.567-1.335 5.339-2.031 7.993-3.049 3.015-1.025 3.941-2.336 3.587-5.522-.777-4.186.497-9.08 4.662-11.03 2.057-.969 4.146-1.124 6.016-1.348l.243 3.292-.031-.031Z" fill="#5C4973"/><path d="M902.79 191.944s-.049.155.131.491c.715 1.304 2.194 2.552 2.486 4.211.504 2.434-1.038 4.347-2.89 5.633-3.35 2.789-7.714 3.925-10.523 7.204-2.412 2.609.621 5.839.317 8.851-.044 2.018-2.536 2.354-4.09 2.59-2.163.285-4.351.372-6.465.621-2.152.184-4.27.648-6.302 1.379 4.009-1.727 8.478-1.795 12.686-2.485 1.243-.304 3.474-.497 3.456-2.111 0-2.187-1.529-3.988-1.772-6.211-.385-5.59 7.851-8.372 11.114-11.739 1.013-.888 2.157-1.919 1.579-3.316-.622-1.087-1.623-1.832-2.337-3.019a3.916 3.916 0 0 1-.622-2.596l3.263.51-.031-.013Z" fill="#5C4973"/><path d="M914.147 192.224c2.685 2.329 4.195 6.179 3.058 9.645-1.349 3.621-5.595 3.907-8.702 3.652a7.312 7.312 0 0 0-6.794 3c-1.436 2.298-2.331 5.589-5.259 6.546-3.617 1.242-7.458 1.323-11.188 1.82 4.065-.789 8.572-.752 12.202-2.895 1.864-1.534 2.212-3.962 3.35-6.043a9.036 9.036 0 0 1 7.633-4.347c2.101-.149 5.202-.267 5.731-2.634.36-2.049-.815-4.254-2.487-5.422l2.487-3.298-.031-.024Z" fill="#5C4973"/><path d="M920.132 193.516c5.072 4.086 5.594 8.589.678 13.21-2.362 2.012-4.351 3.689-5.52 6.577l-.914 2.05c-1.678 3.515-5.196 5.67-8.447 7.397 2.486-1.627 4.973-3.453 6.539-5.888 1.598-2.602 1.821-5.733 3.804-8.204 1.622-2.156 3.686-3.491 4.761-5.882.659-1.329.809-2.888-.068-4.031a12.052 12.052 0 0 0-2.89-2.646l2.057-2.583Zm-17.422-2.472c-.491 2.254-2.829 3.198-4.525 4.248-1.2.745-2.443 1.124-2.847 2.484-.404 1.36 0 3.174-.299 4.826a6.146 6.146 0 0 1-1.187 2.695c-5.19 7.056-10.933 9.689-19.498 10.49 7.005-1.378 12.182-3.633 16.39-9.651.802-1.18 1.865-2.485 1.977-3.863.155-1.646-.354-3.286.031-5.118.311-2.043 2.312-3.459 3.885-4.416.938-.621 2.449-1.627 2.809-2.18l3.264.478v.007Zm5.96 2.204c1.051 1.429 3.251 2.851 3.481 4.932.883 4.552-2.841 7.453-5.743 10.161-1.933 1.863-3.661 3.813-4.196 6.434a4.631 4.631 0 0 1-1.243 2.733c-1.15 1.08-2.586 1.54-2.418 3.217a.858.858 0 0 1-.174.453c-1.529 1.491-3.81 1.864-5.768 2.485a21.891 21.891 0 0 1-5.433.875c2.735-.149 5.395-1.087 7.944-2.031.994-.447 2.113-.832 2.816-1.652a.388.388 0 0 0 .068-.174 2.79 2.79 0 0 1 .317-1.832c.566-.913 1.423-1.385 1.927-2.031a3.567 3.567 0 0 0 .752-2.267c.122-.976.383-1.93.777-2.832 1.131-2.627 3.263-4.707 5.091-6.782 1.317-1.497 2.753-3.105 2.666-5.13a2.887 2.887 0 0 0-1.243-2.484 16.057 16.057 0 0 1-2.213-2.037l2.598-2.044-.006.006Z" fill="#5C4973"/><path d="M909.199 176.417a5.593 5.593 0 0 1 3.157-1.726 7.087 7.087 0 0 0-5.432.49 4.306 4.306 0 0 0-.808-.08h-.162c-1.517-1.069-3.425-2.212-5.333-1.777 1.243.466 2.001 1.621 2.53 2.814a55.67 55.67 0 0 0-4.873.472c-2.269.428-4.768.751-6.639 2.192 2.07-.963 4.476-.727 6.701-.621 2.258.199 4.503.522 6.725.969.172.041.347.072.522.093.97 1.422.255 3.435-.547 4.925 1.66-1.074 3.065-2.844 3.245-4.838l1.168.087c3.382.373 7.167 1.969 8.224 5.509-.255-4.466-4.538-7.198-8.478-8.509Z" fill="#A499B3"/><path d="M1348.96 277.206c-1.06 2.205-1.77 7.683-1.87 11.428-.02.677.19 1.34.6 1.879.41.538 1 .919 1.66 1.077 2.48.621 5.76.845 8.03-.149 2.27-.994 1.63-4.348 1.46-6.937-.33-4.826-4.1-10.112-9.88-7.298Z" fill="#CEC0AE"/><path d="M1349.74 263.927c-6.06 0-15.68 7.571-9.89 13.13 4.42 4.248 15.51 3.161 20.9 2.161 3.88-.72 10-2.534 8.36-7.813-.86-2.795-5.06-4.832-7.66-5.95a20.104 20.104 0 0 0-11.71-1.528Z" fill="#EBDECE"/><path d="M1360.43 272.827c0 .146-.03.291-.11.416-.09.152-.21.279-.36.37a1.046 1.046 0 0 1-1 .042 1.04 1.04 0 0 1-.4-.337.992.992 0 0 1-.1-.448c0-.156.04-.308.12-.445a.959.959 0 0 1 .74-.492c.13-.017.27-.006.4.03.12.037.24.099.35.182.1.084.18.187.25.304a1 1 0 0 1 .11.378Zm1.87-2.391c.01.13-.03.258-.1.367a1.04 1.04 0 0 1-.35.326 1.027 1.027 0 0 1-.93.038 1.005 1.005 0 0 1-.38-.296.843.843 0 0 1-.1-.412c0-.144.04-.285.11-.41a.786.786 0 0 1 .3-.303.816.816 0 0 1 .41-.117.877.877 0 0 1 .36.019.925.925 0 0 1 .57.439c.06.108.1.227.11.349Zm1.4 3.317c0 .107-.03.213-.09.304a.793.793 0 0 1-.29.276.868.868 0 0 1-.39.112.814.814 0 0 1-.39-.077.794.794 0 0 1-.32-.249c-.29-.484.11-.95.62-1.031.2-.023.4.034.56.158.17.124.27.306.3.507Z" fill="#F8F2EB"/><path d="M1401.73 280.827c-.86 1.807-1.44 6.279-1.54 9.316-.02.556.16 1.1.5 1.54.34.44.82.747 1.37.87 2.05.49 4.7.689 6.55-.118 1.86-.808 1.33-3.534 1.2-5.664-.27-3.919-3.36-8.236-8.08-5.944Z" fill="#CEC0AE"/><path d="M1402.38 269.989c-4.97 0-12.81 6.18-8.08 10.72 3.61 3.465 12.66 2.584 17.07 1.764 3.16-.584 8.16-2.068 6.83-6.379-.7-2.279-4.13-3.944-6.25-4.857-3-1.363-6.33-1.798-9.57-1.248Z" fill="#EBDECE"/><path d="M1411.1 277.256c.01.12-.02.238-.09.341a.831.831 0 0 1-.29.299.92.92 0 0 1-.41.121.854.854 0 0 1-.73-.358.78.78 0 0 1-.09-.366c0-.128.03-.253.1-.364a.813.813 0 0 1 .25-.277.798.798 0 0 1 .36-.123.777.777 0 0 1 .32.024c.1.029.2.079.29.147a.824.824 0 0 1 .29.556Zm1.53-1.957a.54.54 0 0 1-.08.304.869.869 0 0 1-.29.266.835.835 0 0 1-.76.031.825.825 0 0 1-.31-.241c-.28-.472.11-.925.59-1a.763.763 0 0 1 .56.141c.08.06.14.135.19.22a.71.71 0 0 1 .1.279Zm1.14 2.714a.44.44 0 0 1-.07.249.654.654 0 0 1-.24.224.735.735 0 0 1-.32.091.713.713 0 0 1-.58-.266.662.662 0 0 1-.06-.278.54.54 0 0 1 .08-.275.574.574 0 0 1 .47-.285.64.64 0 0 1 .25.011c.08.02.16.057.22.107.07.051.13.114.17.187.04.072.07.152.08.235Z" fill="#F8F2EB"/><path d="M1316.65 234.376c-2.64 8.441-4.44 29.346-4.75 43.644-.11 5.329 2.25 10.043 5.67 11.272 6.32 2.292 14.5 3.236 20.2-.553 5.6-3.726 4.09-16.526 3.68-26.482-.75-18.434-10.27-38.638-24.8-27.881Z" fill="#CEC0AE"/><path d="M1319.75 200.789c-14.49.043-37.49 22.57-23.62 39.128 10.56 12.651 37.06 9.415 49.95 6.434 9.26-2.137 23.88-7.546 19.97-23.284-2.07-8.341-12.09-14.403-18.31-17.738-8.66-4.602-17.36-6.677-27.99-4.54Z" fill="#EBDECE"/><path d="M1344.85 234.848c.01.438-.11.869-.33 1.243-1.1 1.863-4.4 2.155-5.56.229-1.16-1.925.44-3.782 2.4-4.093 1.66-.279 3.44 1.044 3.49 2.621Zm4.06-5.9c.01.28-.07.555-.21.795-.71 1.242-2.86 1.398-3.61.149-.75-1.248.28-2.484 1.56-2.658a1.98 1.98 0 0 1 2.26 1.714Zm5.48 5.435c.01.437-.11.868-.33 1.242-1.1 1.863-4.41 2.155-5.6.236-1.18-1.919.45-3.782 2.4-4.099 1.7-.28 3.48 1.037 3.53 2.621Z" fill="#F8F2EB"/><path d="M1295.36 269.256c-1.49 3.18-2.49 11.068-2.68 16.459-.03.968.26 1.918.85 2.693a4.215 4.215 0 0 0 2.35 1.561c3.57.857 8.18 1.242 11.39-.211 3.22-1.453 2.31-6.211 2.08-9.987-.43-6.956-5.79-14.539-13.99-10.515Z" fill="#CEC0AE"/><path d="M1296.48 250.133c-8.59 0-22.24 10.906-14.03 18.912 6.27 6.111 21.99 4.546 29.65 3.105 5.49-1.037 14.17-3.652 11.85-11.254-1.24-4.024-7.18-6.95-10.87-8.564a28.144 28.144 0 0 0-16.6-2.199Z" fill="#EBDECE"/><path d="M1311.06 266.033c.01.235-.05.467-.17.671-.59 1.018-2.36 1.173-2.98.124-.63-1.05.24-2.056 1.28-2.224a1.65 1.65 0 0 1 1.67.81c.11.19.18.401.2.619Zm2.19-3.211a.83.83 0 0 1-.12.434c-.11.16-.24.293-.41.388a1.175 1.175 0 0 1-1.09.045c-.17-.08-.32-.201-.44-.352a1.12 1.12 0 0 1-.11-.478c0-.167.05-.33.13-.475.08-.144.2-.265.35-.352.14-.086.3-.135.47-.142a1.066 1.066 0 0 1 1.08.53c.07.123.12.26.14.402Zm2.92 2.956c.01.236-.05.469-.17.671-.62 1.019-2.36 1.168-2.98.124-.61-1.043.24-2.055 1.29-2.223a1.605 1.605 0 0 1 1.23.319c.18.133.32.3.43.491.11.19.18.401.2.618Z" fill="#F8F2EB"/><path d="M1378.51 260.536c1.1 3.267 1 6.869.89 10.372-.15 4.907-.06 10.726-1.93 15.086-.56 1.317-2.48 3.603-1.02 5.012.69.671 2.63.448 3.45.299 4.05-.727 5.53-10.36 5.59-14.832.12-6.279-.54-13.179-2.6-18.471-.36-.931-2.16.727-2.98.454" fill="#CA9070"/><path d="M1372.44 263.368a10.536 10.536 0 0 1-.37-3.577c.14-3.068 1.07-6.043 1.46-9.068.45-3.416-.62-7.968 1.43-10.788a4.973 4.973 0 0 1 3.2-1.963c2.22-.378 4.11.448 5.6 2.795 2.36 3.727 4.69 7.795 6.17 12.347.69 2.124 1.3 4.621.87 6.956-.62 3.317-3.33 3.801-5.48 3.932-2.96.174-5.47 1.459-8.33 2.254a3.212 3.212 0 0 1-4.01-1.59c-.22-.413-.4-.847-.54-1.298Z" fill="#9A5129"/><path d="M1378.28 287.286c-3.73-2.546-3.11-8.118-3.29-12.08-.15-2.869-4.58-2.255-4.44.621.27 5.379.06 11.633 5.01 15.036 2.4 1.597 5.09-1.944 2.72-3.577Z" fill="#CA9070"/><path d="M1395.98 276.082c-.98-2.677-5.3-1.522-4.3 1.186 2.12 5.807-5.44 10.329-10.62 9.571-2.81-.41-4.03 3.894-1.19 4.31 8.24 1.199 19.58-5.645 16.11-15.067Z" fill="#CA9070"/><path d="M1388.16 277.106a8.212 8.212 0 0 1 .11-2.708c.45-2.279 1.44-4.403 2.06-6.62.7-2.485.4-6.019 2.21-7.907.33-.346.73-.624 1.16-.817.44-.193.91-.297 1.39-.307 1.66-.049 2.95.77 3.78 2.677a42.272 42.272 0 0 1 3.15 9.875c.28 1.665.45 3.59-.11 5.292-.81 2.416-2.85 2.484-4.43 2.354-2.17-.18-4.15.515-6.32.807-.58.125-1.18.029-1.69-.271a2.343 2.343 0 0 1-1.06-1.344c-.12-.333-.2-.679-.25-1.031Z" fill="#9A5129"/><path d="M1366.72 274.678a5.35 5.35 0 0 1 .05-1.994c.34-1.664 1.13-3.198 1.6-4.813.54-1.826.26-4.403 1.72-5.757a3.056 3.056 0 0 1 2.08-.789c.67-.024 1.32.155 1.89.515.56.36.99.882 1.25 1.497a29.516 29.516 0 0 1 2.73 7.267 7.465 7.465 0 0 1 0 3.869c-.62 1.752-2.31 1.783-3.61 1.665-1.79-.168-3.4.316-5.19.503-.46.089-.94.014-1.36-.213a2.04 2.04 0 0 1-.92-1.029c-.1-.232-.18-.473-.24-.721Z" fill="#BB7752"/></svg>