<svg viewBox="0 0 324 7" fill="none" xmlns="http://www.w3.org/2000/svg">
<path d="M5.15491 4.74573C5.96534 4.59267 6.78744 4.48228 7.59486 4.3836C9.21117 4.19194 10.7946 4.12099 12.2684 4.12938L11.9134 4.21064C13.0369 4.1887 14.4045 3.96759 15.5963 4.04438C15.6067 4.08992 15.2164 4.09754 15.4929 4.16647C15.9087 4.1009 16.3267 4.08701 16.7448 4.12487C17.308 4.1539 17.8983 4.18525 18.1514 4.16316C18.6223 4.25974 18.574 4.35503 19.1825 4.48038L19.8669 4.40125C21.7621 4.25847 24.4826 4.72566 27.064 4.45798C26.9401 4.49756 26.6859 4.53112 26.8912 4.56142C28.9664 4.40653 31.299 4.24091 33.6962 4.11691C36.0933 3.99291 38.5539 3.92485 40.8795 4.02238C40.6946 4.06601 40.5229 4.15799 40.7955 4.23271C41.0243 4.07672 42.4611 4.13729 43.705 4.1759C44.2661 4.3765 45.8394 4.13422 47.3013 4.29436L47.1772 4.32537C48.2592 4.19561 48.78 4.48276 49.6536 4.3056L50.3343 4.45241C50.8072 4.23162 51.8979 4.61628 52.7879 4.50741L52.7585 4.45939C53.5995 4.41724 54.0384 4.53731 54.8173 4.50495L54.8924 4.53494C56.7179 4.49929 57.7816 4.61289 57.7374 4.43364C58.3802 4.58118 55.968 4.49391 56.9769 4.7115C62.9832 4.53418 69.1721 4.40475 75.2218 4.29519C75.9103 4.35893 76.3486 4.37611 76.5044 4.44168C77.1056 4.40421 78.7784 4.39727 79.327 4.30365C79.125 4.30759 79.7193 4.39891 80.038 4.40698C81.1402 4.47694 81.238 4.21201 82.4477 4.30274C81.9674 4.34929 81.8058 4.40676 81.9658 4.47511C82.9962 4.34063 84.3744 4.38233 85.5926 4.35568C85.4033 4.38225 85.1094 4.39657 85.1567 4.45568C86.4866 4.31821 87.5876 4.53401 88.7548 4.45975L88.3188 4.55689C90.1998 4.72886 88.8705 4.34599 90.4983 4.46573C90.1083 4.48764 90.2461 4.53355 90.1764 4.57494C91.6904 4.41958 94.1454 4.55176 95.6594 4.53363C95.5686 4.5354 95.5938 4.57493 95.5938 4.57493C97.2427 4.59705 98.9653 4.70921 100.779 4.67666C101.439 4.74096 100.565 4.92669 102.31 4.93264C102.244 4.71952 105.271 4.91486 104.239 4.65197C105.732 4.72289 108.089 4.84267 109.08 4.78329C108.412 4.85352 109.811 5.05491 108.573 5.05335L109.51 5.19515C109.376 5.28068 108.546 5.15108 108.844 5.26533C109.467 5.27033 111.275 5.195 111.826 5.22712C112.972 5.09325 114.026 4.84681 115.885 4.79622C115.011 4.89047 116.387 5.02657 115.791 5.06964L118.381 4.62739C119.001 4.61529 118.52 4.79336 119.413 4.72159C119.365 4.66536 119.755 4.62631 120.027 4.57524C120.26 4.59643 122.601 4.47922 122.876 4.68255C123.149 4.76014 121.868 4.74513 122.555 4.80605C123.699 4.78371 123.747 4.71129 124.892 4.68893L124.915 4.71708C125.67 4.73378 127.138 4.58504 126.315 4.48676C125.789 4.49703 126.516 4.60862 125.739 4.56091C126.268 4.43051 127.596 4.37311 128.74 4.35078C128.571 4.35044 128.403 4.40284 128.243 4.50628C129.777 4.31624 131.404 4.23299 133.116 4.12523C133.14 4.02471 132.48 4.31777 132.225 4.26842C134.429 4.36833 136.766 3.99965 138.595 4.17262C138.296 4.19562 138.43 4.03577 138.458 4.06382C139.518 4.06027 139.473 4.20408 140.162 4.14203C140.231 4.22644 141.029 4.10223 141.74 4.06833C142.104 4.00117 141.925 4.1076 141.306 4.12541C142.295 4.03747 146.257 3.86291 148.549 3.96967C148.503 3.91339 149.952 3.75359 150.478 3.75475L150.274 3.88738C150.756 3.96375 152.036 3.85297 152.127 3.97699C153.249 3.80928 147.8 4.14154 149.32 4.00894C149.713 4.11561 151.433 3.78471 151.108 3.97401C152.167 3.95334 153.189 3.81331 154.2 3.93079C153.907 3.91079 153.345 4.1133 154.203 4.10226C155.705 4.07294 154.629 4.03677 155.847 3.99012L156.61 3.93518C156.661 3.8084 157.956 3.95179 157.394 3.81123C157.581 3.91623 159.578 3.74572 159.431 3.9573L159.225 4.12427C159.874 4.11159 160.286 3.94918 160.796 3.87633C160.88 3.89183 161.053 3.92562 161.019 3.95201C161.12 3.69845 162.572 3.98172 163.34 3.78948C164.706 3.88574 166.804 3.8076 167.448 3.96655C168.495 3.89179 169.449 3.80169 170.644 3.85839C170.433 3.85686 170.223 3.88485 170.014 3.94217C170.555 3.9917 171.095 3.98114 171.634 3.91055C171.481 3.95069 173.136 4.04418 173.971 4.12793C175.009 4.0419 174.645 3.90607 174.753 3.82677C175.707 4.06545 177.688 3.64365 178.883 3.84333C178.524 3.88749 177.369 3.99582 178.234 4.04467C179.188 4.27478 180.148 3.82146 181.685 3.91154L181.304 3.71028C181.984 3.82565 183.559 3.5433 183.406 3.7607C183.918 3.67637 185.215 3.78542 185.041 3.58585C187.564 3.68809 191.163 3.31477 192.72 3.61314C193.078 3.56898 193.981 3.57136 193.793 3.4721C193.191 3.38095 192.958 3.58277 192.733 3.51283C192.877 3.53238 193.022 3.49761 193.159 3.41016C193.943 3.4263 194.56 3.41997 193.823 3.61447C195.569 3.67471 195.612 3.2136 197.829 3.19889C197.731 3.28658 197.901 3.31185 198.548 3.27348L199.775 3.07798C201.209 3.04998 200.592 3.23643 200.632 3.37572C201.397 3.32076 202.336 3.29099 202.679 3.16707L203.615 3.30318C202.935 3.20496 204.243 3.188 204.601 3.13526L204.243 3.188C204.38 3.24251 205.269 3.16797 205.717 3.12492C205.609 3.04125 204.704 3.04749 204.21 3.04569C204.601 2.96374 205.209 2.95186 205.726 2.85313C205.558 2.99935 206.976 2.89449 207.586 2.88258C208.285 2.86893 208.369 2.71862 208.573 2.71462C208.592 2.78572 209.714 2.66948 209.171 2.79729C208.933 2.83339 208.628 2.75358 208.234 2.83846C208.696 2.86948 208.644 2.99628 209.59 2.85773C210.308 2.75508 209.399 2.59272 210.766 2.61177C210.408 2.66451 210.343 2.72582 210.067 2.78837L211.347 2.79768L211.398 2.66805C211.572 2.69038 211.453 2.70986 211.534 2.72256C211.911 2.5694 213.484 2.58443 213.769 2.41875C214.415 2.37184 215.125 2.43802 215.746 2.42018L215.628 2.43677C216.383 2.4735 217.381 2.37395 218.011 2.25588L217.977 2.28512C218.384 2.27718 219.36 2.2038 219.872 2.10232C220.914 2.14487 220.235 2.56409 221.379 2.35878C222.432 2.29818 223.025 2.04074 222.592 1.9806C224.489 1.96927 226.632 1.65583 228.394 1.76723C228.611 1.68083 228.831 1.63348 229.053 1.62571C231.836 1.54563 234.923 1.22519 237.145 1.40766C236.333 1.48069 237.093 1.53446 237.112 1.60842C237.775 1.47826 237.915 1.70424 238.15 1.50525C238.081 1.38937 238.146 1.33378 237.361 1.30623C238.191 1.25858 239.237 1.20099 240.192 1.2052C241.148 1.2094 242.011 1.22687 242.473 1.27502C242.011 1.22687 242.367 1.18561 242.731 1.15563C242.612 1.3352 243.842 1.3941 244.768 1.35028L244.901 1.2419L245.505 1.37878C245.861 1.37182 245.898 1.16241 246.818 1.3131C246.905 1.39231 246.998 1.43703 247.092 1.44498C248.051 1.40052 249.402 1.31124 250.444 1.45958L251.296 1.66592C251.74 1.67156 252.488 1.6112 251.7 1.52367C253.476 1.71485 254.62 1.78399 255.185 1.95308C258.239 1.76192 262.676 1.94687 266.228 2.0376L266.124 2.11968C267.075 2.21547 266.618 1.9814 267.285 2.05128C266.977 2.1259 268.014 2.23717 267.266 2.32325C268.631 2.42523 269.026 2.20025 269.909 2.163C270.042 2.05175 269.197 2.23121 269.365 2.09356C269.516 2.05345 271.254 2.17961 271.464 2.0097C271.805 2.06879 271.542 2.19686 271.359 2.26619L272.191 2.17562C273.214 2.36148 269.874 2.54105 270.947 2.77168L271.716 2.73951C272.453 2.91095 269.687 2.95353 271.616 2.99877C272.453 2.90523 273.165 2.65689 272.421 2.59138C274.163 2.52305 273.22 2.17839 275.094 2.15608C275.607 2.24327 273.593 2.21112 273.958 2.34123C274.841 2.45263 275.73 2.22943 276.519 2.29121C275.643 2.23112 276.379 2.05381 276.946 2.03701C277.905 2.13263 276.328 2.18344 277.682 2.22562C277.905 2.13263 279.151 2.11689 278.074 2.00355C278.562 1.80533 279.486 2.12178 280.223 2.00734C280.664 2.1874 278.827 2.27187 280.317 2.44291C280.08 2.27028 282.152 2.37561 281.366 2.0965C281.949 2.18517 282.01 2.30692 281.584 2.36384C282.418 2.51337 283.606 2.27003 283.878 2.58492L284.164 2.46211C284.425 2.53708 284.798 2.60985 285.222 2.72736C285.956 2.80164 287.584 2.75556 287.516 2.96844C287.75 2.96386 289.417 3.13717 288.777 2.91809C287.739 2.72395 287.583 2.91854 287.01 2.64956C287.742 2.89541 288.503 2.77477 289.109 2.76866L289.206 2.86683C289.564 2.85985 290.387 2.95812 290.609 2.8766C290.339 2.90475 290.476 2.97641 290.763 3.02227L291.137 2.91774C292.589 2.96087 291.479 3.17981 292.891 3.23799L291.818 3.25895C292.054 3.25435 292.534 3.41079 293.21 3.41187C293.479 3.3037 293.965 3.17986 294.19 3.10685C294.984 3.09134 294.547 3.25999 295.327 3.15898C294.986 3.19994 294.651 3.2408 294.304 3.27044C294.227 3.28624 294.401 3.3486 294.726 3.40515C295.051 3.4617 295.528 3.51243 296.06 3.52492C296.737 3.49168 297.787 3.30822 296.716 3.24337C297.248 3.23297 297.994 3.31561 297.573 3.40674C298.777 3.33749 297.413 3.28121 298.451 3.17518C298.667 3.21098 299.094 3.24838 299.593 3.28437C300.093 3.32035 300.626 3.4043 301.03 3.48217C300.665 3.53504 300.3 3.59077 299.934 3.65795L300.664 3.67515C299.717 3.81084 301.142 3.81161 300.612 3.96204C301.108 4.00382 301.708 3.98067 302.186 3.96561C300.737 3.59653 303.808 3.69094 303.396 3.4131C305.379 3.48015 304.63 4.12088 306.703 3.84597C306.363 3.76111 307.338 3.622 306.091 3.62635C307.321 3.71954 306.926 3.42421 308.377 3.5817C307.302 3.6513 309.532 3.87361 307.978 3.97544C308.082 3.89621 307.111 3.87802 306.871 3.88557C307.381 4.00713 306.768 4.13916 308.03 4.19171C308.799 4.19671 309.852 4.20187 309.699 4.06763C309.664 3.92537 308.525 4.06483 309.018 3.92654C310.547 3.89669 310.806 4.1032 311.434 3.83364C310.469 3.8782 310.225 3.72002 310.241 3.62537L311.362 3.54916L311.145 3.65058C312.044 3.66161 312.175 3.60189 312.3 3.54799C312.425 3.49409 312.542 3.44035 313.408 3.3834L314.224 3.49041C313.768 3.61423 313.309 3.67573 312.847 3.67452C312.306 3.70511 311.855 3.72822 312.012 3.85666C313.144 3.80882 313.514 3.6415 314.582 3.58632C314.347 3.63951 314.024 3.68299 313.792 3.73041C313.994 3.72647 314.2 3.78248 314.554 3.80415C315.11 3.81953 315.663 3.72833 316.208 3.5317C317.027 3.27555 316.419 3.39035 316.434 3.28715C317.33 3.07811 317.903 2.86679 318.394 2.67709C318.885 2.48739 319.293 2.27643 319.846 1.98832C319.744 2.14185 320.235 1.90354 320.593 1.68785C320.951 1.47217 321.185 1.31036 320.603 1.79915C320.32 1.92476 319.559 2.317 318.773 2.62681C317.987 2.93662 317.19 3.20091 316.878 3.36423C317.213 3.39773 316.86 3.48179 316.376 3.57988C315.891 3.67798 315.276 3.76432 315.086 3.91097C316.538 3.6825 316.479 3.88377 316.724 3.98763C317.129 3.90539 317.511 3.73783 317.748 3.64458C317.905 3.45853 317.384 3.61166 317.337 3.47248C318.1 3.29304 318.855 3.01382 319.599 2.63642C320.162 2.35421 320.712 1.97243 321.243 1.49506C321.496 1.34145 321.587 1.31393 321.547 1.39763C321.387 1.61121 321.212 1.77623 321.029 1.88803C326.592 -2.05708 322.363 2.56797 319.675 3.47545C318.673 3.95292 317.657 4.30969 316.632 4.54406C315.631 4.78946 314.637 4.94323 313.64 5.04846C311.643 5.25613 309.623 5.26413 307.434 5.14963L308.169 5.00949C307.386 5.10483 307.658 4.89368 306.891 4.88294C307.774 5.06296 305.826 5.00378 305.283 5.06872C303.338 4.82081 300.832 4.71251 299.13 4.90298L299.06 4.79C297.317 5.08991 295.225 4.86488 293.051 4.69863C292.623 4.56466 292.191 4.48715 291.76 4.46655C290.58 4.56393 289.963 4.50163 288.235 4.45532C286.972 4.33419 284.924 4.08257 283.643 3.89031C281.269 3.80516 278.873 3.64611 276.453 3.63619C275.249 3.6454 274.031 3.68348 272.808 3.70737L269.122 3.77935L268.764 3.64054C263.979 3.90264 258.089 3.36298 254.004 3.30551L254.398 3.092C253.118 2.95403 251.48 3.00317 251.806 3.18549C250.522 3.0476 248.603 3.13653 247.788 2.90373C246.475 2.79786 246.182 2.93509 245.091 2.91636C242.473 2.75307 241.498 2.78928 239.028 2.86896L239.64 2.857C239.91 2.80598 239.933 2.69976 239.317 2.70034C238.397 2.78693 235.929 2.72363 236.847 2.97729C235.526 2.93162 233.988 3.03312 232.457 3.11447C230.927 3.19581 229.407 3.29412 228.122 3.24488C228.343 3.30918 227.694 3.35615 227.422 3.42151C225.107 3.53818 222.668 3.51434 220.821 3.73051C220.451 3.71201 221.405 3.57044 220.463 3.61172C219.905 3.66835 220.451 3.71201 219.766 3.78828C216.016 4.12452 212.163 4.0311 208.749 4.23498C202.686 4.67359 196.352 4.86303 190.536 5.08238L190.601 5.02393C188.657 5.29346 186.025 4.93317 184.478 5.30074C184.016 5.2583 182.715 5.30944 183.059 5.19695C181.509 5.37017 178.71 5.15607 176.471 5.35991C176.677 5.35588 176.795 5.35357 177.033 5.3232C174.765 5.21881 172.77 5.42645 170.376 5.31024C170.627 5.30504 170.878 5.27247 171.128 5.21266C170.204 5.10491 168.943 5.44687 168.431 5.1767C167.902 5.18702 168.056 5.31266 168.381 5.30345C165.761 5.25456 163.055 5.25308 160.324 5.28068L152.113 5.42102C148.206 5.28575 151.867 4.9684 148.79 5.20002C148.538 5.15061 148.61 5.30358 148.566 5.24727C147.376 5.33055 146.706 4.96626 145.88 5.11389C146.225 5.27583 145.332 5.21037 145.309 5.31087C142.922 5.22884 142.439 5.08103 140.563 5.23774L140.697 5.14935C138.492 5.42397 135.934 5.33099 134.074 5.64747L116.102 6.07847C110.176 6.23995 104.279 6.11496 98.3404 5.96218C92.4677 5.76524 86.6594 5.59849 80.8335 5.57217C77.9198 5.5576 75.0045 5.59451 72.0692 5.65183C69.1339 5.70915 66.1791 5.74398 63.198 5.74502C60.4001 5.54807 60.1915 5.55786 57.1241 5.65492C57.2467 5.61822 57.4405 5.61158 57.2337 5.5756C57.0828 5.76437 55.0648 5.5865 54.7808 5.76073C50.3693 5.68677 46.3034 5.60607 41.7572 5.30032C42.4748 5.32633 42.8397 5.19627 41.9821 5.15299L41.0899 5.21614L40.9464 5.15605C40.3674 5.15306 39.7355 5.21115 40.3338 5.30524C37.5042 5.22041 34.6761 5.35568 31.8518 5.47087C29.0274 5.58607 26.2068 5.68403 23.3822 5.58195L22.3225 5.53403L21.2622 5.45467C20.5587 5.39408 19.8426 5.308 19.1496 5.22433C17.7545 5.06097 16.3611 4.95573 14.9692 4.90858C12.1857 4.82285 9.41301 5.01708 6.65248 5.48553C5.99684 5.58124 5.27129 5.7069 4.51129 5.87326C-2.04355 7.3898 -1.01863 5.82426 5.15491 4.74573Z" fill="#3D2859"/>
</svg>
