<svg viewBox="0 0 186 7" preserveAspectRatio="none" fill="none" xmlns="http://www.w3.org/2000/svg">
<path d="M31.8445 1.80451L31.8416 1.80462C19.9988 2.26222 11.9291 2.65111 7.02431 2.95926C4.57329 3.11326 2.90769 3.24738 1.95585 3.36032C1.49166 3.4154 1.16716 3.46838 1.01064 3.52511C0.977819 3.537 0.907339 3.56376 0.853679 3.62022C0.822356 3.65318 0.774672 3.72016 0.778232 3.81648C0.781775 3.9127 0.834185 3.97635 0.867648 4.00709C0.925064 4.05986 0.996913 4.08203 1.02988 4.09169C1.07491 4.10488 1.12739 4.11558 1.18343 4.12476C1.61605 4.19561 2.68642 4.23912 4.29102 4.2582C5.90534 4.2774 8.08183 4.27181 10.7437 4.23999C16.0674 4.17635 23.3367 4.00774 31.9419 3.72214C70.495 2.82691 109.14 2.92959 147.669 3.69029C148.158 3.70369 148.648 3.71687 149.137 3.73006C154.644 3.87846 160.161 4.02712 165.601 4.47837C166.424 4.55027 167.235 4.66578 168.052 4.78643C168.131 4.79797 168.209 4.80957 168.287 4.82118C169.026 4.93058 169.773 5.04108 170.532 5.12217C175.906 5.70054 179.618 6.06385 181.902 6.24809C183.042 6.34009 183.832 6.38795 184.295 6.39508C184.515 6.39848 184.694 6.39387 184.797 6.36911C184.821 6.36335 184.874 6.34947 184.923 6.31287C184.95 6.29277 184.991 6.2544 185.014 6.19154C185.04 6.12205 185.032 6.05313 185.009 5.99898C184.974 5.91495 184.906 5.87286 184.888 5.86173C184.887 5.86161 184.887 5.8615 184.887 5.8614C184.857 5.84316 184.826 5.82895 184.798 5.8179C184.69 5.77499 184.511 5.72791 184.28 5.67646C184.043 5.62375 183.737 5.56301 183.365 5.49486C182.62 5.35851 181.607 5.1912 180.355 4.99754C177.85 4.61015 174.384 4.11641 170.192 3.55263L170.192 3.55263C169.656 3.48069 169.134 3.39904 168.609 3.31705C168.55 3.30771 168.49 3.29837 168.43 3.28904C167.846 3.19791 167.257 3.10779 166.65 3.0329L166.648 3.03262C164.271 2.76299 161.857 2.62825 159.479 2.49549L159.37 2.48937L159.368 2.4893C147.801 1.90917 136.2 1.69178 124.608 1.50317L124.607 1.50316C93.7019 1.08504 62.7683 0.959377 31.8445 1.80451ZM184.678 5.88296C184.677 5.88307 184.677 5.88319 184.676 5.8833L184.678 5.88296ZM1.15668 3.60795C1.1564 3.60776 1.15801 3.60828 1.16102 3.60962C1.15826 3.60869 1.15689 3.60811 1.15668 3.60795ZM1.17103 4.00016C1.17077 4.00019 1.17228 3.99926 1.1762 3.99768C1.17314 3.99934 1.17128 4.00013 1.17103 4.00016Z" fill="white" />
</svg>
