<svg width="194" height="43" viewBox="0 0 194 43" fill="none" xmlns="http://www.w3.org/2000/svg">
<g clip-path="url(#clip0_1726_50852)">
<path d="M49.7412 26.0039C49.0855 25.8182 48.5235 25.5396 48.0551 25.3538C47.5867 25.1681 47.1183 24.8895 46.7437 24.518C46.369 24.2394 46.0879 23.8679 45.9006 23.4035C45.7132 22.9391 45.6196 22.3819 45.6196 21.8247C45.6196 20.6173 46.0879 19.5957 47.0247 18.8528C47.9614 18.1098 49.2729 17.7383 50.959 17.7383C51.521 17.7383 52.1768 17.7383 52.6451 17.8312C53.2072 17.924 53.5819 18.0169 53.9566 18.2026C54.3313 18.3884 54.6123 18.5741 54.7997 18.8528C54.987 19.1314 55.0807 19.5029 55.0807 19.8743C55.0807 20.2458 54.987 20.5245 54.7997 20.8031C54.6123 21.0817 54.425 21.2674 54.1439 21.4532C53.8629 21.2674 53.3945 21.0817 52.9262 20.8959C52.3641 20.7102 51.8021 20.7102 51.24 20.7102C50.5843 20.7102 50.1159 20.8031 49.8349 20.9888C49.5539 21.1746 49.3665 21.3603 49.3665 21.6389C49.3665 21.8247 49.4602 22.0104 49.6476 22.1962C49.8349 22.289 50.1159 22.4748 50.4906 22.5677L51.6147 22.9391C52.9262 23.4035 53.9566 23.9607 54.706 24.6109C55.4554 25.261 55.7364 26.1897 55.7364 27.3042C55.7364 28.5115 55.268 29.5331 54.3313 30.2761C53.3945 31.0191 51.9894 31.3905 50.1159 31.3905C49.4602 31.3905 48.8982 31.2977 48.3361 31.2048C47.7741 31.1119 47.3057 30.9262 46.8373 30.7404C46.4626 30.5547 46.0879 30.2761 45.9006 29.9975C45.7132 29.7188 45.5259 29.3474 45.5259 28.883C45.5259 28.4186 45.6196 28.14 45.9006 27.7685C46.1816 27.4899 46.369 27.2113 46.65 27.1184C47.0247 27.397 47.493 27.6756 48.1488 27.9543C48.7108 28.14 49.3665 28.3258 50.0223 28.3258C50.678 28.3258 51.24 28.2329 51.521 28.0471C51.8021 27.8614 51.9894 27.5828 51.9894 27.3042C51.9894 27.0255 51.8957 26.8398 51.6147 26.654C51.4274 26.4683 51.0527 26.3754 50.678 26.1897L49.7412 26.0039Z" fill="white"/>
<path d="M67.5394 29.3473C67.4457 29.9974 67.2583 30.5546 66.9773 30.9261C66.6963 31.2976 66.2279 31.4833 65.5722 31.4833C65.1038 31.4833 64.7291 31.3905 64.3544 31.1118C63.9797 30.9261 63.605 30.5546 63.2303 29.9974L61.1695 27.3041V31.2047C60.9821 31.2047 60.7948 31.2976 60.5138 31.2976C60.2327 31.3905 59.8581 31.3905 59.577 31.3905C59.296 31.3905 59.015 31.3905 58.734 31.2976C58.4529 31.2976 58.2656 31.2047 58.0782 31.019C57.8909 30.9261 57.7972 30.7404 57.7035 30.4617C57.6099 30.276 57.6099 29.9045 57.6099 29.6259V17.181C57.7972 17.181 57.9846 17.0881 58.2656 16.9952C58.5466 16.9023 58.9213 16.9023 59.2023 16.9023C59.4834 16.9023 59.7644 16.9023 60.0454 16.9952C60.3264 16.9952 60.5138 17.0881 60.7011 17.2738C60.8885 17.3667 60.9821 17.5525 61.0758 17.8311C61.1695 18.0168 61.1695 18.3883 61.1695 18.6669V24.3321L64.8228 20.5244C65.5722 20.5244 66.1342 20.7101 66.6026 20.9887C67.071 21.3602 67.2583 21.7317 67.2583 22.289C67.2583 22.4747 67.2583 22.6604 67.1647 22.8462C67.071 23.0319 66.9773 23.2177 66.79 23.4034C66.6026 23.5892 66.4153 23.7749 66.2279 23.9607C66.0406 24.1464 65.7596 24.425 65.3849 24.7036L64.1671 25.8181L67.5394 29.3473Z" fill="white"/>
<path d="M79.4359 26.0029C79.4359 26.9316 79.3422 27.6746 79.0612 28.4176C78.7802 29.1606 78.4055 29.7178 77.9371 30.1822C77.4688 30.6465 76.9067 31.018 76.1573 31.2967C75.5016 31.5753 74.7522 31.6681 73.9091 31.6681C73.0661 31.6681 72.3167 31.5753 71.6609 31.2967C71.0052 31.018 70.4432 30.6465 69.8811 30.1822C69.4127 29.7178 69.038 29.0677 68.757 28.4176C68.476 27.7675 68.3823 26.9316 68.3823 26.0958C68.3823 25.2599 68.476 24.517 68.757 23.774C69.038 23.1239 69.4127 22.4738 69.8811 22.0094C70.3495 21.545 70.9115 21.1735 71.6609 20.8949C72.3167 20.6163 73.0661 20.5234 73.9091 20.5234C74.7522 20.5234 75.5016 20.6163 76.1573 20.8949C76.813 21.1735 77.3751 21.545 77.9371 22.0094C78.4055 22.4738 78.7802 23.1239 79.0612 23.774C79.3422 24.3312 79.4359 25.1671 79.4359 26.0029ZM72.0356 26.0029C72.0356 26.8388 72.223 27.5818 72.504 28.0461C72.8787 28.5105 73.2534 28.7891 73.9091 28.7891C74.5648 28.7891 74.9395 28.5105 75.3142 28.0461C75.5953 27.5818 75.7826 26.9316 75.7826 26.0029C75.7826 25.0742 75.5953 24.517 75.3142 23.9597C74.9395 23.4954 74.4712 23.2167 73.9091 23.2167C73.3471 23.2167 72.8787 23.4954 72.504 23.9597C72.223 24.4241 72.0356 25.0742 72.0356 26.0029Z" fill="white"/>
<path d="M87.8669 30.9252C87.6796 31.1109 87.3986 31.2038 87.0239 31.2967C86.6492 31.3895 86.1808 31.4824 85.7124 31.4824C85.1504 31.4824 84.682 31.3895 84.3073 31.2967C83.9326 31.1109 83.6516 30.9252 83.4642 30.6465C83.3706 30.3679 83.1832 30.0893 82.9959 29.6249C82.8085 29.1606 82.6212 28.6962 82.4338 28.139C82.2465 27.5818 82.0591 27.0245 81.7781 26.3744C81.5907 25.7243 81.4034 25.1671 81.216 24.517C81.0287 23.8668 80.8413 23.3096 80.654 22.7524C80.4666 22.1951 80.373 21.7308 80.2793 21.2664C80.4666 21.0807 80.7477 20.8949 81.0287 20.7092C81.4034 20.5234 81.6844 20.5234 82.1528 20.5234C82.6212 20.5234 83.0895 20.6163 83.3706 20.8021C83.6516 20.9878 83.9326 21.3593 84.12 22.0094L84.963 25.3528C85.1504 26.0029 85.2441 26.5602 85.4314 27.1174C85.6188 27.6746 85.7124 28.0461 85.7124 28.3247H85.8061C86.0871 27.3031 86.3682 26.0958 86.6492 24.7956C86.9302 23.4954 87.2112 22.1951 87.4922 20.9878C87.7733 20.8949 87.9606 20.8021 88.3353 20.7092C88.6163 20.6163 88.8974 20.6163 89.1784 20.6163C89.6468 20.6163 90.1151 20.7092 90.3962 20.8949C90.7709 21.0807 90.8645 21.4522 90.8645 22.0094C90.8645 22.1951 90.7709 22.5666 90.6772 23.031C90.5835 23.4954 90.3962 23.9597 90.3025 24.517C90.1151 25.0742 89.9278 25.6314 89.7404 26.2815C89.5531 26.9316 89.2721 27.4889 89.0847 28.139C88.8974 28.6962 88.6163 29.2535 88.429 29.8107C88.2416 30.3679 87.9606 30.6465 87.8669 30.9252Z" fill="white"/>
<path d="M97.796 31.5753C96.953 31.5753 96.2036 31.4824 95.4542 31.2038C94.7048 30.9252 94.1427 30.6465 93.5807 30.0893C93.0186 29.625 92.6439 28.9748 92.3629 28.3247C92.0819 27.6746 91.8945 26.7459 91.8945 25.8172C91.8945 24.8884 92.0819 24.0526 92.3629 23.4025C92.6439 22.7524 93.1123 22.1951 93.5807 21.7308C94.049 21.2664 94.6111 20.9878 95.2668 20.8021C95.9225 20.6163 96.5783 20.5234 97.234 20.5234C97.9834 20.5234 98.6391 20.6163 99.2948 20.8949C99.9505 21.0807 100.419 21.4522 100.887 21.8237C101.356 22.1951 101.637 22.7524 101.918 23.3096C102.199 23.8669 102.292 24.517 102.292 25.1671C102.292 25.6314 102.199 26.0029 101.918 26.2815C101.637 26.5602 101.262 26.7459 100.794 26.7459L95.5478 27.5818C95.7352 28.0461 96.0162 28.4176 96.4846 28.6962C96.953 28.9748 97.515 29.0677 98.1707 29.0677C98.7328 29.0677 99.2948 28.9748 99.8569 28.882C100.419 28.6962 100.794 28.5105 101.075 28.3247C101.262 28.5105 101.449 28.6962 101.637 28.9748C101.824 29.2535 101.824 29.5321 101.824 29.8107C101.824 30.4608 101.543 30.9252 100.887 31.2967C100.419 31.5753 99.9505 31.6681 99.3885 31.761C98.8264 31.4824 98.3581 31.5753 97.796 31.5753ZM97.234 23.031C96.8593 23.031 96.5783 23.1239 96.3909 23.2167C96.1099 23.3096 95.9225 23.4954 95.8289 23.6811C95.7352 23.8668 95.5478 24.0526 95.4542 24.3312C95.3605 24.517 95.3605 24.7956 95.3605 24.9813L99.0138 24.3312C99.0138 24.0526 98.8264 23.774 98.5454 23.4954C98.1707 23.2167 97.796 23.031 97.234 23.031Z" fill="white"/>
<path d="M110.536 24.518C110.536 24.0537 110.442 23.7751 110.161 23.4964C109.88 23.3107 109.599 23.2178 109.131 23.2178C108.85 23.2178 108.569 23.2178 108.288 23.3107C108.007 23.4036 107.819 23.4964 107.538 23.6822V31.2049C107.351 31.2049 107.163 31.2977 106.882 31.2977C106.601 31.2977 106.227 31.3906 105.946 31.3906C105.665 31.3906 105.384 31.3906 105.103 31.2977C104.822 31.2977 104.634 31.2049 104.447 31.0191C104.26 30.9262 104.166 30.7405 104.072 30.4619C103.979 30.2761 103.979 29.9046 103.979 29.626V23.1249C103.979 22.7535 104.072 22.382 104.26 22.1962C104.447 21.9176 104.634 21.7319 104.915 21.5461C105.384 21.1746 106.039 20.896 106.695 20.7103C107.444 20.5245 108.194 20.4316 109.131 20.4316C110.723 20.4316 111.941 20.8031 112.784 21.5461C113.627 22.2891 114.095 23.2178 114.095 24.518V31.2977C113.908 31.2977 113.721 31.3906 113.44 31.3906C113.159 31.3906 112.784 31.4835 112.503 31.4835C112.222 31.4835 111.941 31.4835 111.66 31.3906C111.379 31.3906 111.191 31.2977 111.004 31.112C110.817 31.0191 110.723 30.8334 110.629 30.5548C110.536 30.369 110.536 29.9975 110.536 29.7189V24.518Z" fill="white"/>
<path d="M120.559 17.8312C120.559 17.2739 120.746 16.8096 121.121 16.4381C121.496 16.0666 121.964 15.8809 122.526 15.8809C123.088 15.8809 123.557 16.0666 123.931 16.4381C124.306 16.8096 124.493 17.2739 124.493 17.8312C124.493 18.3884 124.306 18.8528 123.931 19.2243C123.557 19.5958 123.088 19.7815 122.526 19.7815C121.964 19.7815 121.496 19.5958 121.121 19.2243C120.746 18.7599 120.559 18.2955 120.559 17.8312ZM124.306 31.2048C124.119 31.2048 123.931 31.2977 123.65 31.2977C123.369 31.3906 122.995 31.3906 122.714 31.3906C122.433 31.3906 122.152 31.3906 121.871 31.2977C121.59 31.2977 121.402 31.2048 121.215 31.0191C121.027 30.9262 120.934 30.7405 120.84 30.4619C120.746 30.2761 120.746 29.9046 120.746 29.626V20.8031C120.934 20.8031 121.121 20.7102 121.402 20.7102C121.683 20.6174 122.058 20.6174 122.339 20.6174C122.62 20.6174 122.901 20.6174 123.182 20.7102C123.463 20.7102 123.65 20.8031 123.838 20.9889C124.025 21.0817 124.119 21.2675 124.212 21.5461C124.306 21.7318 124.306 22.1033 124.306 22.3819V31.2048Z" fill="white"/>
<path d="M134.798 26.0039C134.142 25.8182 133.58 25.5396 133.112 25.3538C132.643 25.1681 132.175 24.8895 131.8 24.518C131.426 24.2394 131.145 23.8679 130.957 23.4035C130.77 22.9391 130.676 22.3819 130.676 21.8247C130.676 20.6173 131.145 19.5957 132.081 18.8528C133.018 18.1098 134.33 17.7383 136.016 17.7383C136.578 17.7383 137.233 17.7383 137.702 17.8312C138.264 17.924 138.639 18.0169 139.013 18.2026C139.388 18.3884 139.669 18.5741 139.856 18.8528C140.044 19.1314 140.137 19.5029 140.137 19.8743C140.137 20.2458 140.044 20.5245 139.856 20.8031C139.669 21.0817 139.482 21.2674 139.201 21.4532C138.92 21.2674 138.451 21.0817 137.983 20.8959C137.421 20.7102 136.859 20.7102 136.297 20.7102C135.641 20.7102 135.173 20.8031 134.892 20.9888C134.611 21.1746 134.423 21.3603 134.423 21.6389C134.423 21.8247 134.517 22.0104 134.704 22.1962C134.892 22.289 135.173 22.4748 135.547 22.5677L136.671 22.9391C137.983 23.4035 139.013 23.9607 139.763 24.6109C140.512 25.261 140.793 26.1897 140.793 27.3042C140.793 28.5115 140.325 29.5331 139.388 30.2761C138.451 31.0191 137.046 31.3905 135.173 31.3905C134.517 31.3905 133.955 31.2977 133.393 31.2048C132.831 31.1119 132.362 30.9262 131.894 30.7404C131.519 30.5547 131.145 30.2761 130.957 29.9975C130.77 29.7188 130.583 29.3474 130.583 28.883C130.583 28.4186 130.676 28.14 130.957 27.7685C131.238 27.4899 131.426 27.2113 131.707 27.1184C132.081 27.397 132.55 27.6756 133.205 27.9543C133.767 28.14 134.423 28.3258 135.079 28.3258C135.735 28.3258 136.297 28.2329 136.578 28.0471C136.859 27.8614 137.046 27.5828 137.046 27.3042C137.046 27.0255 136.952 26.8398 136.671 26.654C136.484 26.4683 136.109 26.3754 135.735 26.1897L134.798 26.0039Z" fill="white"/>
<path d="M152.596 29.3473C152.502 29.9974 152.315 30.5546 152.034 30.9261C151.753 31.2976 151.285 31.4833 150.629 31.4833C150.16 31.4833 149.786 31.3905 149.411 31.1118C149.036 30.9261 148.662 30.5546 148.287 29.9974L146.226 27.3041V31.2047C146.039 31.2047 145.851 31.2976 145.57 31.2976C145.289 31.3905 144.915 31.3905 144.634 31.3905C144.353 31.3905 144.072 31.3905 143.791 31.2976C143.51 31.2976 143.322 31.2047 143.135 31.019C142.948 30.9261 142.854 30.7404 142.76 30.4617C142.666 30.276 142.667 29.9045 142.667 29.6259V17.181C142.854 17.181 143.041 17.0881 143.322 16.9952C143.603 16.9023 143.978 16.9023 144.259 16.9023C144.54 16.9023 144.821 16.9023 145.102 16.9952C145.383 16.9952 145.57 17.0881 145.758 17.2738C145.945 17.3667 146.039 17.5525 146.132 17.8311C146.226 18.0168 146.226 18.3883 146.226 18.6669V24.3321L149.879 20.5244C150.629 20.5244 151.191 20.7101 151.659 20.9887C152.128 21.3602 152.315 21.7317 152.315 22.289C152.315 22.4747 152.315 22.6604 152.221 22.8462C152.128 23.0319 152.034 23.2177 151.847 23.4034C151.659 23.5892 151.472 23.7749 151.285 23.9607C151.097 24.1464 150.816 24.425 150.441 24.7036L149.224 25.8181L152.596 29.3473Z" fill="white"/>
<path d="M164.493 26.0029C164.493 26.9316 164.399 27.6746 164.118 28.4176C163.837 29.1606 163.462 29.7178 162.994 30.1822C162.525 30.6465 161.963 31.018 161.214 31.2967C160.558 31.5753 159.809 31.6681 158.966 31.6681C158.123 31.6681 157.373 31.5753 156.718 31.2967C156.062 31.018 155.5 30.6465 154.938 30.1822C154.469 29.7178 154.095 29.0677 153.814 28.4176C153.533 27.7675 153.439 26.9316 153.439 26.0958C153.439 25.2599 153.533 24.517 153.814 23.774C154.095 23.1239 154.469 22.4738 154.938 22.0094C155.406 21.545 155.968 21.1735 156.718 20.8949C157.373 20.6163 158.123 20.5234 158.966 20.5234C159.809 20.5234 160.558 20.6163 161.214 20.8949C161.87 21.1735 162.432 21.545 162.994 22.0094C163.462 22.4738 163.837 23.1239 164.118 23.774C164.399 24.3312 164.493 25.1671 164.493 26.0029ZM157.092 26.0029C157.092 26.8388 157.28 27.5818 157.561 28.0461C157.935 28.5105 158.31 28.7891 158.966 28.7891C159.621 28.7891 159.996 28.5105 160.371 28.0461C160.652 27.5818 160.839 26.9316 160.839 26.0029C160.839 25.0742 160.652 24.517 160.371 23.9597C160.09 23.4954 159.621 23.2167 158.966 23.2167C158.31 23.2167 157.935 23.4954 157.561 23.9597C157.28 24.4241 157.092 25.0742 157.092 26.0029Z" fill="white"/>
<path d="M169.926 31.2047C169.738 31.2047 169.551 31.2976 169.27 31.2976C168.989 31.3905 168.614 31.3905 168.333 31.3905C168.052 31.3905 167.771 31.3905 167.49 31.2976C167.209 31.2976 167.022 31.2047 166.835 31.019C166.647 30.9261 166.554 30.7404 166.46 30.4617C166.366 30.1831 166.366 29.9045 166.366 29.6259V17.0881C166.554 17.0881 166.741 16.9952 167.022 16.9952C167.303 16.9023 167.678 16.9023 167.959 16.9023C168.24 16.9023 168.521 16.9023 168.802 16.9952C169.083 16.9952 169.27 17.0881 169.457 17.2738C169.645 17.3667 169.738 17.5525 169.832 17.8311C169.926 18.0168 169.926 18.3883 169.926 18.6669V31.2047Z" fill="white"/>
<path d="M177.701 31.5753C176.858 31.5753 176.108 31.4824 175.359 31.2038C174.61 30.9252 174.048 30.6465 173.485 30.0893C172.923 29.625 172.549 28.9748 172.268 28.3247C171.987 27.5818 171.799 26.7459 171.799 25.8172C171.799 24.8884 171.987 24.0526 172.268 23.4025C172.549 22.7524 173.017 22.1951 173.485 21.7308C173.954 21.2664 174.516 20.9878 175.172 20.8021C175.827 20.6163 176.483 20.5234 177.139 20.5234C177.888 20.5234 178.544 20.6163 179.2 20.8949C179.855 21.0807 180.324 21.4522 180.792 21.8237C181.26 22.1951 181.541 22.7524 181.823 23.3096C182.104 23.8669 182.197 24.517 182.197 25.1671C182.197 25.6314 182.104 26.0029 181.823 26.2815C181.541 26.5602 181.167 26.7459 180.698 26.7459L175.453 27.5818C175.64 28.0461 175.921 28.4176 176.389 28.6962C176.858 28.9748 177.42 29.0677 178.076 29.0677C178.638 29.0677 179.2 28.9748 179.762 28.882C180.324 28.6962 180.698 28.5105 180.979 28.3247C181.167 28.5105 181.354 28.6962 181.541 28.9748C181.729 29.2535 181.729 29.5321 181.729 29.8107C181.729 30.4608 181.448 30.9252 180.792 31.2967C180.324 31.5753 179.855 31.6681 179.293 31.761C178.731 31.4824 178.169 31.5753 177.701 31.5753ZM177.045 23.031C176.67 23.031 176.389 23.1239 176.202 23.2167C175.921 23.3096 175.734 23.4954 175.64 23.6811C175.453 23.8668 175.359 24.0526 175.265 24.3312C175.172 24.517 175.172 24.7956 175.172 24.9813L178.825 24.3312C178.825 24.0526 178.638 23.774 178.357 23.4954C177.982 23.2167 177.607 23.031 177.045 23.031Z" fill="white"/>
<path d="M190.347 24.518C190.347 24.0537 190.253 23.7751 189.972 23.4964C189.691 23.3107 189.41 23.2178 188.942 23.2178C188.661 23.2178 188.38 23.2178 188.099 23.3107C187.818 23.4036 187.63 23.4964 187.349 23.6822V31.2049C187.162 31.2049 186.974 31.2977 186.693 31.2977C186.412 31.2977 186.038 31.3906 185.757 31.3906C185.476 31.3906 185.195 31.3906 184.914 31.2977C184.633 31.2977 184.445 31.2049 184.258 31.0191C184.071 30.9262 183.977 30.7405 183.883 30.4619C183.79 30.2761 183.79 29.9046 183.79 29.626V23.1249C183.79 22.7535 183.883 22.382 184.071 22.1962C184.258 21.9176 184.445 21.7319 184.726 21.5461C185.195 21.1746 185.85 20.896 186.506 20.7103C187.256 20.5245 188.005 20.4316 188.942 20.4316C190.534 20.4316 191.752 20.8031 192.595 21.5461C193.438 22.2891 193.906 23.2178 193.906 24.518V31.2977C193.719 31.2977 193.532 31.3906 193.251 31.3906C192.97 31.3906 192.595 31.4835 192.314 31.4835C192.033 31.4835 191.752 31.4835 191.471 31.3906C191.19 31.3906 191.003 31.2977 190.815 31.112C190.628 31.0191 190.534 30.8334 190.44 30.5548C190.347 30.369 190.347 29.9975 190.347 29.7189V24.518Z" fill="white"/>
<path d="M46.3688 41.6068C46.0877 41.6068 45.9004 41.4211 45.9004 41.1425V36.2202C45.9004 35.9416 46.0877 35.7559 46.3688 35.7559C46.6498 35.7559 46.8371 35.9416 46.8371 36.2202V41.1425C46.7435 41.4211 46.6498 41.6068 46.3688 41.6068Z" fill="white"/>
<path d="M48.4299 41.6059C48.1489 41.6059 48.0552 41.5131 48.0552 41.2344V37.9839C48.0552 37.7053 48.1489 37.6124 48.4299 37.6124C48.7109 37.6124 48.8046 37.7053 48.8046 37.9839V38.2625C48.8982 37.9839 49.0856 37.891 49.3666 37.7053C49.6476 37.6124 49.835 37.5195 50.116 37.5195C51.0528 37.5195 51.5211 38.0768 51.5211 39.0984V41.1416C51.5211 41.4202 51.4275 41.5131 51.1464 41.5131C50.8654 41.5131 50.7717 41.4202 50.7717 41.1416V39.0984C50.7717 38.7269 50.6781 38.5411 50.5844 38.3554C50.4907 38.1696 50.2097 38.0768 49.9287 38.0768C49.554 38.0768 49.3666 38.1696 49.1793 38.3554C48.9919 38.5411 48.8982 38.8197 48.8982 39.1912V41.0487C48.8046 41.4202 48.7109 41.6059 48.4299 41.6059Z" fill="white"/>
<path d="M54.1437 41.607C53.8627 41.607 53.6754 41.607 53.3943 41.5141C53.1133 41.4213 52.926 41.3284 52.7386 41.2355C52.6449 41.1426 52.5513 41.1426 52.5513 41.0498C52.5513 40.9569 52.5513 40.864 52.5513 40.864C52.5513 40.7711 52.6449 40.7711 52.7386 40.6783C52.8323 40.6783 52.926 40.6783 53.0196 40.6783C53.207 40.7711 53.3943 40.864 53.6754 40.9569C53.8627 41.0498 54.0501 41.0498 54.2374 41.0498C54.5184 41.0498 54.7058 40.9569 54.8931 40.864C55.0805 40.7711 55.0805 40.5854 55.0805 40.4925C55.0805 40.3997 54.9868 40.2139 54.8931 40.121C54.7995 40.0282 54.6121 40.0282 54.4248 39.9353L53.6754 39.7495C53.0196 39.6567 52.6449 39.2852 52.6449 38.728C52.6449 38.3565 52.8323 38.0778 53.1133 37.7992C53.3943 37.6135 53.769 37.4277 54.3311 37.4277C54.7995 37.4277 55.2678 37.5206 55.5489 37.7992C55.6425 37.8921 55.6425 37.8921 55.7362 37.985C55.7362 38.0778 55.7362 38.1707 55.7362 38.1707C55.7362 38.2636 55.6425 38.2636 55.5489 38.3565C55.4552 38.3565 55.3615 38.3565 55.2678 38.3565C55.0805 38.2636 54.9868 38.1707 54.7995 38.1707C54.5184 38.0778 54.3311 38.0778 54.2374 38.0778C53.9564 38.0778 53.769 38.1707 53.5817 38.2636C53.3943 38.3565 53.3943 38.5422 53.3943 38.6351C53.3943 38.9137 53.5817 39.0994 53.9564 39.1923L54.7058 39.3781C55.0805 39.4709 55.3615 39.5638 55.5489 39.7495C55.7362 39.9353 55.8299 40.121 55.8299 40.3997C55.8299 40.7711 55.6425 41.0498 55.3615 41.3284C54.9868 41.5141 54.6121 41.607 54.1437 41.607Z" fill="white"/>
<path d="M57.048 42.999C56.767 42.999 56.6733 42.9061 56.6733 42.6275V37.9839C56.6733 37.7053 56.767 37.6124 57.048 37.6124C57.3291 37.6124 57.4227 37.7053 57.4227 37.9839V38.2625C57.5164 38.0768 57.7038 37.891 57.9848 37.7053C58.1721 37.6124 58.4532 37.5195 58.8279 37.5195C59.2026 37.5195 59.4836 37.6124 59.7646 37.7981C60.0456 37.9839 60.233 38.1696 60.4203 38.5411C60.6077 38.8197 60.6077 39.1912 60.6077 39.6556C60.6077 40.12 60.514 40.3986 60.4203 40.7701C60.233 41.0487 60.0456 41.3273 59.7646 41.5131C59.4836 41.6988 59.2026 41.7917 58.8279 41.7917C58.5468 41.7917 58.2658 41.6988 58.0785 41.6059C57.8911 41.5131 57.7038 41.3273 57.5164 41.0487V42.8133C57.5164 42.9061 57.3291 42.999 57.048 42.999ZM58.5468 40.9558C58.9215 40.9558 59.2026 40.8629 59.3899 40.5843C59.5773 40.3057 59.6709 40.0271 59.6709 39.5627C59.6709 39.0984 59.5773 38.7269 59.3899 38.5411C59.2026 38.2625 58.9215 38.1696 58.5468 38.1696C58.1721 38.1696 57.8911 38.2625 57.7038 38.5411C57.5164 38.8197 57.4227 39.0984 57.4227 39.5627C57.4227 40.0271 57.5164 40.3986 57.7038 40.5843C57.9848 40.8629 58.2658 40.9558 58.5468 40.9558Z" fill="white"/>
<path d="M61.8253 36.6846C61.638 36.6846 61.5443 36.6846 61.4506 36.5917C61.3569 36.4988 61.3569 36.406 61.3569 36.2202C61.3569 35.9416 61.5443 35.7559 61.8253 35.7559C62.1063 35.7559 62.2937 35.9416 62.2937 36.2202C62.3873 36.4988 62.2 36.6846 61.8253 36.6846ZM61.8253 41.514C61.5443 41.514 61.4506 41.3282 61.4506 41.0496V37.8919C61.4506 37.6133 61.5443 37.4276 61.8253 37.4276C62.1063 37.4276 62.2 37.6133 62.2 37.8919V41.0496C62.2937 41.4211 62.1063 41.514 61.8253 41.514Z" fill="white"/>
<path d="M63.8859 41.6068C63.6049 41.6068 63.5112 41.5139 63.5112 41.2353V37.9848C63.5112 37.7062 63.6049 37.6133 63.8859 37.6133C64.1669 37.6133 64.2606 37.7062 64.2606 37.9848V38.3563C64.3543 38.0776 64.5416 37.8919 64.729 37.799C64.9163 37.7062 65.1974 37.6133 65.5721 37.6133C65.7594 37.6133 65.8531 37.7062 65.8531 37.8919C65.8531 38.1705 65.7594 38.2634 65.4784 38.2634H65.291C64.5416 38.3563 64.1669 38.7278 64.1669 39.3779V41.2353C64.2606 41.4211 64.1669 41.6068 63.8859 41.6068Z" fill="white"/>
<path d="M67.7268 41.607C67.4458 41.607 67.1648 41.5141 66.9774 41.4213C66.7901 41.3284 66.6027 41.1426 66.4154 40.9569C66.228 40.7711 66.228 40.5854 66.228 40.3068C66.228 40.0282 66.3217 39.7495 66.4154 39.6567C66.6027 39.4709 66.7901 39.3781 67.1648 39.2852C67.5395 39.1923 68.0078 39.1923 68.5699 39.1923H68.8509V39.0066C68.8509 38.728 68.7572 38.4493 68.6636 38.3565C68.5699 38.2636 68.2889 38.1707 68.0078 38.1707C67.8205 38.1707 67.6331 38.1707 67.4458 38.2636C67.2584 38.2636 67.0711 38.3565 66.8838 38.4493C66.7901 38.5422 66.6964 38.5422 66.6027 38.4493C66.5091 38.4493 66.5091 38.3565 66.4154 38.2636C66.4154 38.1707 66.4154 38.0778 66.4154 37.985C66.4154 37.8921 66.5091 37.7992 66.6027 37.7992C66.8837 37.7064 67.0711 37.6135 67.3521 37.5206C67.5395 37.4277 67.8205 37.4277 68.0078 37.4277C68.5699 37.4277 68.9446 37.5206 69.2256 37.7992C69.5066 38.0778 69.6003 38.4493 69.6003 39.0066V41.0498C69.6003 41.3284 69.5066 41.4213 69.2256 41.4213C68.9446 41.4213 68.8509 41.3284 68.8509 41.0498V40.864C68.7572 41.0498 68.5699 41.2355 68.3825 41.4213C68.1952 41.5141 68.0078 41.607 67.7268 41.607ZM67.9142 40.9569C68.1952 40.9569 68.4762 40.864 68.6636 40.6783C68.8509 40.4925 68.9446 40.2139 68.9446 39.9353V39.7495H68.6636C68.2889 39.7495 67.9142 39.7495 67.7268 39.8424C67.5395 39.8424 67.3521 39.9353 67.2585 40.0282C67.1648 40.121 67.0711 40.2139 67.0711 40.3997C67.0711 40.5854 67.1648 40.7711 67.2585 40.864C67.4458 40.9569 67.6331 40.9569 67.9142 40.9569Z" fill="white"/>
<path d="M72.504 41.6052C72.0356 41.6052 71.6609 41.5123 71.3799 41.2337C71.0989 40.9551 71.0052 40.5836 71.0052 40.1192V38.1689H70.5368C70.3495 38.1689 70.1621 38.076 70.1621 37.8903C70.1621 37.7045 70.2558 37.6116 70.5368 37.6116H71.0052V36.7758C71.0052 36.4972 71.0989 36.4043 71.3799 36.4043C71.6609 36.4043 71.7546 36.4972 71.7546 36.7758V37.6116H72.6913C72.8787 37.6116 73.066 37.7045 73.066 37.8903C73.066 38.076 72.9723 38.1689 72.6913 38.1689H71.7546V40.0263C71.7546 40.3049 71.8483 40.4907 71.9419 40.6764C72.1293 40.8622 72.3166 40.8622 72.5976 40.8622C72.6913 40.8622 72.785 40.8622 72.8787 40.8622C72.9723 40.8622 72.9723 40.8622 73.066 40.8622C73.1597 40.8622 73.1597 40.8622 73.2534 40.9551C73.2534 40.9551 73.347 41.0479 73.347 41.1408C73.347 41.2337 73.347 41.3265 73.347 41.3265C73.347 41.4194 73.2534 41.4194 73.1597 41.4194C73.066 41.4194 72.9723 41.5123 72.8787 41.5123C72.785 41.5123 72.5976 41.6052 72.504 41.6052Z" fill="white"/>
<path d="M74.2838 36.6846C74.0965 36.6846 74.0028 36.6846 73.9091 36.5917C73.8154 36.4988 73.8154 36.406 73.8154 36.2202C73.8154 35.9416 74.0028 35.7559 74.2838 35.7559C74.5648 35.7559 74.7522 35.9416 74.7522 36.2202C74.7522 36.4988 74.5648 36.6846 74.2838 36.6846ZM74.2838 41.514C74.0028 41.514 73.9091 41.3282 73.9091 41.0496V37.8919C73.9091 37.6133 74.0028 37.4276 74.2838 37.4276C74.5648 37.4276 74.6585 37.6133 74.6585 37.8919V41.0496C74.6585 41.4211 74.5648 41.514 74.2838 41.514Z" fill="white"/>
<path d="M77.5624 41.6061C77.1877 41.6061 76.813 41.5132 76.532 41.3275C76.2509 41.1418 75.9699 40.956 75.8762 40.5845C75.6889 40.3059 75.5952 39.9344 75.5952 39.4701C75.5952 39.0057 75.6889 38.7271 75.8762 38.3556C76.0636 38.077 76.2509 37.7983 76.532 37.6126C76.813 37.4269 77.1877 37.334 77.5624 37.334C77.9371 37.334 78.3118 37.4269 78.5928 37.6126C78.8738 37.7983 79.1549 37.9841 79.2485 38.3556C79.3422 38.7271 79.5296 39.0057 79.5296 39.4701C79.5296 39.9344 79.4359 40.213 79.2485 40.5845C79.0612 40.8631 78.8738 41.1418 78.5928 41.3275C78.3118 41.5132 77.9371 41.6061 77.5624 41.6061ZM77.5624 40.956C77.9371 40.956 78.1244 40.8631 78.4055 40.5845C78.5928 40.3059 78.6865 40.0273 78.6865 39.5629C78.6865 39.0986 78.5928 38.7271 78.4055 38.5413C78.2181 38.2627 77.9371 38.1698 77.5624 38.1698C77.1877 38.1698 76.9067 38.2627 76.7193 38.5413C76.532 38.8199 76.4383 39.0986 76.4383 39.5629C76.4383 40.0273 76.532 40.3988 76.7193 40.5845C76.9067 40.8631 77.1877 40.956 77.5624 40.956Z" fill="white"/>
<path d="M80.841 41.6059C80.56 41.6059 80.4663 41.5131 80.4663 41.2344V37.9839C80.4663 37.7053 80.56 37.6124 80.841 37.6124C81.122 37.6124 81.2157 37.7053 81.2157 37.9839V38.2625C81.3094 37.9839 81.4967 37.891 81.7778 37.7053C82.0588 37.6124 82.2461 37.5195 82.5271 37.5195C83.4639 37.5195 83.9323 38.0768 83.9323 39.0984V41.1416C83.9323 41.4202 83.8386 41.5131 83.5576 41.5131C83.2765 41.5131 83.1829 41.4202 83.1829 41.1416V39.0984C83.1829 38.7269 83.0892 38.5411 82.9955 38.3554C82.9018 38.1696 82.6208 38.0768 82.3398 38.0768C81.9651 38.0768 81.7777 38.1696 81.5904 38.3554C81.403 38.5411 81.3094 38.8197 81.3094 39.1912V41.0487C81.2157 41.4202 81.122 41.6059 80.841 41.6059Z" fill="white"/>
<path d="M88.9908 41.6052C88.5224 41.6052 88.1477 41.5123 87.8667 41.2337C87.5857 40.9551 87.492 40.5836 87.492 40.1192V38.1689H87.0236C86.8363 38.1689 86.6489 38.076 86.6489 37.8903C86.6489 37.7045 86.7426 37.6116 87.0236 37.6116H87.492V36.7758C87.492 36.4972 87.5857 36.4043 87.8667 36.4043C88.1477 36.4043 88.2414 36.4972 88.2414 36.7758V37.6116H89.1781C89.3655 37.6116 89.5528 37.7045 89.5528 37.8903C89.5528 38.076 89.4592 38.1689 89.1781 38.1689H88.2414V40.0263C88.2414 40.3049 88.3351 40.4907 88.4287 40.6764C88.5224 40.8622 88.7098 40.8622 88.9908 40.8622C89.0845 40.8622 89.1781 40.8622 89.2718 40.8622C89.3655 40.8622 89.3655 40.8622 89.4592 40.8622C89.5528 40.8622 89.5528 40.8622 89.6465 40.9551C89.6465 40.9551 89.7402 41.0479 89.7402 41.1408C89.7402 41.2337 89.7402 41.3265 89.7402 41.3265C89.7402 41.4194 89.6465 41.4194 89.5528 41.4194C89.4592 41.4194 89.3655 41.5123 89.2718 41.5123C89.1781 41.5123 89.0845 41.6052 88.9908 41.6052Z" fill="white"/>
<path d="M90.6769 36.6846C90.4895 36.6846 90.3958 36.6846 90.3022 36.5917C90.2085 36.4988 90.2085 36.406 90.2085 36.2202C90.2085 35.9416 90.3958 35.7559 90.6769 35.7559C90.9579 35.7559 91.1452 35.9416 91.1452 36.2202C91.2389 36.4988 91.0516 36.6846 90.6769 36.6846ZM90.6769 41.514C90.3958 41.514 90.3022 41.3282 90.3022 41.0496V37.8919C90.3022 37.6133 90.3958 37.4276 90.6769 37.4276C90.9579 37.4276 91.0516 37.6133 91.0516 37.8919V41.0496C91.1452 41.4211 90.9579 41.514 90.6769 41.514Z" fill="white"/>
<path d="M93.5811 41.6058C93.1127 41.6058 92.8317 41.5129 92.6443 41.2343C92.457 40.9557 92.3633 40.677 92.3633 40.2127V36.2191C92.3633 35.9405 92.457 35.8477 92.738 35.8477C93.019 35.8477 93.1127 35.9405 93.1127 36.2191V40.1198C93.1127 40.677 93.3 40.9556 93.7684 40.9556C93.8621 40.9556 93.8621 40.9556 93.8621 40.9556H93.9558C94.0494 40.9556 94.0494 40.9556 94.0494 41.0485C94.0494 41.0485 94.0494 41.1414 94.0494 41.3271C94.0494 41.5129 93.9557 41.6986 93.7684 41.6986C93.6747 41.6986 93.6747 41.6986 93.5811 41.6986C93.6747 41.6058 93.5811 41.6058 93.5811 41.6058Z" fill="white"/>
<path d="M98.3582 41.6068C97.4215 41.6068 96.9531 41.0496 96.9531 40.028V37.9848C96.9531 37.7062 97.0468 37.6133 97.3278 37.6133C97.6088 37.6133 97.7025 37.7062 97.7025 37.9848V40.028C97.7025 40.3066 97.7962 40.5852 97.8899 40.771C97.9835 40.9567 98.2646 40.9567 98.5456 40.9567C98.8266 40.9567 99.1076 40.8638 99.295 40.6781C99.4823 40.4923 99.576 40.2137 99.576 39.8422V37.9848C99.576 37.7062 99.6697 37.6133 99.9507 37.6133C100.232 37.6133 100.325 37.7062 100.325 37.9848V41.2353C100.325 41.5139 100.232 41.6068 99.9507 41.6068C99.6697 41.6068 99.576 41.5139 99.576 41.2353V40.8638C99.4823 41.0496 99.295 41.2353 99.014 41.4211C98.9203 41.5139 98.6393 41.6068 98.3582 41.6068Z" fill="white"/>
<path d="M103.042 41.6059C102.667 41.6059 102.386 41.5131 102.105 41.3273C101.824 41.1416 101.637 40.9558 101.45 40.5844C101.262 40.3057 101.262 39.9342 101.262 39.4699C101.262 39.0055 101.356 38.7269 101.45 38.3554C101.543 37.9839 101.824 37.7982 102.105 37.6124C102.386 37.4267 102.667 37.3338 103.042 37.3338C103.323 37.3338 103.604 37.4267 103.885 37.5196C104.072 37.6124 104.26 37.7982 104.447 38.0768V36.0336C104.447 35.755 104.541 35.6621 104.822 35.6621C105.103 35.6621 105.197 35.755 105.197 36.0336V41.0487C105.197 41.3273 105.103 41.4202 104.822 41.4202C104.541 41.4202 104.447 41.3273 104.447 41.0487V40.863C104.353 41.0487 104.166 41.2345 103.885 41.4202C103.604 41.5131 103.417 41.6059 103.042 41.6059ZM103.323 40.9558C103.698 40.9558 103.885 40.863 104.166 40.5844C104.353 40.3057 104.447 40.0271 104.447 39.5628C104.447 39.0984 104.353 38.7269 104.166 38.5412C103.979 38.2625 103.698 38.1697 103.323 38.1697C102.948 38.1697 102.667 38.2625 102.48 38.5412C102.293 38.8198 102.199 39.0984 102.199 39.5628C102.199 40.0271 102.293 40.3986 102.48 40.5844C102.667 40.863 102.948 40.9558 103.323 40.9558Z" fill="white"/>
<path d="M108.288 41.607C107.632 41.607 107.164 41.4213 106.789 41.0498C106.414 40.6783 106.227 40.2139 106.227 39.5638C106.227 39.1923 106.321 38.8208 106.508 38.4493C106.695 38.0778 106.883 37.8921 107.164 37.7064C107.445 37.5206 107.82 37.4277 108.194 37.4277C108.756 37.4277 109.131 37.6135 109.506 37.985C109.787 38.3565 109.974 38.8208 109.974 39.3781C109.974 39.5638 109.88 39.6567 109.693 39.6567H107.07C107.164 40.4925 107.538 40.864 108.382 40.864C108.569 40.864 108.756 40.864 108.85 40.7711C109.037 40.7711 109.225 40.6783 109.412 40.5854C109.506 40.4925 109.599 40.4925 109.693 40.4925C109.787 40.4925 109.88 40.5854 109.88 40.5854C109.88 40.6783 109.88 40.7711 109.88 40.864C109.88 40.9569 109.787 41.0498 109.693 41.0498C109.506 41.1426 109.318 41.2355 109.037 41.3284C108.663 41.5141 108.475 41.607 108.288 41.607ZM108.101 38.0778C107.726 38.0778 107.445 38.1707 107.257 38.3565C107.07 38.5422 106.976 38.8208 106.883 39.1923H109.131C109.131 38.8208 109.037 38.5422 108.85 38.3565C108.663 38.1707 108.475 38.0778 108.101 38.0778Z" fill="white"/>
<path d="M112.035 41.6058C111.566 41.6058 111.285 41.5129 111.098 41.2343C110.911 40.9557 110.817 40.677 110.817 40.2127V36.2191C110.817 35.9405 110.911 35.8477 111.192 35.8477C111.473 35.8477 111.566 35.9405 111.566 36.2191V40.1198C111.566 40.677 111.754 40.9556 112.222 40.9556C112.316 40.9556 112.316 40.9556 112.316 40.9556H112.409C112.503 40.9556 112.503 40.9556 112.503 41.0485C112.503 41.0485 112.503 41.1414 112.503 41.3271C112.503 41.5129 112.409 41.6986 112.222 41.6986C112.128 41.6986 112.128 41.6986 112.035 41.6986C112.128 41.6058 112.035 41.6058 112.035 41.6058Z" fill="white"/>
<path d="M113.627 36.6846C113.44 36.6846 113.346 36.6846 113.252 36.5917C113.159 36.4988 113.159 36.406 113.159 36.2202C113.159 35.9416 113.346 35.7559 113.627 35.7559C113.908 35.7559 114.095 35.9416 114.095 36.2202C114.189 36.4988 114.002 36.6846 113.627 36.6846ZM113.627 41.514C113.346 41.514 113.252 41.3282 113.252 41.0496V37.8919C113.252 37.6133 113.346 37.4276 113.627 37.4276C113.908 37.4276 114.002 37.6133 114.002 37.8919V41.0496C114.095 41.4211 113.908 41.514 113.627 41.514Z" fill="white"/>
<path d="M116.719 41.6059C116.531 41.6059 116.344 41.5131 116.25 41.2344L114.845 38.0768C114.751 37.891 114.751 37.7981 114.845 37.7053C114.939 37.6124 115.033 37.5195 115.22 37.5195C115.314 37.5195 115.407 37.5195 115.501 37.6124C115.595 37.7053 115.595 37.7053 115.688 37.891L116.812 40.5843L117.936 37.891C118.03 37.7981 118.03 37.7053 118.124 37.6124C118.217 37.5195 118.311 37.5195 118.405 37.5195C118.592 37.5195 118.686 37.6124 118.686 37.7053C118.779 37.7981 118.779 37.9839 118.686 38.0768L117.281 41.2344C117.187 41.4202 117 41.6059 116.719 41.6059Z" fill="white"/>
<path d="M123.369 41.6061C122.995 41.6061 122.62 41.5132 122.339 41.3275C122.058 41.1418 121.777 40.956 121.683 40.5845C121.496 40.3059 121.402 39.9344 121.402 39.4701C121.402 39.0057 121.496 38.7271 121.683 38.3556C121.871 38.077 122.058 37.7983 122.339 37.6126C122.62 37.4269 122.995 37.334 123.369 37.334C123.744 37.334 124.119 37.4269 124.4 37.6126C124.681 37.7983 124.962 37.9841 125.056 38.3556C125.243 38.6342 125.337 39.0057 125.337 39.4701C125.337 39.9344 125.243 40.213 125.056 40.5845C124.868 40.8631 124.681 41.1418 124.4 41.3275C124.025 41.5132 123.744 41.6061 123.369 41.6061ZM123.369 40.956C123.744 40.956 123.932 40.8631 124.213 40.5845C124.4 40.3059 124.494 40.0273 124.494 39.5629C124.494 39.0986 124.4 38.7271 124.213 38.5413C124.025 38.2627 123.744 38.1698 123.369 38.1698C122.995 38.1698 122.714 38.2627 122.526 38.5413C122.339 38.8199 122.245 39.0986 122.245 39.5629C122.245 40.0273 122.339 40.3988 122.526 40.5845C122.714 40.8631 122.995 40.956 123.369 40.956Z" fill="white"/>
<path d="M127.959 43.0001C127.678 43.0001 127.397 43.0001 127.116 42.9072C126.835 42.8143 126.554 42.7215 126.367 42.6286C126.273 42.5357 126.179 42.5357 126.179 42.4429C126.179 42.35 126.179 42.2571 126.179 42.1642C126.179 42.0714 126.273 42.0714 126.367 41.9785C126.46 41.9785 126.554 41.9785 126.648 41.9785C126.929 42.0714 127.116 42.1642 127.303 42.2571C127.491 42.2571 127.678 42.35 127.866 42.35C128.615 42.35 128.99 41.9785 128.99 41.2355V40.5854C128.896 40.864 128.709 41.0498 128.428 41.1426C128.147 41.2355 127.959 41.3284 127.585 41.3284C127.21 41.3284 126.929 41.2355 126.648 41.0498C126.367 40.864 126.179 40.6783 125.992 40.3997C125.805 40.121 125.805 39.7496 125.805 39.3781C125.805 39.0066 125.898 38.6351 125.992 38.3565C126.179 38.0778 126.367 37.7992 126.648 37.7064C126.929 37.5206 127.21 37.4277 127.585 37.4277C127.866 37.4277 128.147 37.5206 128.428 37.6135C128.709 37.7064 128.802 37.8921 128.99 38.1707V37.8921C128.99 37.6135 129.083 37.5206 129.364 37.5206C129.645 37.5206 129.739 37.6135 129.739 37.8921V41.1426C129.739 41.7927 129.552 42.2571 129.271 42.5357C129.083 42.9072 128.615 43.0001 127.959 43.0001ZM127.959 40.7711C128.334 40.7711 128.615 40.6783 128.802 40.3997C128.99 40.121 129.083 39.8424 129.083 39.4709C129.083 39.0994 128.99 38.728 128.802 38.5422C128.615 38.2636 128.334 38.1707 127.959 38.1707C127.585 38.1707 127.303 38.2636 127.116 38.5422C126.929 38.8208 126.835 39.0994 126.835 39.4709C126.835 39.8424 126.929 40.2139 127.116 40.3997C127.303 40.6783 127.585 40.7711 127.959 40.7711Z" fill="white"/>
<path d="M134.61 41.6068C133.673 41.6068 133.205 41.0496 133.205 40.028V37.9848C133.205 37.7062 133.299 37.6133 133.58 37.6133C133.861 37.6133 133.954 37.7062 133.954 37.9848V40.028C133.954 40.3066 134.048 40.5852 134.142 40.771C134.236 40.9567 134.517 40.9567 134.798 40.9567C135.079 40.9567 135.36 40.8638 135.547 40.6781C135.734 40.4923 135.828 40.2137 135.828 39.8422V37.9848C135.828 37.7062 135.922 37.6133 136.203 37.6133C136.484 37.6133 136.577 37.7062 136.577 37.9848V41.2353C136.577 41.5139 136.484 41.6068 136.203 41.6068C135.922 41.6068 135.828 41.5139 135.828 41.2353V40.8638C135.734 41.0496 135.547 41.2353 135.266 41.4211C135.172 41.5139 134.891 41.6068 134.61 41.6068Z" fill="white"/>
<path d="M139.294 41.6059C138.919 41.6059 138.638 41.5131 138.357 41.3273C138.076 41.1416 137.889 40.9558 137.702 40.5844C137.514 40.3057 137.514 39.9342 137.514 39.4699C137.514 39.0055 137.608 38.7269 137.702 38.3554C137.795 37.9839 138.076 37.7982 138.357 37.6124C138.638 37.4267 138.919 37.3338 139.294 37.3338C139.575 37.3338 139.856 37.4267 140.137 37.5196C140.324 37.6124 140.512 37.7982 140.699 38.0768V36.0336C140.699 35.755 140.793 35.6621 141.074 35.6621C141.355 35.6621 141.448 35.755 141.448 36.0336V41.0487C141.448 41.3273 141.355 41.4202 141.074 41.4202C140.793 41.4202 140.699 41.3273 140.699 41.0487V40.863C140.605 41.0487 140.418 41.2345 140.137 41.4202C139.856 41.5131 139.669 41.6059 139.294 41.6059ZM139.575 40.9558C139.95 40.9558 140.137 40.863 140.418 40.5844C140.605 40.3057 140.699 40.0271 140.699 39.5628C140.699 39.0984 140.605 38.7269 140.418 38.5412C140.231 38.2625 139.95 38.1697 139.575 38.1697C139.2 38.1697 138.919 38.2625 138.732 38.5412C138.545 38.8198 138.451 39.0984 138.451 39.5628C138.451 40.0271 138.545 40.3986 138.732 40.5844C138.919 40.863 139.2 40.9558 139.575 40.9558Z" fill="white"/>
<path d="M144.54 41.607C143.884 41.607 143.416 41.4213 143.041 41.0498C142.666 40.6783 142.479 40.2139 142.479 39.5638C142.479 39.1923 142.573 38.8208 142.76 38.4493C142.947 38.0778 143.135 37.8921 143.416 37.7064C143.697 37.5206 144.071 37.4277 144.446 37.4277C145.008 37.4277 145.383 37.6135 145.758 37.985C146.039 38.3565 146.226 38.8208 146.226 39.3781C146.226 39.5638 146.132 39.6567 145.945 39.6567H143.322C143.416 40.4925 143.79 40.864 144.634 40.864C144.821 40.864 145.008 40.864 145.102 40.7711C145.289 40.7711 145.477 40.6783 145.664 40.5854C145.758 40.4925 145.851 40.4925 145.945 40.4925C146.039 40.4925 146.132 40.5854 146.132 40.5854C146.132 40.6783 146.132 40.7711 146.132 40.864C146.132 40.9569 146.039 41.0498 145.945 41.0498C145.758 41.1426 145.57 41.2355 145.289 41.3284C144.915 41.5141 144.727 41.607 144.54 41.607ZM144.353 38.0778C143.978 38.0778 143.697 38.1707 143.509 38.3565C143.322 38.5422 143.228 38.8208 143.135 39.1923H145.383C145.383 38.8208 145.289 38.5422 145.102 38.3565C144.915 38.1707 144.727 38.0778 144.353 38.0778Z" fill="white"/>
<path d="M148.381 41.607C148.1 41.607 147.912 41.607 147.631 41.5141C147.35 41.4213 147.163 41.3284 146.975 41.2355C146.882 41.1426 146.788 41.1426 146.788 41.0498C146.788 40.9569 146.788 40.864 146.788 40.864C146.788 40.7711 146.882 40.7711 146.975 40.6783C147.069 40.6783 147.163 40.6783 147.256 40.6783C147.444 40.7711 147.631 40.864 147.912 40.9569C148.1 41.0498 148.287 41.0498 148.474 41.0498C148.755 41.0498 148.943 40.9569 149.13 40.864C149.317 40.7711 149.317 40.5854 149.317 40.4925C149.317 40.3997 149.224 40.2139 149.13 40.121C149.036 40.0282 148.849 40.0282 148.662 39.9353L147.912 39.7495C147.256 39.6567 146.882 39.2852 146.882 38.728C146.882 38.3565 147.069 38.0778 147.35 37.7992C147.631 37.6135 148.006 37.4277 148.568 37.4277C149.036 37.4277 149.505 37.5206 149.786 37.7992C149.879 37.8921 149.879 37.8921 149.973 37.985C149.973 38.0778 149.973 38.1707 149.973 38.1707C149.973 38.2636 149.879 38.2636 149.786 38.3565C149.692 38.3565 149.598 38.3565 149.505 38.3565C149.317 38.2636 149.224 38.1707 149.036 38.1707C148.849 38.1707 148.755 38.0778 148.568 38.0778C148.287 38.0778 148.1 38.1707 147.912 38.2636C147.725 38.3565 147.725 38.5422 147.725 38.728C147.725 39.0066 147.912 39.1923 148.287 39.2852L149.036 39.4709C149.411 39.5638 149.692 39.6567 149.879 39.8424C150.067 40.0282 150.16 40.2139 150.16 40.4925C150.16 40.864 149.973 41.1426 149.692 41.4213C149.317 41.5141 148.849 41.607 148.381 41.607Z" fill="white"/>
<path d="M151.378 41.6058C151.097 41.6058 151.003 41.5129 151.003 41.2343V36.2191C151.003 35.9405 151.097 35.8477 151.378 35.8477C151.659 35.8477 151.753 35.9405 151.753 36.2191V39.3768L153.252 37.8909C153.345 37.798 153.439 37.7051 153.533 37.7051C153.626 37.6122 153.72 37.6122 153.814 37.6122C154.001 37.6122 154.095 37.7051 154.188 37.798C154.282 37.8909 154.188 38.0766 154.095 38.1695L152.69 39.5626L154.282 41.1414C154.376 41.2343 154.376 41.3271 154.376 41.42C154.376 41.5129 154.376 41.6058 154.282 41.6058C154.188 41.6986 154.095 41.6986 154.001 41.6986C153.907 41.6986 153.814 41.6986 153.72 41.6058C153.626 41.5129 153.533 41.5129 153.439 41.42L151.846 39.8412V41.3271C151.753 41.42 151.659 41.6058 151.378 41.6058Z" fill="white"/>
<path d="M156.811 41.6061C156.437 41.6061 156.062 41.5132 155.781 41.3275C155.5 41.1418 155.219 40.956 155.125 40.5845C154.938 40.3059 154.844 39.9344 154.844 39.4701C154.844 39.0057 154.938 38.7271 155.125 38.3556C155.313 38.077 155.5 37.7983 155.781 37.6126C156.062 37.4269 156.437 37.334 156.811 37.334C157.186 37.334 157.561 37.4269 157.842 37.6126C158.123 37.7983 158.404 37.9841 158.498 38.3556C158.685 38.6342 158.779 39.0057 158.779 39.4701C158.779 39.9344 158.685 40.213 158.498 40.5845C158.31 40.8631 158.123 41.1418 157.842 41.3275C157.561 41.5132 157.186 41.6061 156.811 41.6061ZM156.811 40.956C157.186 40.956 157.373 40.8631 157.654 40.5845C157.842 40.3059 157.935 40.0273 157.935 39.5629C157.935 39.0986 157.842 38.7271 157.654 38.5413C157.467 38.2627 157.186 38.1698 156.811 38.1698C156.437 38.1698 156.156 38.2627 155.968 38.5413C155.781 38.8199 155.687 39.0986 155.687 39.5629C155.687 40.0273 155.781 40.3988 155.968 40.5845C156.156 40.8631 156.437 40.956 156.811 40.956Z" fill="white"/>
<path d="M160.933 41.6058C160.465 41.6058 160.184 41.5129 159.996 41.2343C159.809 40.9557 159.715 40.677 159.715 40.2127V36.2191C159.715 35.9405 159.809 35.8477 160.09 35.8477C160.371 35.8477 160.465 35.9405 160.465 36.2191V40.1198C160.465 40.677 160.652 40.9556 161.12 40.9556C161.214 40.9556 161.214 40.9556 161.214 40.9556H161.308C161.401 40.9556 161.401 40.9556 161.401 41.0485C161.401 41.0485 161.401 41.1414 161.401 41.3271C161.401 41.5129 161.308 41.6986 161.12 41.6986C161.027 41.6986 161.027 41.6986 160.933 41.6986C161.027 41.6058 161.027 41.6058 160.933 41.6058Z" fill="white"/>
<path d="M163.93 41.607C163.275 41.607 162.806 41.4213 162.432 41.0498C162.057 40.6783 161.87 40.2139 161.87 39.5638C161.87 39.1923 161.963 38.8208 162.151 38.4493C162.338 38.0778 162.525 37.8921 162.806 37.7064C163.087 37.5206 163.462 37.4277 163.837 37.4277C164.399 37.4277 164.774 37.6135 165.148 37.985C165.429 38.3565 165.617 38.8208 165.617 39.3781C165.617 39.5638 165.523 39.6567 165.336 39.6567H162.713C162.806 40.4925 163.181 40.864 164.024 40.864C164.212 40.864 164.399 40.864 164.493 40.7711C164.68 40.7711 164.867 40.6783 165.055 40.5854C165.148 40.4925 165.242 40.4925 165.336 40.4925C165.429 40.4925 165.523 40.5854 165.523 40.5854C165.523 40.6783 165.523 40.7711 165.523 40.864C165.523 40.9569 165.429 41.0498 165.336 41.0498C165.148 41.1426 164.961 41.2355 164.68 41.3284C164.399 41.5141 164.211 41.607 163.93 41.607ZM163.837 38.0778C163.462 38.0778 163.181 38.1707 162.994 38.3565C162.806 38.5422 162.713 38.8208 162.619 39.1923H164.867C164.867 38.8208 164.774 38.5422 164.586 38.3565C164.399 38.1707 164.211 38.0778 163.837 38.0778Z" fill="white"/>
<path d="M33.7231 20.0597C34.8472 19.0381 35.4092 17.645 35.5029 16.0661C35.5966 13.6514 34.0978 11.5154 31.8496 10.6795C31.8496 10.4009 31.9432 10.1223 31.9432 9.7508C31.9432 5.57154 28.4773 2.13525 24.2619 2.13525C23.9809 2.13525 23.7936 2.13525 23.6062 2.13525C23.2315 1.57802 22.8568 1.11365 22.3884 0.649292C22.2948 0.556419 22.2948 0.556419 22.2011 0.463547C22.1074 0.370674 21.9201 0.277802 21.7327 0.184929C21.1707 -0.0936887 20.5149 -0.186561 19.8592 0.0920564C19.2972 0.370674 18.8288 0.927909 18.6414 1.57802L18.4541 2.41387L18.7351 2.50674C18.7351 2.50674 18.7351 2.50674 18.8288 2.50674C19.2972 2.59962 19.7655 2.78536 20.2339 3.06398C20.5149 3.3426 20.796 3.62121 20.8896 3.9927C21.2643 4.82856 22.1074 5.29292 23.0442 5.29292H24.0746H24.1683C26.5101 5.29292 28.4773 7.15037 28.571 9.47218C28.571 9.93655 28.571 10.4938 28.3836 10.9581C28.3836 11.051 28.3836 11.051 28.2899 11.1439C27.9152 12.1655 28.2899 13.3728 29.2267 14.0229L30.0697 14.5802L30.2571 14.3016C30.4444 14.1158 30.5381 13.8372 30.7255 13.5586C31.6622 14.0229 32.2243 14.9517 32.1306 15.9733C32.0369 16.8091 31.7559 17.9236 30.2571 18.4808H30.1634L30.0697 18.5737C29.7887 19.0381 29.5077 20.1525 30.4444 21.1741C31.1938 22.1957 31.5685 23.4959 31.2875 24.7962C30.8191 27.0251 28.571 28.5111 26.3228 28.1396C25.7607 28.0467 25.1987 27.861 24.7303 27.5823L24.4493 27.3966L23.9809 28.1396C23.6062 28.6968 23.6062 29.4398 23.8872 29.997C24.1683 30.5543 24.6366 31.0186 25.2923 31.2044C25.5734 31.2972 25.8544 31.2972 26.0417 31.2972C26.3228 31.2972 26.6975 31.3901 26.9785 31.3901C30.4444 31.3901 33.6294 28.9754 34.4725 25.5391C35.0345 23.8674 34.7535 21.8242 33.7231 20.0597C33.7231 20.1525 33.7231 20.0597 33.7231 20.0597Z" fill="#2AAC65"/>
<path d="M15.6437 0.27868C15.0816 6.27041e-05 14.3322 6.27041e-05 13.7702 0.371553C13.5828 0.464426 13.3955 0.557298 13.3018 0.650171C13.2081 0.743043 13.2081 0.743043 13.1144 0.835916C12.6461 1.20741 12.1777 1.76464 11.8967 2.32188C11.7093 2.32188 11.522 2.32188 11.2409 2.32188C7.02559 2.32188 3.55963 5.75816 3.55963 9.93743C3.55963 10.216 3.55963 10.4947 3.65331 10.8662C1.40512 11.702 0 13.8381 0 16.2528C0 17.7387 0.655722 19.1318 1.77982 20.2463C1.77982 20.2463 1.77982 20.2463 1.87349 20.3392C0.843071 22.0109 0.468373 24.0541 0.936746 26.0044C1.68614 29.4407 4.87108 31.8554 8.43071 31.8554C8.71173 31.8554 9.08643 31.8554 9.36746 31.7625C9.64848 31.7625 9.83583 31.6696 10.1169 31.6696C10.7726 31.4839 11.2409 31.1124 11.522 30.4623C11.803 29.8122 11.7093 29.1621 11.4283 28.6048L10.9599 27.8618L10.6789 28.0476C10.2105 28.3262 9.64848 28.5119 9.08643 28.6048C6.83824 28.9763 4.59005 27.3975 4.12168 25.2614C3.84066 23.9612 4.12168 22.661 4.96475 21.7322C5.9015 20.7106 5.62047 19.5962 5.33945 19.1318L5.24577 19.0389H5.1521C3.65331 18.4817 3.37228 17.3672 3.27861 16.5314C3.18493 15.2312 3.74698 14.3024 4.68373 13.8381C4.7774 14.1167 4.96475 14.3024 5.1521 14.5811L5.33945 14.8597L6.18252 14.3024C7.11927 13.6523 7.49396 12.445 7.11927 11.4234C7.11927 11.3305 7.11927 11.3305 7.02559 11.2376C6.83824 10.7733 6.83824 10.3089 6.83824 9.75168C6.93192 7.42987 8.89908 5.57242 11.3346 5.47955H11.4283H12.4587C13.3955 5.47955 14.2385 4.92231 14.6132 4.17933C14.8006 3.80784 14.9879 3.52922 15.269 3.2506C15.6436 2.97199 16.112 2.69337 16.6741 2.69337C16.6741 2.69337 16.6741 2.69337 16.7677 2.69337L17.0488 2.6005L16.8614 1.76464C16.6741 1.11453 16.2994 0.557298 15.6437 0.27868Z" fill="#2AAC65"/>
<path d="M17.7981 25.0745C18.3602 25.0745 18.9222 24.8887 19.2969 24.5172C19.6716 24.1458 19.859 23.6814 19.859 23.1242C19.859 22.5669 19.6716 22.1026 19.2969 21.7311C18.9222 21.3596 18.4539 21.1738 17.7981 21.1738C17.1424 21.1738 16.6741 21.3596 16.2994 21.7311C15.9247 22.1026 15.7373 22.5669 15.7373 23.1242C15.7373 23.6814 15.9247 24.1458 16.2994 24.5172C16.6741 24.8887 17.1424 25.0745 17.7981 25.0745Z" fill="white"/>
<path d="M25.854 23.775L26.0413 23.4964L25.1983 23.032C24.1678 22.4748 22.9501 22.7534 22.2007 23.6821C21.826 24.2393 21.3576 24.7966 20.8892 25.2609C20.4209 25.7253 19.8588 26.1897 19.2968 26.5612C18.8284 26.8398 18.2663 27.0255 17.7043 27.0255C17.1423 27.0255 16.5802 26.8398 16.2055 26.5612C15.6435 26.1897 15.0814 25.7253 14.613 25.2609C14.1447 24.7966 13.6763 24.2393 13.3016 23.6821C12.6459 22.7534 11.3344 22.4748 10.304 23.032L9.46094 23.4964L9.64829 23.775C11.2408 26.654 13.3953 28.5115 16.1118 29.8117V30.8333C16.1118 31.3905 16.0182 32.0406 15.9245 32.6908C15.8308 33.248 15.5498 33.8981 15.2688 34.5482L12.0838 41.235L12.8332 41.6065C13.3953 41.8851 13.9573 41.8851 14.5194 41.6994C15.0814 41.5136 15.5498 41.0493 15.8308 40.492L17.798 35.8484L19.7651 40.492C20.0462 41.0493 20.5145 41.4208 21.0766 41.6065C21.3576 41.6994 21.545 41.6994 21.826 41.6994C22.2007 41.6994 22.4817 41.6065 22.7627 41.5136L23.5121 41.1422L20.3272 34.4553C20.0462 33.8052 19.8588 33.248 19.6715 32.5979C19.4841 31.9478 19.4841 31.2977 19.4841 30.7404V29.7188C22.107 28.5115 24.2615 26.654 25.854 23.775Z" fill="white"/>
</g>
<defs>
<clipPath id="clip0_1726_50852">
<rect width="194" height="43" fill="white"/>
</clipPath>
</defs>
</svg>
